<svg width="2437" height="1195" viewBox="0 0 2437 1195" fill="none" xmlns="http://www.w3.org/2000/svg">
<path fill-rule="evenodd" clip-rule="evenodd" d="M995.038 0.841986C961.294 1.50299 958.784 1.85499 949.681 7.18899C947.274 8.59999 943.092 12.175 940.387 15.134C935.56 20.416 933.706 23.739 922.707 46.826C917.269 58.24 912.736 64.23 908.246 65.937C903.429 67.768 893.028 66.868 871.038 62.714C863.862 61.359 856.106 60.715 846.538 60.679C830.558 60.62 826.276 61.095 813.038 64.39C770.337 75.021 737.606 105.806 722.955 149.114C719.784 158.488 719.538 158.875 717.092 158.347C715.687 158.043 708.463 157.061 701.038 156.165C689.514 154.773 670.963 154.474 574.288 154.119L461.038 153.703V481.764V809.826L580.788 809.82C722.315 809.812 747.47 808.868 779.409 802.367C813.632 795.402 835.536 776.822 847.541 744.576C848.514 741.964 849.361 739.828 849.424 739.83C849.487 739.833 852.688 740.948 856.538 742.309C874.661 748.716 895.63 742.482 899.082 729.662C900.664 723.789 897.854 664.701 894.933 642.402C893.841 634.067 890.321 625.578 887.289 623.967C885.827 623.191 864.959 620.826 859.566 620.826C858.216 620.826 857.989 619.844 858.238 615.076L858.538 609.326L868.538 608.537C886.481 607.122 892.687 602.093 894.95 587.134C895.548 583.179 896.038 569.062 896.038 555.763C896.038 538.727 896.51 528.442 897.634 520.954C898.529 514.998 899.043 506.949 898.803 502.642C898.445 496.198 897.937 494.382 895.649 491.383C891.008 485.298 886.057 483.408 875.038 483.516C859.828 483.664 847.438 488.495 840.149 497.119L837.76 499.945L834.697 496.135C829.879 490.143 822.094 483.095 815.288 478.564C811.003 475.71 809.043 473.761 809.053 472.364C809.086 467.782 811.039 441.077 811.578 437.826C812.041 435.038 813.178 433.63 817.169 430.904C836.736 417.535 846.035 388.279 846.037 340.076L846.038 323.826L848.788 323.822C854.02 323.814 879.793 317.991 890.644 314.364C938.272 298.448 971.609 263.913 987.694 213.826C994.188 193.603 996.56 192.888 993.104 212.195C986.445 249.385 967.262 283.842 929.671 326.134C926.644 329.54 924.118 332.753 924.057 333.276C923.996 333.798 929.255 335.566 935.742 337.204L947.538 340.183L1075.5 340.527L1203.45 340.87L1214 337.786C1219.79 336.09 1225.32 334.474 1226.29 334.196C1227.25 333.919 1228.04 333.221 1228.04 332.646C1228.04 330.948 1218.94 305.676 1216.76 301.326C1215.66 299.126 1212.91 295.261 1210.65 292.737C1206.24 287.81 1192.89 265.666 1186.03 251.894C1180.92 241.628 1173.5 222.363 1168.62 206.684C1164.75 194.265 1157.14 162.113 1154.58 147.445C1152.62 136.14 1152.6 120.929 1154.55 113.457C1158.04 100.039 1166.86 88.099 1179.3 79.964C1194.35 70.12 1200.41 49.475 1192.52 34.97C1187.2 25.201 1179.05 19.333 1161.71 12.8C1147.62 7.48999 1129.55 3.24399 1113.04 1.36499C1098.75 -0.261014 1060.03 -0.433014 995.038 0.841986ZM1118.87 10.77C1143.12 14.386 1166.1 21.917 1176.84 29.766C1181.82 33.408 1186.54 40.342 1187.49 45.42C1188.42 50.403 1186.49 58.51 1183.05 64.006C1181.31 66.788 1177.17 70.874 1172.83 74.084C1152.72 88.973 1144.68 104.591 1144.67 128.826C1144.66 142.373 1145.55 148.099 1152.19 177.166C1159.43 208.879 1168.47 235.852 1178.68 256.214C1186.16 271.146 1199.22 292.811 1203.8 297.904C1206.15 300.52 1209.13 305.061 1210.41 307.994C1213.7 315.488 1217.35 326.847 1216.69 327.508C1216.38 327.813 1213.52 329.022 1210.34 330.194C1204.59 332.305 1203.64 332.329 1112.04 332.587C1012.55 332.869 949.03 331.855 942.722 329.887L938.906 328.696L943.32 323.511C978.794 281.841 996.84 246.519 1002.49 207.698C1004.87 191.373 1004.94 191.745 998.599 188.314C995.607 186.695 992.979 185.586 992.759 185.849C986.524 193.287 983.597 198.793 979.952 209.941C972.694 232.139 963.702 248.887 950.482 264.826C927.686 292.311 893.017 309.343 847.804 315.27C841.393 316.111 834.313 317.532 832.07 318.43C826.996 320.46 821.584 326.654 819.588 332.717C817.989 337.572 807.201 402.85 804.614 423.326C801.097 451.154 800.759 461.405 801.334 522.826C801.831 575.844 803.353 629.043 807.027 721.826C808.118 749.376 808.341 770.463 807.533 769.655C806.638 768.759 797.241 724.664 795.637 713.826C792.979 695.879 785.058 582.524 783.058 533.826C781.591 498.107 781.795 455.152 783.524 435.826C785.753 410.921 788.099 393.886 797.022 337.826C799.431 322.694 799.47 320.645 797.482 313.948C795.5 307.275 791.043 302.354 780.145 294.806C753.5 276.351 736.242 253.816 728.625 227.531C724.803 214.342 723.688 204.154 724.341 188.403C726.908 126.456 770.348 77.452 829.528 69.745C841.992 68.122 859.857 69.094 876.538 72.302C893.08 75.484 906.709 75.976 912.207 73.589C920.284 70.082 923.782 64.757 938.394 33.719C942.965 24.01 949.484 16.734 956.835 13.135C963.324 9.95899 959.316 10.227 1021.04 8.83799C1072.41 7.68199 1102.1 8.26799 1118.87 10.77ZM830.038 84.311C795.424 90.22 768.771 110.245 752.667 142.44C738.309 171.146 737.539 202.207 750.467 231.291C757.876 247.96 776.697 270.149 794.927 283.704L803.316 289.942L808.989 279.134C812.109 273.19 819.532 258.876 825.483 247.326C831.434 235.776 838.429 222.276 841.027 217.326C845.758 208.312 849.517 201.065 876.035 149.826C883.862 134.701 893.595 115.948 897.663 108.152L905.058 93.977L899.798 92.013C892.767 89.388 875.204 85.08 866.538 83.855C857.099 82.521 839.218 82.744 830.038 84.311ZM881.538 95.44C887.588 97.027 892.47 98.686 892.386 99.127C892.25 99.843 887.57 108.97 861.511 159.326C837.307 206.098 827.733 224.41 827.147 225.053C826.783 225.452 823.797 221.629 820.511 216.555C813.605 205.89 796.675 188.225 787.426 182.031C779.958 177.031 767.68 170.824 759.288 167.806C755.851 166.569 753.038 165.239 753.038 164.849C753.038 162.768 757.454 151.831 761.216 144.594C773.434 121.094 792.105 104.54 815.06 96.855C827.743 92.609 833.568 91.89 852.538 92.231C868.549 92.519 871.753 92.873 881.538 95.44ZM87.038 155.428C87.038 157.915 81.961 197.059 73.497 259.826C72.124 270.001 69.424 290.251 67.494 304.826C65.565 319.401 58.848 369.801 52.566 416.826C46.285 463.851 38.869 519.651 36.087 540.826C33.306 562.001 30.149 585.851 29.072 593.826C27.995 601.801 26.19 615.301 25.061 623.826C23.931 632.351 18.961 669.701 14.014 706.826C9.068 743.951 4.118 781.301 3.014 789.826C1.909 798.351 0.779998 806.338 0.502998 807.576L0 809.826H88.39H176.78L177.397 803.076C177.736 799.364 179.149 783.276 180.537 767.326C181.925 751.376 183.955 728.333 185.049 716.118C186.143 703.904 187.038 693.442 187.038 692.868C187.038 692.168 197.03 691.826 217.493 691.826H247.947L248.454 695.076C248.733 696.864 249.21 702.151 249.515 706.826C249.82 711.501 250.934 726.351 251.989 739.826C253.044 753.301 254.685 774.563 255.634 787.076L257.359 809.826H344.718H432.076L431.594 807.576C431.328 806.339 430.623 801.951 430.026 797.826C427.306 779.031 421.815 741.535 419.115 723.326C412.176 676.512 399.919 594.595 398.541 585.826C397.72 580.601 394.793 561.026 392.037 542.326C386.282 503.278 386.244 503.02 377.49 444.326C373.881 420.126 369.622 391.551 368.025 380.826C366.428 370.101 361.298 335.901 356.624 304.826C351.951 273.751 347.187 241.801 346.039 233.826C340.607 196.088 334.976 158.108 334.513 156.076L334 153.826H210.519C97.93 153.826 87.038 153.967 87.038 155.428ZM1266.04 219.326V284.826H1324.04C1355.94 284.826 1382.04 285.077 1382.04 285.384C1382.04 285.691 1379.81 293.229 1377.09 302.134C1371.46 320.534 1339.77 424.671 1328.33 462.326C1324.16 476.076 1320.65 487.444 1320.54 487.588C1320.44 487.732 1318.36 486.994 1315.94 485.947C1309.69 483.246 1301.78 482.556 1291.46 483.815C1280.73 485.124 1274.34 487.989 1271.65 492.688C1269.8 495.907 1269.77 496.971 1270.91 517.688C1272.53 547.104 1275.92 587.442 1277.19 592.326C1278.37 596.896 1282.01 603.826 1283.22 603.826C1284.84 603.826 1283.89 607.569 1274.63 637.711C1269.46 654.549 1262.18 678.336 1258.46 690.569C1254.74 702.803 1251.52 712.646 1251.32 712.442C1251.12 712.237 1251.63 702.678 1252.46 691.198C1253.3 679.718 1254.28 662.862 1254.66 653.74C1255.33 637.375 1255.3 637.079 1252.77 631.559C1249.71 624.875 1244.4 620.61 1236.77 618.72C1231.32 617.37 1200.49 617.132 1144.54 618.01C1115.47 618.466 1113.84 618.736 1107.4 624.168C1105.68 625.623 1103.2 628.954 1101.9 631.57L1099.54 636.326V680.826V725.326L1102.42 730.534C1105.52 736.126 1110.14 739.839 1116.54 741.896C1119.59 742.877 1133.42 743.184 1175.04 743.193C1229.33 743.204 1229.56 743.196 1234.53 740.966C1237.27 739.735 1240.57 737.738 1241.87 736.527C1245.45 733.187 1248.84 726.844 1249.74 721.826C1250.22 719.11 1250.75 736.158 1251.08 764.826L1251.62 812.326L1246.23 840.142C1243.26 855.441 1241.06 868.178 1241.33 868.447C1241.59 868.715 1247.48 869.563 1254.41 870.331C1273.23 872.417 1280.17 870.852 1287.36 862.893C1291.75 858.036 1300.22 840.878 1306.98 823.177L1311.89 810.326L1438.96 810.072L1566.04 809.818V744.322V678.826H1502.54C1457.7 678.826 1439.04 678.508 1439.04 677.745C1439.04 677.151 1444.02 661.288 1450.11 642.495C1456.2 623.702 1464.93 596.626 1469.5 582.326C1474.08 568.026 1485.55 532.476 1495.01 503.326C1504.46 474.176 1517.14 435.026 1523.18 416.326C1529.22 397.626 1535.23 379.176 1536.54 375.326C1537.86 371.476 1540.48 363.376 1542.39 357.326C1544.29 351.276 1550.38 332.322 1555.94 315.206L1566.04 284.087V218.956V153.826H1416.04H1266.04V219.326ZM1674.57 157.076C1674.05 160.145 1670.91 183.781 1659.06 273.826C1656.27 295.001 1650.4 339.358 1646.01 372.396C1641.62 405.435 1637.62 435.585 1637.12 439.396C1636.62 443.208 1632.33 476.026 1627.58 512.326C1622.84 548.626 1616.47 596.776 1613.44 619.326C1610.41 641.876 1603.69 692.276 1598.49 731.326C1593.3 770.376 1588.79 804.014 1588.46 806.076L1587.86 809.826H1675.93H1764L1764.47 807.576C1764.74 806.338 1765.68 796.326 1766.57 785.326C1767.46 774.326 1769.62 748.901 1771.38 728.826L1774.57 692.326L1805.23 692.062L1835.89 691.797L1836.46 697.062C1836.77 699.957 1838.61 723.701 1840.56 749.826C1842.51 775.951 1844.38 800.139 1844.71 803.576L1845.31 809.826H1932.18C1997.03 809.826 2019.04 809.534 2019.04 808.675C2019.04 807.584 2007.72 731.119 2004.56 710.826C2003.74 705.601 2002.17 695.026 2001.07 687.326C1999.97 679.626 1997.73 664.326 1996.1 653.326C1994.46 642.326 1991.53 622.526 1989.59 609.326C1987.64 596.126 1985.38 581.051 1984.56 575.826C1983.75 570.601 1981.26 553.726 1979.03 538.326C1976.81 522.926 1973.87 502.901 1972.52 493.826C1967.9 462.964 1954.13 370.456 1948.56 332.826C1945.5 312.201 1942.13 289.476 1941.06 282.326C1939.99 275.176 1937.06 255.376 1934.54 238.326C1932.03 221.276 1928.19 195.519 1926.01 181.089C1923.82 166.658 1922.04 154.621 1922.04 154.339C1922.04 154.057 1866.48 153.826 1798.58 153.826H1675.13L1674.57 157.076ZM1992.04 155.781C1992.04 156.856 1996.97 190.494 2003 230.531C2009.03 270.568 2017.57 327.401 2021.98 356.826C2026.4 386.251 2033.59 433.951 2037.96 462.826C2042.34 491.701 2048.89 535.126 2052.52 559.326C2056.14 583.526 2062.73 627.176 2067.15 656.326C2071.56 685.476 2075.8 713.601 2076.57 718.826C2077.33 724.051 2080.67 746.324 2084 768.32C2087.32 790.317 2090.04 808.657 2090.04 809.074C2090.04 809.492 2148.41 809.719 2219.75 809.58L2349.47 809.326L2358.21 743.826C2363.02 707.801 2368.08 669.776 2369.45 659.326C2370.82 648.876 2374.23 623.001 2377.04 601.826C2379.84 580.651 2382.54 560.176 2383.04 556.326C2383.53 552.476 2385.07 541.001 2386.45 530.826C2387.83 520.651 2390.98 497.026 2393.46 478.326C2403.59 401.631 2406.11 382.627 2408.04 368.326C2409.14 360.076 2412.77 332.626 2416.09 307.326C2419.42 282.026 2425.26 237.931 2429.09 209.337C2432.91 180.743 2436.04 156.555 2436.04 155.587C2436.04 153.919 2431.3 153.826 2346.04 153.826C2264.76 153.826 2256.04 153.979 2256.04 155.403C2256.04 156.27 2252.88 189.232 2249.01 228.653C2239.4 326.712 2239.37 327.057 2236.04 364.326C2233.52 392.471 2231.11 421.319 2225.03 496.326C2223.55 514.61 2219.35 571.059 2217.97 591.326C2217.33 600.676 2216.68 608.472 2216.52 608.65C2216.19 609.012 2216.06 607.505 2212.5 562.326C2204.65 462.87 2191.56 329.971 2176.42 196.076L2171.64 153.826H2081.84C1993.39 153.826 1992.04 153.855 1992.04 155.781ZM912.538 182.306C896.208 185.338 885.207 191.867 875.689 204.173C864.861 218.173 857.758 231.688 843.039 266.29C839.071 275.62 834.127 286.925 832.054 291.413L828.285 299.572L833.77 300.138C840.658 300.849 859.308 299.367 869.099 297.331C893.914 292.171 915.633 280.32 934.083 261.87C950.817 245.138 962.716 225.422 970.367 201.754C974.676 188.425 975.564 183.83 973.833 183.814C973.121 183.807 965.113 183.137 956.038 182.326C936.238 180.556 922.001 180.549 912.538 182.306ZM954.808 190.742C959.357 191.177 963.398 191.852 963.788 192.243C964.729 193.184 959.86 207.217 954.93 217.77C946.077 236.723 928.52 258.195 912.891 269.182C895.356 281.509 873.963 289.221 851.288 291.391L844.038 292.084V289.045C844.038 285.501 859.791 247.932 867.435 233.248C885.622 198.306 898.027 189.926 931.538 189.944C939.788 189.948 950.26 190.308 954.808 190.742ZM655.538 266.863C670.228 268.957 676.029 272.713 681.502 283.675C686.693 294.074 687.492 301.156 687.445 336.326C687.354 403.412 683.644 410.194 646.288 411.558L632.038 412.078V338.952V265.826L640.288 265.846C644.826 265.857 651.688 266.315 655.538 266.863ZM220.509 332.878C227.136 412.544 235.59 503.538 239.04 532.326C239.567 536.726 240.683 546.851 241.519 554.826C242.356 562.801 243.285 570.788 243.584 572.576L244.129 575.826H214.583C187.109 575.826 185.039 575.703 185.045 574.076C185.058 571.055 188.95 530.155 191.064 510.826C196.879 457.671 205.983 384.229 213.502 329.826C215.44 315.801 217.028 303.689 217.032 302.909C217.035 302.13 217.249 301.704 217.507 301.962C217.765 302.219 219.115 316.132 220.509 332.878ZM1814.07 402.826C1818.69 454.569 1823.84 506.886 1827.56 539.826C1828.96 552.201 1830.38 565.364 1830.71 569.076L1831.33 575.826H1801.71H1772.09L1772.55 573.076C1772.8 571.563 1773.48 564.476 1774.06 557.326C1775.25 542.605 1779.39 502.337 1781.56 484.326C1782.35 477.726 1784.14 462.876 1785.53 451.326C1788.29 428.36 1791.08 406.267 1794.05 383.826C1795.11 375.851 1796.42 365.726 1796.96 361.326C1799.01 344.753 1804.09 308.209 1804.74 305.326C1805.16 303.478 1806.3 312.888 1807.71 329.826C1808.97 344.951 1811.83 377.801 1814.07 402.826ZM934.038 348.018C932.663 348.54 925.688 350.558 918.538 352.502C901.725 357.074 895.948 360.232 884.385 371.176C868.316 386.383 857.478 405.065 849.61 431.116C844.493 448.057 844.345 449.644 847.284 455.988C849.936 461.713 855.448 467.959 859.835 470.21C864.071 472.384 873.857 474.113 881.754 474.083C894.749 474.033 900.143 468.982 905.522 451.826C922.063 399.07 937.203 348.79 936.834 347.837C936.671 347.415 935.413 347.496 934.038 348.018ZM1232.04 349.691C1232.04 351.159 1253.64 420.556 1258.38 434.326C1264.45 451.942 1268.89 462.979 1270.74 465.04C1274.28 468.976 1280.78 470.296 1296.71 470.311L1311.89 470.326L1314.8 467.543C1318.42 464.091 1322.09 456.885 1322.73 452.008C1323.39 446.892 1319.6 429.233 1315.45 418.167C1307.67 397.396 1294.98 378.809 1279.63 365.718C1268.64 356.346 1266.24 355.259 1249.11 351.872C1231.9 348.472 1232.04 348.489 1232.04 349.691ZM1123.37 351.254C1113.38 353.542 1106.74 358.083 1102.28 365.671L1099.54 370.326V412.326V454.326L1102.2 460.003C1105.09 466.175 1109.46 469.777 1116.54 471.824C1119.41 472.654 1135.37 472.889 1173.04 472.654L1225.54 472.326L1230.22 470.018C1236.16 467.096 1242.04 460.71 1242.04 457.191C1242.04 452.717 1213.56 357.858 1211.88 356.763C1210.44 355.816 1155.5 350.691 1142.11 350.254C1133.5 349.972 1127.59 350.288 1123.37 351.254ZM966.672 352.857C962.817 354.011 956.493 358.483 954.575 361.41C950.059 368.302 927.414 433.336 924.469 447.872C922.184 459.149 924.162 464.805 931.761 468.722C937.233 471.542 946.015 471.975 998.621 472.021C1050.47 472.066 1052.89 471.986 1057.12 470.083C1062.4 467.71 1065.35 464.689 1067.64 459.312C1069.58 454.754 1070.85 428.26 1070.97 390.044C1071.02 372.079 1070.74 367.044 1069.49 364.058C1067.43 359.116 1064.38 355.95 1059.54 353.716C1055.84 352.008 1052.31 351.875 1012.54 351.934C988.888 351.969 968.248 352.384 966.672 352.857ZM1178.04 361.447C1192.61 362.897 1204.93 364.444 1205.42 364.884C1207.03 366.353 1233.04 452.046 1233.04 455.895C1233.04 456.901 1231.39 458.985 1229.37 460.525L1225.7 463.326L1174.62 463.826C1146.52 464.101 1121.66 463.959 1119.36 463.511C1113.97 462.459 1110.47 459.144 1108.99 453.687C1108.18 450.726 1107.76 437.13 1107.67 411.326C1107.54 374.708 1107.61 373.199 1109.59 369.84C1112.03 365.687 1118.47 360.936 1123.16 359.828C1130 358.214 1152.09 358.865 1178.04 361.447ZM924.536 361.076C924.295 361.764 917.758 383.026 910.011 408.326C902.263 433.626 895.029 456.197 893.937 458.483C890.54 465.59 883.702 467.292 870.193 464.395C863.5 462.96 858.385 459.223 855.453 453.626C853.388 449.684 853.657 447.201 857.533 434.412C865.029 409.681 875.416 391.418 889.802 377.674C899.312 368.588 904.673 365.289 914.878 362.246C923.897 359.557 925.122 359.408 924.536 361.076ZM1056.04 361.578C1058.2 362.659 1060.26 364.81 1061.44 367.216C1063.27 370.973 1063.29 372.51 1062.11 412.216C1060.74 457.96 1060.61 458.793 1054.04 462.074C1050.84 463.67 1046.2 463.82 1001.04 463.794C936.936 463.756 932.038 463.13 932.038 454.976C932.038 448.421 939.751 423.434 951.53 391.826C961.848 364.14 962.978 362.34 971.038 360.748C972.963 360.367 992.088 360.005 1013.54 359.943C1048.81 359.84 1052.87 359.996 1056.04 361.578ZM1258.04 362.481C1264.46 364.255 1270.98 368.903 1280.46 378.463C1295.65 393.78 1306.31 413.288 1311.91 436.046C1314.84 447.942 1314.84 451.636 1311.93 456.925L1309.5 461.326L1296.94 461.605C1288.69 461.787 1283.04 461.443 1280.52 460.605C1276.71 459.341 1276.6 459.157 1271.36 445.326C1265.79 430.602 1259.88 412.546 1250.59 381.826C1247.51 371.651 1244.73 362.491 1244.41 361.471C1243.89 359.796 1244.26 359.681 1248.19 360.289C1250.58 360.659 1255.01 361.645 1258.04 362.481ZM774.038 453.744C774.038 459.582 773.665 459.762 765.82 457.702C761.913 456.676 758.558 455.679 758.364 455.485C758.061 455.183 771.19 451.162 773.288 450.914C773.701 450.866 774.038 452.139 774.038 453.744ZM938.71 484.213C931.85 486.122 926.211 490.499 922.807 496.555C920.289 501.036 919.674 503.683 918.511 515.055C916.965 530.168 915.038 566.745 915.038 580.973C915.038 586.228 915.549 592.057 916.174 593.927C917.625 598.269 921.459 602.427 926.538 605.168C930.511 607.312 930.948 607.326 991.538 607.326C1051.44 607.326 1052.62 607.288 1057.04 605.223C1062.75 602.553 1066.76 598.54 1069.43 592.826C1071.4 588.611 1071.56 586.382 1071.84 557.581C1072.32 508.933 1070.68 497.106 1062.43 489.862C1055.37 483.668 1053.93 483.523 996.038 483.18C954.4 482.934 942.539 483.148 938.71 484.213ZM1114.13 485.106C1108.55 486.905 1103.47 492.544 1101.59 499.002C1100.15 503.967 1099.98 510.109 1100.24 548.002C1100.53 590.563 1100.58 591.399 1102.76 595.479C1105.61 600.818 1111.08 605.298 1116.64 606.856C1120.03 607.804 1134.63 607.922 1180.29 607.374C1239.13 606.666 1239.57 606.646 1244.63 604.373C1250.4 601.778 1253.71 597.378 1254.83 590.808C1256.02 583.86 1251.95 523.344 1249.03 504.526C1247.77 496.377 1244.51 491.009 1238.62 487.367L1233.7 484.326L1175.62 484.166C1135.7 484.056 1116.47 484.35 1114.13 485.106ZM886.14 494.106C891.053 497.404 891.906 502.793 889.71 516.652C888.479 524.421 888.019 533.586 888.02 550.326C888.022 562.976 887.594 577.052 887.071 581.606C885.325 596.785 883.276 598.596 866.186 600.055C851.022 601.349 838.858 600.089 835.657 596.892C833.753 594.991 833.504 593.441 833.205 581.609C832.834 566.947 833.819 556.704 838.12 530.538C841.405 510.545 842.332 507.72 847.464 502.039C853.447 495.417 862.771 492.065 875.64 491.911C881.463 491.841 883.354 492.237 886.14 494.106ZM1053.54 494.326C1056.47 495.793 1058.2 497.659 1060.04 501.326L1062.54 506.326L1062.84 546.15C1063.14 584.963 1063.09 586.086 1061.03 590.34C1059.48 593.543 1057.78 595.254 1054.66 596.766C1050.51 598.775 1048.95 598.826 991.472 598.811C928.074 598.795 929.648 598.923 925.634 593.487C923.704 590.873 923.559 589.524 923.799 576.487C924.167 556.514 925.893 523.964 927.148 513.326C928.48 502.041 930.904 497.327 937.035 494.099L941.531 491.731L995.535 492.029C1047.21 492.313 1049.71 492.412 1053.54 494.326ZM1233.77 494.124C1235.55 495.079 1237.76 497.315 1238.68 499.093C1240.7 502.972 1243.14 525.145 1245.65 562.42C1247.69 592.654 1247.51 593.843 1240.58 596.909C1236.79 598.588 1232.09 598.736 1177.88 598.889C1113.64 599.071 1115.57 599.24 1111.42 593.07C1108.35 588.511 1107.66 575.922 1108.26 535.863C1108.85 496.798 1109.17 495.489 1118.71 492.938C1119.97 492.602 1145.65 492.34 1175.77 492.357C1225.82 492.385 1230.82 492.537 1233.77 494.124ZM1310.52 492.941C1316.97 494.733 1321.18 499.933 1325.82 511.85C1336.06 538.138 1339.15 560.37 1335.5 581.445C1333.63 592.195 1332.88 593.08 1320.16 599.338L1310.78 603.954L1302.66 602.321C1292.76 600.33 1289.06 598.338 1286.83 593.798C1285 590.072 1281.63 557.686 1280.53 533.326C1280.21 526.176 1279.48 515.744 1278.9 510.144C1277.76 498.966 1278.15 496.372 1281.23 494.725C1286.17 492.081 1303.6 491.02 1310.52 492.941ZM647.038 514.83C662.736 516.431 673.625 519.51 678.394 523.697C681.589 526.5 683.953 532.367 685.778 542.016C687.323 550.189 687.534 557.86 687.507 604.826C687.472 663.759 687.015 669.383 681.345 680.715C676.179 691.039 665.612 695.335 640.288 697.409L632.038 698.084V605.955V513.826L634.788 513.843C636.301 513.853 641.813 514.297 647.038 514.83ZM930.941 619.817C922.107 621.354 917.134 625.437 914.862 633.019C913.958 636.036 913.972 641.6 914.922 657.134C915.602 668.239 916.768 687.975 917.514 700.991C918.992 726.786 919.882 730.614 925.658 736.023C932.526 742.455 930.9 742.295 993.038 742.637C1033.19 742.857 1050.69 742.617 1053.54 741.807C1060.12 739.932 1064.78 736.253 1067.77 730.571L1070.54 725.326L1070.83 688.339C1071 667.587 1070.69 647.743 1070.13 643.13C1068.62 630.84 1064.97 624.934 1056.52 621.124C1052.85 619.465 1048 619.314 994.038 619.171C961.863 619.086 933.469 619.377 930.941 619.817ZM1233.97 626.904C1236.95 627.544 1240.19 629.096 1241.93 630.724C1247.13 635.585 1247.33 638.384 1245.04 674.071C1241.92 722.605 1241.33 726.093 1235.42 730.738C1230.29 734.775 1227.56 734.944 1172.54 734.629C1112.7 734.287 1114.48 734.513 1110.07 726.671L1107.78 722.589L1107.96 681.094C1108.16 635.251 1108.33 633.891 1114.4 629.563C1117.45 627.387 1118.42 627.312 1150.04 626.793C1211.47 625.785 1228.86 625.808 1233.97 626.904ZM1324.8 629.137C1330.58 631.077 1333.88 636.148 1335.01 644.86C1338.13 668.927 1333.04 706.016 1324.69 720.035C1321.66 725.112 1321.21 725.436 1313.4 728.054C1303.85 731.26 1286.25 733.338 1284.33 731.488C1283.66 730.849 1282.37 727.401 1281.44 723.826C1280 718.233 1279.85 713.837 1280.38 692.326C1280.99 667.062 1283.16 641.33 1284.96 637.978C1286.98 634.194 1293.93 628.937 1297.73 628.316C1299.82 627.973 1302.21 627.523 1303.04 627.316C1305.76 626.634 1321.18 627.924 1324.8 629.137ZM1054 629.578C1060.83 633.022 1061.42 635.37 1062.28 662.823C1063.27 693.957 1062.41 722.101 1060.33 726.56C1059.5 728.339 1057.19 730.814 1055.18 732.06C1051.54 734.325 1051.51 734.326 1001.54 734.615C949.252 734.917 937.55 734.315 933.144 731.099C928.12 727.432 927.311 723.951 926.102 700.826C925.484 689.001 924.534 673.251 923.991 665.826C922.517 645.66 922.502 635.666 923.94 632.995C926.66 627.944 927.137 627.907 991.038 627.867C1045.74 627.832 1050.82 627.97 1054 629.578ZM876.538 630.685C882.187 631.289 882.64 631.536 884.292 634.911C886.465 639.354 887.598 648.18 888.966 671.326C892.104 724.396 892.077 723.552 890.789 727.405C887.762 736.463 869.429 739.251 855.61 732.755C844.739 727.645 841.01 718.183 832.471 674.055L828.742 654.784L830.923 647.055C834.255 635.244 835.966 631.869 838.95 631.217C840.373 630.906 841.988 630.501 842.538 630.317C844.282 629.736 870.288 630.016 876.538 630.685ZM866.038 753.805C856.449 755.186 851.748 758.052 848.943 764.227C845.53 771.742 846.687 780.565 853.872 801.826C863.03 828.927 876.703 858.256 883.215 864.768C889.297 870.85 892.932 872.115 902.538 871.491C909.442 871.043 925.648 867.549 926.974 866.223C927.221 865.977 923.207 847.449 918.056 825.051C912.904 802.652 907.284 778.155 905.566 770.612C903.849 763.069 902.239 756.694 901.989 756.444C900.316 754.771 873.17 752.778 866.038 753.805ZM947.674 754.993C938.914 756.254 933.405 761.685 931.669 770.769C930.805 775.289 935.394 802.969 942.372 835.326C947.588 859.518 947.431 859.095 953.137 864.225C955.921 866.728 959.85 869.235 961.869 869.796C964.14 870.427 985.075 870.817 1016.82 870.82L1068.11 870.826L1067.82 819.497L1067.54 768.168L1064.75 764.519C1063.22 762.513 1059.85 759.623 1057.25 758.098L1052.54 755.326L1028.04 755.078C1014.56 754.942 992.01 754.717 977.921 754.578C963.832 754.439 950.221 754.626 947.674 754.993ZM1113.25 754.934C1111.44 755.467 1108.26 757.605 1106.18 759.684C1099.74 766.123 1099.54 767.838 1099.54 815.895V858.465L1102.22 862.524C1103.91 865.078 1106.69 867.463 1109.72 868.955L1114.54 871.326H1159.54H1204.54L1210.49 868.326C1213.77 866.676 1217.23 864.201 1218.19 862.826C1221.28 858.407 1236.66 776.644 1235.73 769.604C1235.02 764.237 1231.46 759.097 1226.69 756.545C1222.57 754.34 1222.2 754.325 1169.54 754.145C1137.68 754.037 1115.23 754.351 1113.25 754.934ZM1301.52 761.781C1311.11 763.785 1315.04 766.501 1315.04 771.132C1315.04 774.566 1300.56 816.759 1294.4 831.26C1284.13 855.472 1280.18 860.951 1272 862.333C1267.3 863.126 1251.04 862.042 1251.04 860.935C1251.04 858.758 1263.51 798.822 1265.62 790.826C1271.51 768.578 1274.09 762.594 1278.54 760.771C1281.95 759.374 1292.14 759.821 1301.52 761.781ZM893.133 763.67C895.445 764.551 895.958 765.729 897.846 774.492C899.012 779.901 901.98 793.101 904.441 803.826C915.613 852.495 917.257 859.941 916.906 860.291C916.7 860.497 912.76 861.429 908.15 862.363C895.021 865.024 890.724 863.018 883.992 851.09C876.347 837.544 861.407 800.392 857.563 785.366C856.724 782.088 856.038 776.85 856.038 773.727C856.038 767.098 857.745 764.456 863.038 762.895C867.18 761.673 889.39 762.245 893.133 763.67ZM1220.81 763.379C1224.77 764.244 1227.04 767.418 1227.04 772.084C1227.04 779.013 1213.17 855.149 1211.38 858.083C1211.12 858.5 1209.48 859.625 1207.72 860.583C1204.86 862.151 1200.15 862.356 1160.79 862.625C1122.95 862.883 1116.61 862.715 1113.78 861.375C1107.37 858.331 1107.51 859.4 1107.83 815.826C1108 793.444 1108.57 774.303 1109.16 771.659C1110.34 766.351 1112.59 763.871 1117.04 762.958C1120.58 762.233 1217.37 762.626 1220.81 763.379ZM1053.58 765.854C1055.5 767.037 1057.59 768.977 1058.23 770.165C1059.06 771.688 1059.54 785.689 1059.85 817.576L1060.3 862.826L1020.92 862.777C999.258 862.751 977.076 862.369 971.622 861.93C961.999 861.155 961.612 861.029 958.52 857.655C955.042 853.86 954.494 851.951 948.521 822.826C943.898 800.281 940.038 777.86 940.038 773.552C940.038 769.461 943.789 764.258 947.322 763.448C948.541 763.169 972.165 763.112 999.821 763.322C1049.2 763.696 1050.17 763.742 1053.58 765.854ZM1110.5 883.706C1105.95 885.768 1101.41 890.639 1100.29 894.653C1099.87 896.123 1099.54 911.726 1099.54 929.326C1099.54 965.13 1099.39 964.3 1106.86 971.043C1109.47 973.406 1112.45 974.956 1115.67 975.634C1134.28 979.547 1159.41 979.745 1168.84 976.053C1185.4 969.573 1193.36 956.467 1204.49 917.369C1209.96 898.143 1206.45 887.138 1193.61 883.3C1189.64 882.115 1181.42 881.83 1151.61 881.848C1117.81 881.868 1114.18 882.032 1110.5 883.706ZM1241.88 882.96C1235.13 884.846 1230.4 890.088 1224.54 902.204C1213.3 925.409 1194.15 969.197 1194.78 970.239C1195.14 970.837 1196.9 973.378 1198.69 975.886L1201.95 980.445L1212 977.196C1217.53 975.409 1223.84 972.941 1226.03 971.712C1235.09 966.62 1264.98 918.971 1267.03 906.346C1267.99 900.5 1267.06 892.612 1264.97 888.705C1262.56 884.199 1249.27 880.894 1241.88 882.96ZM907.538 887.314C902.038 889.223 897.375 890.794 897.177 890.805C896.464 890.846 898.185 898.47 900.679 906.326C910.819 938.258 935.606 967.979 957.821 974.841C964.484 976.899 968.635 977.257 973.818 976.22L976.847 975.614L975.336 971.97C974.505 969.966 969.999 959.551 965.323 948.826C942.764 897.085 939.376 890.487 933.22 886.304C927.789 882.613 920.228 882.91 907.538 887.314ZM964.788 884.402C963.498 885.704 963.98 907.876 965.515 917.826C968.809 939.187 976.799 960.272 984.952 969.117C987.225 971.582 991.436 974.66 994.311 975.957C999.28 978.198 1000.78 978.331 1024.77 978.646C1053.45 979.023 1059.29 978.296 1064.53 973.696C1070.28 968.648 1070.88 964.964 1071.23 932.242L1071.54 903.157L1068.6 898.923C1064.48 892.97 1058.45 886.953 1055.25 885.602C1052.13 884.284 966.036 883.141 964.788 884.402ZM1187.24 890.782C1201.18 893.026 1201.81 898.4 1191.81 929.826C1184.24 953.637 1176.25 964.843 1164.17 968.581C1157.07 970.78 1138.88 970.735 1124.54 968.484C1115.38 967.046 1114.28 966.632 1111.43 963.544L1108.33 960.174L1107.72 943.25C1107.38 933.942 1107.25 919.934 1107.43 912.121C1107.78 896.522 1108.67 893.724 1113.98 891.496C1117.56 889.991 1178.64 889.396 1187.24 890.782ZM1254.79 891.889C1258.18 893.073 1259 895.025 1259.02 901.991C1259.03 905.535 1258.05 908.538 1254.92 914.491C1244.37 934.593 1226.23 962.031 1221.87 964.479C1217.71 966.813 1205.84 970.03 1204.89 969.08C1204.35 968.543 1208.4 958.286 1214.89 943.752C1234.97 898.772 1237.85 893.43 1243.04 891.532C1245.6 890.595 1251.6 890.777 1254.79 891.889ZM930.075 895.027C931.683 896.788 934.561 901.401 936.471 905.277C942.239 916.987 964.073 967.124 963.607 967.591C962.054 969.143 950.19 962.621 941.75 955.574C927.979 944.076 910.516 915.553 907.542 899.699L906.88 896.171L913.709 894.064C923.643 890.999 926.552 891.17 930.075 895.027ZM1053.2 894.691C1054.67 895.59 1057.48 898.351 1059.44 900.826L1063.02 905.326L1063.03 930.527C1063.03 944.568 1062.57 957.92 1061.98 960.678C1060.1 969.447 1060.69 969.282 1029.74 969.637C999.103 969.989 996.656 969.572 990.911 963.028C981.573 952.393 972.139 919.906 972.058 898.105L972.038 892.884L985.288 892.541C992.575 892.353 1010.24 892.391 1024.54 892.627C1046.33 892.987 1050.97 893.321 1053.2 894.691ZM475.837 989.875C467.384 991.05 457.492 994.747 450.758 999.249C438.114 1007.7 433.868 1018.69 433.731 1043.33C433.647 1058.6 434.973 1065.82 439.512 1074.77C444.276 1084.17 448.557 1087.97 474.538 1105.84C500.221 1123.5 500.943 1124.43 501.795 1140.93C502.361 1151.89 501.209 1156.76 497.331 1159.81C493.382 1162.92 486.262 1161.89 484.377 1157.94C483.953 1157.05 483.366 1148.23 483.072 1138.33L482.538 1120.33L458.646 1120.06L434.753 1119.79L435.3 1138.06C435.75 1153.07 436.24 1157.57 438.055 1163.31C440.835 1172.1 444.72 1177.78 451.342 1182.72C457.666 1187.43 460.631 1188.96 469.038 1191.84C478.237 1194.99 501.513 1195.81 512.482 1193.37C529.191 1189.65 543.839 1179.06 547.428 1168.09C553.308 1150.12 551.556 1116.59 543.957 1101.66C539.499 1092.9 527.811 1083.12 503.538 1067.84C483.513 1055.24 481.698 1052.84 481.594 1038.83C481.506 1027.07 484.085 1022.83 491.317 1022.83C497.458 1022.83 498.487 1025.15 498.889 1039.95L499.24 1052.86L522.889 1052.59L546.538 1052.33L546.187 1039.83C545.816 1026.64 544.061 1015.7 541.531 1010.81C537.438 1002.9 524.146 994.446 510.992 991.395C502.667 989.464 484.458 988.677 475.837 989.875ZM612.243 989.975C588.947 993.313 571.932 1008.82 567.839 1030.45C565.921 1040.59 565.977 1146.87 567.906 1155.33C570.946 1168.66 580.61 1181.65 592.013 1187.73C610.205 1197.43 640.871 1197.43 659.063 1187.73C666.165 1183.95 674.84 1175.12 678.434 1168.03C684.394 1156.27 684.519 1154.71 684.498 1092.33C684.477 1029.27 684.354 1027.83 677.947 1015.81C667.133 995.518 642.138 985.691 612.243 989.975ZM1353.11 990.35C1337.34 993.206 1322.02 1004.21 1316.07 1016.97C1311.36 1027.07 1310.86 1035.4 1311.22 1098.83C1311.54 1155.05 1311.55 1155.36 1313.87 1161.83C1319.49 1177.54 1330.59 1188.18 1346.34 1192.98C1355.71 1195.83 1370.42 1195.31 1377.01 1191.88C1383.53 1188.5 1386.68 1185.94 1389.65 1181.66C1391.1 1179.57 1392.66 1178.09 1393.11 1178.37C1393.56 1178.65 1394.73 1181.57 1395.71 1184.85L1397.48 1190.83H1413.76H1430.04V1137.83V1084.83H1400.04H1370.04V1099.83V1114.83H1375.04H1380.04V1131.78C1380.04 1151.42 1379 1157.97 1375.51 1160.25C1371.9 1162.62 1367.76 1162.22 1364.96 1159.25L1362.54 1156.66V1092.45C1362.54 1032.66 1362.66 1028.05 1364.31 1025.53C1365.72 1023.38 1366.85 1022.83 1369.81 1022.84C1377.29 1022.87 1377.99 1024.79 1378.74 1047.34L1379.35 1065.83H1404.69H1430.04L1430.03 1054.58C1430.02 1039.35 1427.75 1024.94 1424.13 1017.21C1414.26 996.116 1384.16 984.732 1353.11 990.35ZM1929.54 990.23C1905.68 994.882 1889.35 1009.97 1886.02 1030.42C1884.38 1040.48 1883.82 1083.85 1884.88 1118.33C1885.97 1154.08 1887.14 1162.2 1892.5 1171.35C1898.86 1182.21 1911.45 1190.27 1926.89 1193.37C1938.86 1195.78 1960.01 1195.04 1969.04 1191.91C1977.71 1188.89 1985.56 1184.01 1991.85 1177.73C2001.79 1167.78 2004.86 1157.17 2005.76 1129.58L2006.34 1111.83H1980.69H1955.04L1955.03 1129.08C1955.02 1156.71 1953.47 1161.83 1945.1 1161.83C1942.4 1161.83 1940.72 1161.12 1938.96 1159.24L1936.54 1156.66V1093.99C1936.54 1059.53 1936.88 1030.12 1937.29 1028.65C1938.46 1024.46 1940.74 1022.82 1945.36 1022.84C1953.76 1022.87 1954.09 1023.95 1954.78 1053.92L1955.35 1078.83H1980.69H2006.04L2006.03 1061.08C2006.03 1041.42 2004.36 1027.45 2000.93 1018.25C1996.58 1006.57 1982.23 995.47 1966.18 991.349C1957.42 989.098 1938.33 988.515 1929.54 990.23ZM2067.54 990.233C2049.06 993.844 2036.66 1002.67 2029.46 1017.33C2023.73 1029.01 2023.57 1030.93 2023.55 1090.83C2023.54 1151.53 2023.83 1155.14 2029.74 1166.95C2038.98 1185.43 2056.97 1194.84 2082.95 1194.81C2103.24 1194.78 2115.85 1190.28 2126.88 1179.1C2134.01 1171.89 2138.17 1164.59 2140.28 1155.65C2142.17 1147.63 2142.07 1035.46 2140.17 1027.83C2136.87 1014.61 2127.23 1001.99 2116.15 996.386C2103.29 989.883 2082.68 987.273 2067.54 990.233ZM117.558 994.076C117.328 994.764 116.693 999.151 116.147 1003.83C115.6 1008.5 113.573 1024.03 111.641 1038.33C109.709 1052.63 105.849 1081.65 103.063 1102.83C95.202 1162.57 92.074 1186.13 91.679 1188.58L91.315 1190.83H118.041H144.767L146.066 1173.33L147.365 1155.83H156.64H165.915L166.444 1160.08C166.735 1162.41 167.233 1168.38 167.55 1173.33C167.867 1178.28 168.382 1184.24 168.695 1186.58L169.265 1190.83H195.152C215.748 1190.83 221.038 1190.56 221.038 1189.52C221.038 1188.81 219.677 1179.24 218.015 1168.27C216.352 1157.3 214.542 1145.18 213.994 1141.33C211.481 1123.68 197.007 1026.98 193.825 1006.58L191.681 992.826H154.828C126.235 992.826 117.882 993.106 117.558 994.076ZM230.705 993.493C230.338 993.859 230.038 1038.41 230.038 1092.49V1190.83H256.038H282.038L282.036 1113.58C282.034 1071.09 281.738 1026.54 281.376 1014.58L280.719 992.826H256.045C242.475 992.826 231.071 993.126 230.705 993.493ZM302.703 999.433C302.345 1003.22 302.049 1047.84 302.045 1098.58L302.038 1190.83H328.038H354.038V1146.33V1101.83L357.288 1101.83C362.173 1101.83 367.278 1104.82 368.376 1108.33C368.893 1109.98 369.522 1129.21 369.773 1151.08L370.23 1190.83H394.134H418.038L417.98 1161.08C417.949 1144.71 417.56 1126.3 417.117 1120.15C416.417 1110.42 415.924 1108.28 413.32 1103.67C409.545 1096.99 404.973 1093.28 396.898 1090.34C390.809 1088.12 390.666 1087.99 393.538 1087.34C412.503 1083.04 416.04 1077.62 416.809 1051.66C417.51 1027.96 414.78 1016.2 406.419 1006.9C400.075 999.849 392.124 996.203 380.038 994.809C374.813 994.207 355.422 993.45 336.946 993.127L303.354 992.541L302.703 999.433ZM704.038 1091.83V1190.83H730.038H756.038V1149.33V1107.83H771.538H787.038V1088.83V1069.83H771.644H756.251L755.538 1053.58C755.146 1044.64 754.986 1036.2 755.182 1034.83L755.538 1032.33L773.288 1032.05L791.038 1031.78V1012.3V992.826H747.538H704.038V1091.83ZM795.583 993.753C795.268 994.262 795.312 1003.03 795.681 1013.23L796.351 1031.77L810.944 1032.05L825.538 1032.33L825.794 1111.58L826.05 1190.83H851.538H877.026L877.282 1111.58L877.538 1032.33L892.788 1032.05L908.038 1031.77V1012.3V992.826H852.097C818.83 992.826 795.924 993.202 795.583 993.753ZM977.038 1091.9V1190.98L1023.29 1190.54C1055.04 1190.24 1071.03 1189.71 1074.3 1188.88C1086.53 1185.75 1093.97 1176.02 1096.01 1160.5C1097.34 1150.35 1097.32 1122.15 1095.97 1113.83C1093.46 1098.39 1085.9 1089.88 1071.02 1085.8L1066.54 1084.57L1071.55 1082.84C1083.33 1078.78 1088.87 1074.3 1091.11 1067.04C1091.74 1065 1092.48 1057.7 1092.76 1050.82C1093.62 1029.35 1089.65 1015.19 1080.17 1005.96C1068.91 994.984 1057.22 992.896 1006.79 992.852L977.038 992.826V1091.9ZM1116.04 1091.83V1190.83H1160.54H1205.04V1171.33V1151.83H1186.04H1167.04V1129.83V1107.83H1183.04H1199.04V1089.33V1070.83H1183.04H1167.04V1051.83V1032.83H1184.04H1201.04V1012.83V992.826H1158.54H1116.04V1091.83ZM1220.04 1091.83V1190.83H1261.54H1303.04V1171.33V1151.83H1287.04H1271.04V1072.33V992.826H1245.54H1220.04V1091.83ZM1450.13 1091.83L1450.16 1190.83H1476.1H1502.04V1091.83V992.826H1476.06H1450.09L1450.13 1091.83ZM1522.27 1074.08C1522.59 1149.43 1522.75 1155.72 1524.44 1160.83C1529.46 1176 1539.89 1185.62 1558.06 1191.85C1567.05 1194.93 1590.33 1195.78 1600.47 1193.4C1619.78 1188.87 1634.56 1174.67 1638.04 1157.33C1638.63 1154.41 1639.32 1119.04 1639.7 1072.58L1640.35 992.826H1614.19H1588.04V1073.76C1588.04 1124.19 1587.67 1155.67 1587.06 1157.27C1585.12 1162.37 1577.46 1163.18 1574.82 1158.56C1573.81 1156.81 1573.48 1138.7 1573.25 1074.58L1572.96 992.826H1547.45H1521.93L1522.27 1074.08ZM1659.51 993.871C1659.16 994.445 1659.19 1038.99 1659.6 1092.87L1660.33 1190.83H1682.19H1704.04L1704.17 1143.58C1704.24 1117.59 1704.58 1089.35 1704.92 1080.83L1705.54 1065.33L1707.83 1081.33C1709.09 1090.13 1713.14 1118.25 1716.83 1143.83L1723.54 1190.33L1739.31 1190.6C1751.42 1190.81 1755.17 1190.58 1755.46 1189.6C1755.67 1188.9 1757.03 1178.88 1758.5 1167.33C1760.78 1149.26 1767.29 1100.81 1771.39 1071.33C1772.58 1062.77 1772.67 1064.2 1773.34 1100.24C1773.72 1121.09 1774.04 1150 1774.04 1164.49V1190.83L1796.29 1190.82L1818.54 1190.82L1818.92 1091.82L1819.3 992.826H1785.35H1751.4L1749.62 1007.08C1748.65 1014.91 1746.8 1029.43 1745.51 1039.33C1744.22 1049.23 1742.41 1063.3 1741.47 1070.61C1740.54 1077.91 1739.63 1083.75 1739.45 1083.58C1739.28 1083.4 1736.86 1067.08 1734.07 1047.29C1729.36 1013.82 1727.67 1002.46 1726.39 995.576L1725.88 992.826H1693.02C1671.25 992.826 1659.94 993.179 1659.51 993.871ZM2162.04 1091.83V1190.83H2183.88H2205.72L2206.38 1166.66C2206.74 1153.37 2207.09 1125.14 2207.16 1103.91C2207.31 1059.01 2206.12 1055.53 2217.54 1134.33C2221.69 1162.93 2225.31 1187.35 2225.58 1188.6C2226.09 1190.86 2226.17 1190.87 2241.8 1190.6L2257.51 1190.33L2262.68 1151.83C2265.53 1130.65 2269.07 1104.1 2270.56 1092.83C2272.04 1081.55 2273.56 1070.3 2273.95 1067.83C2274.74 1062.72 2276.04 1122.15 2276.04 1163.49V1190.83H2298.54H2321.04V1091.83V992.826H2287.51C2261.57 992.826 2253.88 993.109 2253.56 994.076C2253.32 994.764 2250.62 1015.11 2247.54 1039.29C2244.47 1063.46 2241.75 1083.45 2241.49 1083.7C2241.24 1083.95 2241.04 1083.67 2241.04 1083.08C2241.04 1081.41 2229.13 997.622 2228.53 995.076L2228 992.826H2195.02H2162.04V1091.83ZM632.038 1026.39C633.326 1028.91 633.528 1038.09 633.467 1091.33C633.423 1129.8 633.017 1154.46 632.396 1156.33C630.35 1162.46 622.827 1163.48 619.301 1158.1C617.664 1155.61 617.538 1150.9 617.538 1092.27C617.538 1023.85 617.459 1024.86 622.939 1023.02C626.761 1021.73 630.336 1023.06 632.038 1026.39ZM2088.77 1025.53C2090.42 1028.05 2090.54 1032.66 2090.54 1092.45V1156.66L2088.11 1159.24C2085.06 1162.5 2080.15 1162.72 2077.44 1159.72C2075.61 1157.7 2075.54 1155.14 2075.54 1092.93C2075.54 1032.68 2075.66 1028.05 2077.31 1025.53C2078.74 1023.35 2079.84 1022.83 2083.04 1022.83C2086.23 1022.83 2087.33 1023.35 2088.77 1025.53ZM362.185 1027.85C368.586 1029.63 369.538 1032.28 369.538 1048.33C369.538 1067.55 367.858 1070.83 357.991 1070.83H354.038V1048.83V1026.83L356.288 1026.83C357.526 1026.83 360.179 1027.29 362.185 1027.85ZM1042.17 1030.66C1044.37 1033.11 1044.92 1034.92 1045.47 1041.46C1046.33 1051.66 1044.8 1066.49 1042.67 1068.62C1041.18 1070.11 1030.44 1072.05 1028.79 1071.13C1028.38 1070.9 1028.04 1060.77 1028.04 1048.63V1026.55L1033.79 1027.13C1038.48 1027.61 1040.02 1028.26 1042.17 1030.66ZM159.558 1067.94C161.822 1093.08 163.273 1107.32 164.565 1117.08L165.062 1120.83H156.05H147.038L147.043 1118.08C147.052 1112.18 156.096 1039.55 156.74 1040.19C156.933 1040.39 158.201 1052.87 159.558 1067.94ZM897.038 1110.33V1126.83H929.538H962.038V1110.33V1093.83H929.538H897.038V1110.33ZM1039.49 1103.24C1045.16 1105.61 1045.51 1107.16 1045.36 1128.83C1045.28 1140.16 1044.77 1149.5 1044.14 1151.12C1042.84 1154.46 1037.83 1156.83 1032.07 1156.83H1028.04V1129.33V1101.83H1032.07C1034.29 1101.83 1037.63 1102.46 1039.49 1103.24ZM1834.04 1170.83V1190.83H1852.54H1871.04V1170.83V1150.83H1852.54H1834.04V1170.83Z" fill="#62808E"/>
</svg>
