<svg width="2527" height="3639" viewBox="0 0 2527 3639" fill="none" xmlns="http://www.w3.org/2000/svg">
<path fill-rule="evenodd" clip-rule="evenodd" d="M44.8062 5.79994C26.0337 13.3751 4.8549 45.3535 4.87663 66.086C4.91465 101.133 38.125 136.168 71.3028 136.168C80.5479 136.168 113.237 165.551 192.238 244.892L300.5 353.615L232.091 422.731C194.465 460.742 161.189 496.603 158.142 502.419C152.064 514.023 158.397 537.536 169.511 544.595C173.058 546.854 184.258 548.733 194.4 548.782C210.527 548.852 219.913 541.907 269.202 493.416L325.568 437.968L382.483 494.675L439.403 551.383V1273.74V1996.1L309.294 2126.08C186.355 2248.9 177.925 2258.63 156.306 2302.52C143.726 2328.07 117.805 2380.38 98.7065 2418.75L63.9807 2488.54L177.007 2430.65L290.027 2372.77L401.429 2261.77C462.701 2200.72 514.45 2150.77 516.433 2150.77C519.545 2150.77 622.723 2209.38 723.218 2268.24C740.394 2278.29 769.117 2295.08 787.042 2305.53C804.967 2315.99 833.691 2332.75 850.867 2342.79C978.314 2417.25 1104.23 2490.45 1186.28 2537.77C1207.2 2549.82 1232.97 2565.13 1243.56 2571.78L1262.81 2583.86L1327.75 2545.62C1363.47 2524.59 1408.58 2498.41 1428 2487.44C1447.42 2476.48 1491.42 2450.88 1525.78 2430.55C1560.13 2410.23 1624.91 2372.35 1669.72 2346.38C1779.18 2282.93 1880.38 2224.17 1949.43 2183.96C1980.79 2165.71 2008.9 2150.7 2011.9 2150.61C2014.9 2150.53 2066.24 2200.41 2126 2261.45L2234.63 2372.44L2342.83 2427.21C2402.34 2457.34 2452.12 2480.9 2453.45 2479.57C2454.78 2478.24 2431.29 2427.54 2401.24 2366.91L2346.62 2256.66L2215.94 2124.26L2085.26 1991.85V1272.18V552.502L2140.77 496.326C2171.3 465.428 2198.02 440.786 2200.13 441.563C2202.25 442.339 2228.55 466.802 2258.58 495.919C2288.61 525.041 2317.51 549.146 2322.8 549.488C2353.36 551.475 2364.74 544.497 2370.73 520.094C2374.16 506.111 2368.51 498.9 2299.94 429.725L2225.43 354.549L2332.77 245.359C2427.56 148.935 2442.12 136.168 2457.33 136.168C2469.08 136.168 2481.29 130.336 2495.81 117.782C2515.91 100.416 2517.09 97.6898 2517.09 68.497C2517.09 39.7441 2515.68 36.2959 2496.8 19.0008C2474.58 -1.35706 2447.71 -5.54918 2422.19 7.3584C2404.64 16.2368 2384.06 47.1563 2383.81 65.0217C2383.66 75.9092 2359.51 103.934 2278.64 187.098C2220.9 246.472 2171.06 294.122 2167.89 292.987C2164.71 291.857 2134.26 263.778 2100.2 230.594C2066.16 197.415 2032.1 166.203 2024.52 161.239C2001.65 146.257 1971.19 164.155 1971.19 192.583C1971.19 206.565 1980.58 218.723 2028.71 266.976L2086.22 324.656L2030.42 382.46L1974.63 440.259H1264.42H554.2L500.876 385.588C471.549 355.516 446.84 327.822 445.971 324.048C445.102 320.274 467.573 295.626 495.906 269.279C554.57 214.721 564.858 197.643 551.403 177.117C539.127 158.389 524.244 151.432 509.013 157.313C502.098 159.98 466.34 191.898 429.55 228.237C392.766 264.576 359.767 293.546 356.22 292.618C352.678 291.689 302.727 243.1 245.215 184.638C157.588 95.5666 140.646 75.7735 140.613 62.4586C140.575 43.5833 124.546 17.4749 107.028 7.76025C92.7206 -0.178707 62.0252 -1.14528 44.8062 5.79994ZM2028.22 937.123V1376.97L1646.63 1378.36L1265.05 1379.76V1933.6C1265.05 2238.21 1263.2 2487.44 1260.94 2487.44C1257.45 2487.44 1103.86 2399.86 996.169 2336.46C978.244 2325.91 948.912 2309.06 930.987 2299.01C913.061 2288.96 894.729 2278.48 890.248 2275.73C882.86 2271.18 768.259 2204.6 686.553 2157.38C668.628 2147.01 642.87 2132.12 629.318 2124.29C615.765 2116.46 580.985 2096.61 552.033 2080.18L499.393 2050.31L499.273 1712.28L499.154 1374.25H879.384H1259.61V938.03C1259.61 698.102 1261.26 500.154 1263.27 498.145C1265.28 496.136 1438.22 495.115 1647.57 495.881L2028.22 497.276V937.123ZM912.252 802.823L937.684 882.821L1025.32 884.314C1073.52 885.134 1112.95 887.816 1112.95 890.276C1112.95 892.742 1082.47 916.504 1045.21 943.09C1007.95 969.671 977.396 994.183 977.315 997.55C977.228 1000.92 989.037 1039.41 1003.56 1083.08C1021.04 1135.66 1027.68 1162.48 1023.22 1162.48C1019.52 1162.48 1002.84 1152.09 986.163 1139.4C929.384 1096.19 885.44 1064.73 881.845 1064.73C879.873 1064.73 847.939 1086.92 810.883 1114.04C773.832 1141.17 741.366 1162.55 738.742 1161.56C736.119 1160.57 745.847 1124.33 760.356 1081.02C774.864 1037.72 786.684 999.841 786.619 996.855C786.553 993.868 761.969 974.32 731.985 953.413C702.001 932.507 669.736 908.782 660.285 900.691L643.098 885.976L732.952 885.758L822.8 885.536L846.152 813.586C874.919 724.932 878.879 714.881 883.306 719.312C885.239 721.24 898.265 758.822 912.252 802.823ZM1565.95 764.714C1567.54 769.943 1571.38 785.821 1574.48 799.999C1577.59 814.177 1586.26 846.932 1593.76 872.786C1601.26 898.639 1606.1 921.082 1604.53 922.657C1602.95 924.226 1570.53 917.368 1532.49 907.414C1494.44 897.461 1456.58 888.186 1448.37 886.806L1433.43 884.303V965.865V1047.43L1445.66 1044.71C1452.38 1043.22 1472.54 1037.42 1490.47 1031.84C1532.72 1018.67 1601.91 1003.28 1604.99 1006.35C1606.31 1007.67 1601.49 1029.29 1594.28 1054.39C1581.38 1099.32 1563.8 1166.61 1563.8 1171.06C1563.8 1172.31 1600.46 1173.34 1645.28 1173.34C1690.09 1173.34 1726.75 1171.38 1726.75 1168.98C1726.75 1166.58 1718.56 1135.43 1708.55 1099.75C1681.56 1003.54 1681.82 1005 1691.44 1005C1699.69 1005 1758.43 1019.87 1810.58 1035.16C1859.74 1049.57 1857.12 1053.57 1857.12 964.274C1857.12 901.756 1855.61 885.536 1849.78 885.536C1845.74 885.536 1813.35 893.16 1777.81 902.478C1742.26 911.796 1706.33 920.642 1697.97 922.135C1680.26 925.307 1679.44 932.55 1708.55 828.801C1718.56 793.119 1726.75 761.966 1726.75 759.566C1726.75 757.171 1689.93 755.211 1644.91 755.211C1569.49 755.211 1563.29 755.955 1565.95 764.714ZM1689.08 1660.7L1701.1 1700.07H1789.98C1838.86 1700.07 1878.85 1702.19 1878.85 1704.79C1878.85 1709.43 1803.42 1766.99 1763.48 1792.82C1751.27 1800.72 1743.16 1810.28 1743.11 1816.81C1743.08 1822.78 1754.3 1861.42 1768.06 1902.68C1781.81 1943.93 1791.7 1979.05 1790.02 1980.73C1788.36 1982.4 1769.16 1970.45 1747.37 1954.18C1725.58 1937.91 1693.77 1914.38 1676.69 1901.9L1645.65 1879.2L1574.27 1931.14C1535 1959.71 1501.78 1981.99 1500.44 1980.64C1499.1 1979.3 1509.31 1943.64 1523.11 1901.39C1536.93 1859.15 1547.44 1820.49 1546.47 1815.48C1545.51 1810.47 1515.54 1785.3 1479.87 1759.54C1444.2 1733.79 1414.07 1709.87 1412.91 1706.39C1411.36 1701.75 1434.54 1700.07 1499.99 1700.07H1589.18L1609.94 1633.55C1621.35 1596.96 1634.17 1558.69 1638.43 1548.5L1646.16 1529.98L1661.6 1575.65C1670.1 1600.77 1682.47 1639.04 1689.08 1660.7ZM878.026 1573.97C833.479 1574.87 803.338 1577.64 803.338 1580.84C803.338 1583.79 810.932 1616.1 820.215 1652.64C845.294 1751.36 844.484 1745.87 833.327 1741.59C828.026 1739.55 795.277 1730.63 760.551 1721.75C725.831 1712.87 691.92 1704.07 685.195 1702.21L672.973 1698.8V1781.25C672.973 1857.27 673.717 1863.48 682.479 1860.78C723.642 1848.14 838.02 1819.81 839.981 1821.77C842.078 1823.86 820.03 1914.3 803.789 1970.22L798.667 1987.87H881.91H965.153L955.055 1955.42C941.981 1913.43 921.171 1824.81 923.773 1822.21C924.881 1821.1 958.738 1828.82 999.004 1839.34C1039.27 1849.87 1075.88 1858.88 1080.36 1859.37C1087.22 1860.12 1088.75 1847.46 1090.02 1779.46L1091.53 1698.65L1076.44 1702.11C1068.14 1704.01 1030.8 1713.89 993.453 1724.06C956.109 1734.23 924.669 1741.68 923.583 1740.61C921.046 1738.1 930.981 1694.32 948.569 1630.56C956.489 1601.84 960.389 1578.42 957.608 1576.26C954.914 1574.17 919.107 1573.13 878.026 1573.97ZM395.291 2731.81C405.389 2734.2 415.737 2739.45 418.295 2743.48C420.848 2747.51 422.978 2825.4 423.026 2916.58C423.097 3057.92 421.864 3084.13 414.65 3094.42C410.001 3101.06 402.059 3106.89 396.997 3107.38C378.811 3109.15 497.725 3116.09 556.976 3116.71C657.623 3117.77 720.54 3090.66 760.361 3029.07C785.44 2990.28 794.43 2953.18 791.692 2899.77C787.205 2812.09 726.254 2746.99 634.766 2732.15C593.75 2725.5 367.181 2725.18 395.291 2731.81ZM876.25 2734.28C888.107 2737.85 899.384 2745.35 901.671 2751.18C907.076 2764.97 907.179 3017.01 901.801 3065.44C899.498 3086.17 894.734 3104.09 891.215 3105.26C887.695 3106.43 884.816 3109.68 884.816 3112.48C884.816 3115.53 928.901 3116.98 994.664 3116.1L1104.51 3114.63L1108.81 3090.2C1111.17 3076.76 1112.34 3060.87 1111.41 3054.9C1110.08 3046.39 1107.8 3048.37 1100.88 3064.08C1089.49 3089.92 1060.83 3099.03 1012.6 3092.12C968.678 3085.84 965.897 3079.67 967.646 2992.45L969.01 2924.58L1011.04 2922.99C1056.48 2921.28 1074.93 2927.19 1074.93 2943.45C1074.93 2949.14 1077.38 2955.31 1080.36 2957.16C1083.63 2959.18 1085.79 2952.01 1085.79 2939.15C1085.79 2927.4 1087.28 2910.35 1089.1 2901.25L1092.41 2884.72L1071.45 2892.19C1042.85 2902.38 980.46 2902.52 972.062 2892.4C965.75 2884.79 964.561 2797.6 970.362 2767.28C972.893 2754.05 974.517 2753.52 1012.74 2753.52C1061.23 2753.52 1078.96 2759.6 1083.51 2777.77C1088.2 2796.41 1096.66 2795.22 1096.66 2775.92C1096.66 2767.34 1098.06 2753.29 1099.77 2744.7L1102.89 2729.09L978.912 2728.49C875.897 2727.98 858.542 2728.96 876.25 2734.28ZM1196.58 2730.88C1198.74 2734.38 1204.95 2737.23 1210.39 2737.23C1234.17 2737.23 1235.26 2745.93 1233.53 2920.93C1232.56 3019.04 1229.65 3090.73 1226.39 3096.82C1223.36 3102.47 1215.54 3109.25 1209.02 3111.88C1201.29 3114.99 1229.4 3117.23 1289.49 3118.3C1401.56 3120.29 1438.32 3119.7 1442.17 3115.85C1446.93 3111.09 1453.69 3052.19 1449.48 3052.19C1447.36 3052.19 1442.56 3059.55 1438.84 3068.55C1430.47 3088.73 1416.65 3093 1360.76 3092.64C1294.71 3092.21 1297.64 3100.62 1297.64 2911.43C1297.64 2744.84 1298.35 2740.24 1324.8 2735.64C1332.27 2734.34 1309.85 2732.95 1275 2732.54C1240.14 2732.13 1207.35 2730.17 1202.13 2728.17C1195.66 2725.68 1193.9 2726.55 1196.58 2730.88ZM1457.97 2731.8C1457.11 2733.3 1454.72 2747.96 1452.66 2764.38L1448.93 2794.25L1462.39 2777.96C1475.35 2762.26 1477.89 2761.56 1532.04 2758.48C1562.95 2756.73 1590.41 2756.47 1593.05 2757.9C1595.78 2759.38 1596.67 2830.3 1595.12 2921.28C1592.3 3086.09 1589.35 3108.53 1569.83 3113.75C1565.02 3115.03 1591.64 3116.04 1628.98 3115.98C1666.32 3115.92 1691.4 3114.81 1684.71 3113.52C1657.31 3108.24 1656.14 3100.42 1656.14 2922.86V2757.94L1709.9 2759.8C1767.49 2761.8 1783.75 2768.83 1787.82 2793.46C1788.89 2799.87 1791.72 2789.69 1794.13 2770.84C1796.54 2751.99 1797.48 2735.53 1796.21 2734.27C1792.91 2730.97 1459.86 2728.54 1457.97 2731.8ZM1947.75 2730.17C1945.23 2734.26 1885.27 2880.63 1861.45 2940.87C1855.54 2955.8 1846.42 2977.79 1841.17 2989.74C1835.93 3001.68 1825.96 3026.12 1819.01 3044.04C1801.84 3088.33 1788.36 3106.39 1769.67 3110.13C1738.8 3116.29 1754.67 3121.5 1802.8 3120.98C1848.85 3120.48 1859.6 3117.45 1845.74 3108.89C1835.37 3102.47 1843.98 3068.14 1875.63 2989.74C1905.5 2915.74 1920.97 2876.45 1933.36 2843.12L1939.42 2826.83L1946.96 2840.41C1951.11 2847.87 1958.52 2866.2 1963.43 2881.13C1977.76 2924.68 2008.56 3008.25 2025.84 3050.45C2034.62 3071.9 2041.8 3096.94 2041.8 3106.11V3122.78L2102.91 3122.22C2154.31 3121.76 2161.15 3120.75 2145.95 3115.89C2119.23 3107.34 2105.67 3085.47 2065.84 2986.7C2046.04 2937.6 2014.63 2859.7 1996.05 2813.58C1964.79 2736.03 1954.8 2718.77 1947.75 2730.17ZM629.855 2768.07C705.347 2802.86 738.856 2879.55 721.887 2978.71C713.68 3026.7 702.903 3046.18 672.316 3068.33C641.371 3090.74 614.309 3096.96 557.34 3094.77C484.482 3091.97 488.29 3102.08 488.29 2911.3C488.29 2825.52 490.126 2753.46 492.364 2751.17C494.602 2748.88 518.437 2748.05 545.325 2749.33C585.135 2751.21 600.827 2754.69 629.855 2768.07ZM176.942 3273.21C169.212 3293.51 153.242 3333.33 141.45 3361.71C84.1274 3499.64 73.9807 3524.47 61.205 3558.01C45.7025 3598.72 30.1402 3616.19 3.85003 3622.42C-8.09462 3625.24 7.78812 3626.68 51.0257 3626.69C86.876 3626.7 110.097 3625.02 102.628 3622.96C80.0318 3616.73 82.6771 3596.25 117.669 3506.55C135.35 3461.23 156.92 3405.25 165.6 3382.15C174.285 3359.04 183.568 3340.83 186.23 3341.67C188.892 3342.52 199.37 3366.31 209.511 3394.54C248.137 3502.07 253.922 3517.66 270.788 3559.72C280.326 3583.51 287.062 3608.56 285.758 3615.38C283.401 3627.72 283.699 3627.79 343.743 3627.3C390.924 3626.91 400.234 3625.69 386.405 3621.7C365.943 3615.8 347.469 3589.78 329.984 3542.23C323.672 3525.07 314.215 3501.26 308.968 3489.32C303.721 3477.37 285.763 3433.39 269.055 3391.57C213.694 3253.03 207.566 3239.54 199.245 3237.91C193.492 3236.79 186.724 3247.5 176.942 3273.21ZM872.078 3324.9C864.104 3373.51 850.475 3456.77 841.795 3509.91C833.11 3563.05 823.05 3610.1 819.438 3614.44C802.512 3634.83 768.172 3613.31 710.768 3546.33C686.45 3517.96 659.578 3484.73 651.05 3472.48L635.548 3450.21L656.173 3430.08C681.192 3405.65 700.763 3368.03 704.13 3337.89C706.216 3319.22 703.642 3311.11 688.443 3288.51C660.817 3247.43 643.815 3242.75 523.597 3243.18C469.822 3243.37 433.092 3245.08 441.973 3246.98C471.473 3253.3 472.706 3261.49 470.642 3437.73C468.659 3607.27 466.568 3621.46 443.287 3623.32C436.671 3623.85 461.81 3625.8 499.154 3627.65C536.498 3629.5 569.377 3629.07 572.212 3626.69C575.048 3624.31 569.638 3622.36 560.181 3622.36C548.747 3622.36 541.11 3618.84 537.367 3611.85C530.49 3599 529.822 3472.14 536.617 3467.94C539.295 3466.29 552.43 3466.43 565.803 3468.26C588.486 3471.38 591.897 3474.14 616.607 3509.41C656.102 3565.79 686.216 3601.76 706.472 3616.77C723.783 3629.6 728.514 3630.25 814.202 3631.62C896.299 3632.93 902.377 3632.39 886.592 3625.14C877.108 3620.79 867.836 3614.79 865.989 3611.79C862.806 3606.64 868.803 3557.88 887.689 3435.3C892.268 3405.59 896.836 3380.46 897.836 3379.46C898.841 3378.46 906.451 3391.77 914.745 3409.04C952.948 3488.56 1016.73 3614.87 1021.78 3621C1024.85 3624.73 1029.16 3627.79 1031.35 3627.79C1033.53 3627.79 1063.18 3571.59 1097.22 3502.9C1131.27 3434.21 1160.91 3378.01 1163.1 3378C1165.28 3378 1168.22 3383.5 1169.64 3390.22C1175.84 3419.72 1196.58 3594.42 1196.08 3612.85L1195.52 3633.22L1256.08 3632.59C1289.39 3632.24 1311.76 3630.88 1305.78 3629.57C1283.79 3624.73 1265.75 3615.73 1262.83 3608.14C1258.92 3597.96 1230 3410.55 1218.94 3323.7C1209.41 3248.9 1206.77 3236.81 1199.96 3236.81C1197.43 3236.81 1182.59 3263.08 1166.98 3295.19C1151.38 3327.3 1119.43 3393.1 1095.99 3441.43C1072.55 3489.76 1050.95 3530.8 1047.99 3532.62C1045 3534.47 1017.14 3483.31 985.349 3417.61C917.238 3276.84 898.162 3240.35 891.529 3238.14C888.808 3237.24 880.052 3276.27 872.078 3324.9ZM1498.64 3245.54C1437.63 3261.93 1391.54 3299.9 1364.93 3355.68C1349.77 3387.48 1343.7 3438.28 1350.62 3475.5C1362.74 3540.62 1395.9 3587.62 1450.67 3617.31C1484.82 3635.81 1485.48 3635.93 1555.65 3635.88C1622.05 3635.83 1627.95 3634.94 1654.58 3620.96C1751.03 3570.3 1790.02 3469.09 1756.25 3357.06C1729.97 3269.92 1606.65 3216.54 1498.64 3245.54ZM1854.99 3251.4C1879.63 3256.25 1881.64 3271.15 1880.46 3440.31C1879.82 3532.12 1877.03 3604.71 1873.8 3613.18C1869.8 3623.71 1864.05 3628.07 1853.18 3628.81C1844.89 3629.38 1868.66 3631.23 1906.01 3632.92C1943.35 3634.61 1976.23 3634.15 1979.06 3631.89C1981.9 3629.63 1978.24 3627.75 1970.92 3627.71C1943.44 3627.53 1941.45 3622.39 1939.41 3546.53L1937.5 3475.74H1967.46C1997.38 3475.74 1997.45 3475.78 2017.9 3504.25C2108.08 3629.79 2111.41 3632.48 2181.35 3636.35L2229.2 3639L2202.04 3626.04C2186.92 3618.83 2162.84 3599.98 2147.72 3583.51C2106.15 3538.23 2047.23 3464.32 2047.24 3457.44C2047.24 3454.07 2057.24 3441.61 2069.46 3429.76C2098.55 3401.55 2112.42 3373.43 2112.42 3342.65C2112.42 3297.02 2084.04 3263.83 2036.26 3253.59C2021.09 3250.33 1971.52 3248 1926.11 3248.41C1880.69 3248.82 1848.69 3250.17 1854.99 3251.4ZM2175.32 3257.91C2184.52 3263.52 2199.3 3276.9 2208.16 3287.66C2222.23 3304.72 2297.11 3426.62 2312.02 3456.74C2322.13 3477.16 2324.75 3508.34 2320.97 3563.21C2317.26 3617.12 2316.9 3618.26 2300.36 3628.34L2283.52 3638.61L2359.56 3638.07C2411.37 3637.71 2429.64 3636.13 2416.87 3633.12C2387.08 3626.11 2384 3617.5 2384.06 3541.22C2384.11 3479.88 2385.49 3470.08 2397.73 3443.77C2420.84 3394.15 2487.03 3292.54 2509.43 3272.31C2521.13 3261.75 2528.86 3253.05 2526.61 3252.99C2524.36 3252.92 2503.7 3251.98 2480.7 3250.89L2438.88 3248.9L2447.31 3261.76C2455.19 3273.79 2454.66 3276.83 2439 3308.66C2414.42 3358.63 2370.71 3433.48 2365.63 3434.3C2361.08 3435.04 2313.96 3356.16 2285.13 3299.53C2271.92 3273.58 2269.89 3265.29 2274.79 3257.45C2280.53 3248.25 2277.27 3247.67 2219.74 3247.69L2158.59 3247.71L2175.32 3257.91ZM1608.02 3275.67C1642.51 3290.5 1674.11 3328.79 1687.27 3371.68C1707.48 3437.53 1695.67 3540.64 1663.56 3578.79C1615.19 3636.25 1518.2 3630.69 1463.96 3567.34C1408.77 3502.89 1401.16 3374.79 1448.41 3305.67C1479.47 3260.24 1543.96 3248.12 1608.02 3275.67ZM600.094 3272.68C629.671 3286.72 643.163 3314.01 642.756 3358.99C642.115 3429.73 611.539 3457.76 548.72 3445.2L531.745 3441.8V3352.88V3263.96H556.726C570.463 3263.96 589.98 3267.89 600.094 3272.68ZM2009.13 3278.91C2019.64 3284.17 2033.65 3298.06 2040.63 3310.12C2051.31 3328.57 2052.88 3337.62 2051.1 3370.24C2047.86 3429.26 2028.29 3454.02 1984.86 3454.02C1974.75 3454.02 1960.19 3451.64 1952.53 3448.73L1938.6 3443.43V3360.03C1938.6 3314.16 1940.23 3275 1942.22 3273.02C1949.3 3265.93 1990.5 3269.56 2009.13 3278.91ZM1529.65 3402.17C1515.57 3415.47 1504.05 3429.13 1504.05 3432.52C1504.05 3439.16 1550.79 3486.64 1557.21 3486.54C1559.34 3486.5 1573.08 3474.36 1587.74 3459.54L1614.4 3432.6L1586.21 3405.3C1570.71 3390.29 1557.4 3378 1556.63 3378C1555.87 3378 1543.73 3388.87 1529.65 3402.17Z" fill="#62808E"/>
</svg>
