<?xml version="1.0" encoding="UTF-8"?>
<svg id="Calque_2" data-name="Calque 2" xmlns="http://www.w3.org/2000/svg" viewBox="0 0 171.57 144.08">
  <defs>
    <style>
      .cls-1 {
        fill: #e71f20;
      }

      .cls-1, .cls-2, .cls-3, .cls-4, .cls-5, .cls-6, .cls-7, .cls-8, .cls-9, .cls-10, .cls-11 {
        stroke: #231916;
      }

      .cls-1, .cls-2, .cls-3, .cls-4, .cls-5, .cls-6, .cls-7, .cls-8, .cls-9, .cls-11 {
        stroke-linecap: round;
        stroke-linejoin: round;
        stroke-width: .8px;
      }

      .cls-2 {
        fill: #6f7271;
      }

      .cls-3 {
        fill: #fed925;
      }

      .cls-4 {
        fill: #a576a6;
      }

      .cls-5 {
        fill: none;
      }

      .cls-6 {
        fill: #231916;
      }

      .cls-7 {
        fill: #c89211;
      }

      .cls-8 {
        fill: #fff200;
      }

      .cls-9 {
        fill: #fff;
      }

      .cls-10 {
        fill: #094;
        stroke-miterlimit: 10;
      }

      .cls-11 {
        fill: #fdcf85;
      }
    </style>
  </defs>
  <g id="_图层_1" data-name="图层 1">
    <g>
      <g>
        <path class="cls-6" d="M129.57,62.91c-.83-.24-2.27-.63-4.02-1.09v-9.54c0-1.25-1.02-2.27-2.27-2.27h-3.7c-1.08,0-2.01.76-2.22,1.82l-1.42,6.98s0,0,0,.01l-.1.49c-3.22-.82-6.13-1.56-7.69-1.95-.84-1.54-2.54-2.43-4.79-2.43-1.81,0-3.57.65-4.63,1.13-1.49-.51-4.54-1.49-7.84-2.17-1.34-.28-2.47-.47-3.4-.56-.11-.36-.25-.72-.44-1.08,0-.01-.01-.03-.02-.04,0,0-.01-.01-.02-.02-.09-.17-.19-.34-.3-.51,1.12-.11,2-.33,2.67-.66.16-.08.31-.17.46-.26.03-.02.06-.03.09-.05,2.2-1.29,3.49-3.42,3.31-5.59-.09-1.08-.72-3.72-4.66-4.89-2.5-.74-6.49-1.18-9.69-1.43.02-.27.02-.52.01-.78,0-.02,0-.05,0-.07h0c-.02-.4-.07-.78-.14-1.14,9.08-.31,25.62-1.48,32.96-5.74.04-.03.09-.05.13-.07.09-.05.18-.1.26-.15,2.69-1.68,5.18-2.92,7.39-3.93h0c1.05-.48,2.04-.91,2.95-1.3,2.09-.9,3.88-1.68,5.29-2.6.13-.08.24-.18.36-.26.21-.15.43-.3.62-.45.91-.76,1.58-1.63,1.98-2.74.09-.24.16-.47.21-.72.03-.12.05-.24.07-.36.02-.12.05-.24.06-.36.02-.15.03-.31.04-.46,0-.09.01-.18.02-.27,0-.17,0-.33-.01-.5,0-.08,0-.16-.01-.24-.02-.17-.04-.34-.07-.51-.01-.08-.02-.16-.04-.23-.03-.17-.08-.33-.12-.5-.02-.08-.04-.16-.07-.24-.05-.16-.11-.33-.17-.49-.03-.08-.06-.16-.09-.24-.07-.17-.15-.33-.23-.5-.02-.03-.03-.07-.05-.1-.01-.02-.03-.04-.04-.07-.06-.11-.11-.22-.17-.32-.07-.12-.17-.24-.25-.36-.12-.18-.25-.37-.38-.55-.14-.18-.28-.36-.44-.53-.16-.18-.33-.36-.5-.53-.16-.16-.32-.31-.49-.47-.21-.18-.43-.36-.66-.53-.17-.13-.33-.26-.5-.38-.28-.19-.58-.37-.88-.55-.15-.09-.3-.19-.45-.28-.3-.17-.62-.32-.95-.47-.14-.09-.28-.16-.43-.21-.02,0-.04-.02-.06-.03-.26-.11-.53-.21-.8-.31-.26-.1-.51-.2-.78-.3-.35-.12-.72-.22-1.08-.33-.15-.04-.3-.1-.45-.14-.02,0-.04,0-.06,0-.8-.21-1.62-.4-2.48-.53-1.29-.2-2.78-.31-4.43-.33-.03,0-.05,0-.08,0-.11,0-.22,0-.33,0-8.62,0-22.22,2.65-30.05,7.08-5.95,3.36-19.52,11.94-27.25,16.85-.48-1.78-1.16-3.92-2.03-5.76-1.34-2.83-3.62-5.79-6.3-7.53.69-1.2,1.33-2.25,1.8-2.92.03-.04.06-.08.09-.12.14-.2.28-.36.38-.46.7-.68,3.62-1.99,5.36-2.78,1.62-.73,2.9-1.3,3.66-1.8,1.39-.91,2.21-2.25,2.27-3.67.05-1.26-.53-2.48-1.54-3.25-.57-.44-1.28-.66-2.11-.66-2.48,0-6.02,2.05-7.05,2.68l-.26.16c-3.65,2.24-7.03,4.46-8.23,7.02-.53,1.12-1.5,3.04-2.32,4.63-1.33.19-2.8.45-4.35.86-1.26-2.08-3.06-4.73-5.47-7.47C26.18,4.96,20.49.4,17.29.4c-.44,0-.86.08-1.24.23-.82.33-2.99,1.21-1.95,8.58-.23,1.08-.62,3.65.19,5.74.2.5.42,1.2.66,1.95.65,2.05,1.46,4.6,2.76,6.39.77,1.06,2.23,2.4,4.33,4.01-.49.91-.87,1.76-1.15,2.51-.23,0-.45,0-.68.03-.26.02-.63.09-1.07.19-.02,0-.05.01-.07.02-2.81.66-8.64,2.73-11.91,5.04-5.39,3.8-7.47,6.87-6.55,9.67.48,1.45,1.66,2.35,3.08,2.35,1.52,0,3.09-.97,5.42-3.33,1.54-1.57,4.52-3.58,6.25-4.22,1.68-.63,3.46-1.21,4.85-1.61.19.93.46,1.85.84,2.76.04.11.09.21.13.32.03.07.05.13.08.2.02.05.05.1.07.14,0,0,0,0,0,0,.17.38.36.75.54,1.09-.62.17-1.24.37-1.83.64-2.4,1.1-3.82,3.4-4.45,4.64-.14.03-.29.05-.43.08,0,0,0,0-.01,0-3.62.71-7.01,2.19-7.61,5.23-.53,2.68-.2,6.15.75,7.9,1.03,1.9,2.86,3.23,5.31,3.89.07.02.14.04.21.05.18.04.35.1.54.13.4.08.9.12,1.64.12.67,0,1.58-.04,2.59-.1.03,0,.05,0,.08,0,.71-.04,1.54-.11,2.41-.18.06,0,.12-.01.19-.02.16-.01.31-.03.47-.04.14-.01.27-.02.4-.04.07,0,.13-.01.2-.02.25-.02.5-.05.75-.08.14-.01.27-.03.41-.04.08,0,.16-.02.23-.03,1.47-.16,2.74-.35,3.29-.51.17-.05.33-.1.49-.14,0,0,.02,0,.03,0,.1-.02.18-.04.25-.04.22,0,.82.13,2.3.97.18.1.34.18.51.27,0,0,0,0,0,0,.01,0,.02,0,.03.01,1.38.74,2.57,1.22,3.44,1.5,0,0,.01.01.02.02.4,1.39,1.18,3.3,2.7,4.99.33.37.67.7,1.01,1.02-2.18-.63-4.4-1.15-6.15-1.33-.53-.06-1.02-.1-1.49-.13-.01,0-.02,0-.03,0-.75-.05-1.46-.08-2.12-.08-.93,0-3.11,0-4.96.85-.03.01-.06.03-.09.04-.29.14-.57.3-.83.48-.05.03-.09.06-.14.1-.23.17-.46.37-.66.58-.04.04-.08.09-.11.13-.19.22-.38.46-.53.73-.13.24-.27.51-.4.81-.02.03-.03.07-.05.1-.12.29-.24.6-.36.93-.02.06-.04.11-.06.17-.11.33-.22.67-.32,1.03-.02.06-.03.12-.05.19-.1.37-.19.74-.27,1.13-.01.05-.02.1-.03.15-.08.4-.15.81-.21,1.23,0,0,0,.02,0,.02-.05.41-.09.81-.11,1.21,0,.05,0,.1,0,.15-.02.39-.02.76,0,1.13,0,.07,0,.13,0,.19.02.36.06.71.11,1.04,0,.03,0,.06,0,.09-.44.98-1.22,2.77-1.7,4.15-.62,1.78-.46,4.8.39,6.96-.65.86-1.34,2.02-1.52,3.26-.14.93-1.13,4.04-4.08,7.17-1.66,1.77-3.86,2.53-5.62,3.15-1.19.42-2.22.78-3,1.41-1.45,1.2-2.14,3.5-1.67,5.58.03.14.08.28.13.42,0,.04.02.08.04.12.63,1.91,2.2,3.3,4.41,3.85.86.22,1.79.33,2.75.33,3.71,0,7.14-1.63,8.15-2.26.09-.05.18-.11.3-.16.14-.03.27-.07.4-.12.4-.09,1-.15,2.03-.15h4.27c1.25,0,2.27-1.02,2.27-2.27v-1.84c.97-.92,2.18-2.58,2.35-5.29.11-1.77-.04-3.59-.21-4.96.21.06.43.09.64.09.42,0,.85-.12,1.23-.36l3.17-2.05,1.07.67c.36.23.78.34,1.2.34.27,0,.54-.05.8-.14.66-.25,1.17-.79,1.37-1.46l.5-1.66s1.3.02,1.31.02c.76,0,1.48-.38,1.9-1.02.43-.65.49-1.48.17-2.19l-1.06-2.33,1.66-2.31c.91-.1,1.84-.35,2.73-.76,1.28,2.11,3.09,4.78,5.28,7.24.09.1.18.2.27.3.2.22.41.45.62.67.31.32.62.64.93.93.38.36.77.7,1.16,1.03.11.09.22.17.32.26.31.25.62.49.94.73.11.08.21.16.32.23.4.29.81.56,1.21.82.02,0,.03.02.05.03,4.32,2.72,8.62,3.69,10.44,3.69h0c.1,0,.19,0,.28,0,.91-.06,1.7-.57,2.64-1.72,1.83-2.22,4.51-7.12,4.84-13.15,3.19-1.06,5.82-2.13,7.66-3.45.82.16,1.71.27,2.61.27.32,0,.64-.01.96-.04,2.92-.25,4.67-1.95,5.54-3.44l.32-.09s.06.08.09.13c.2.3.41.58.6.85,0,0,.14.2.25.34.04.06.08.12.13.18.05.07.09.14.14.22,0,0,.18.27.2.3,0,0,0,0,0,0,.09.14.18.27.26.41.39.7.56,1.98.74,3.34.09.64.18,1.3.29,1.97.39,2.22,1.95,3.48,3.57,4.35.04.03.09.05.14.08.61.32,1.21.59,1.77.83.33.15.66.29.97.43.52.25.66.54.96,1.96.07.35.15.69.24,1.02.28,1.03.8,1.78,1.36,2.32-.36.94-.76,2.02-.95,2.71-.48,1.73-.01,2.91.47,3.58.49.69,1.48,1.55,3.41,1.67.37.02.76.03,1.18.03.64,0,1.32-.02,2-.04.6-.02,1.19-.04,1.73-.04.28,0,.52,0,.72.02.38.33,1.09,1.23,1.58,1.85,1,1.27,2.14,2.71,3.49,3.74,1.58,1.21,4.03,1.82,7.27,1.82,1.58,0,3.07-.16,3.86-.31,1.19-.23,2.15-1.05,2.64-2.24.63-1.53.4-3.51-.57-4.93-.2-.29-.46-.62-.75-.96-.02-.02-.03-.04-.05-.06-.67-.81-1.56-1.75-2.6-2.86-.45-.48-.85-.9-1.11-1.19l-.35-.4c-1.73-1.99-3.74-4.18-5.63-5.09-.73-.35-1.07-.68-1.7-1.27-.54-.51-1.21-1.15-2.26-1.91-2.02-1.45-2.94-2.12-4.12-4.05-1.11-1.81-4.13-5.79-5.59-7.68.02-.09.04-.19.06-.28.01-.05.03-.11.04-.16.04-.22.08-.45.1-.7,0-.06,0-.11,0-.17.01-.2.02-.41.01-.62,0-.07,0-.14,0-.21-.02-.27-.05-.54-.1-.82,0-.04-.02-.09-.03-.13-.05-.24-.12-.49-.2-.74-.03-.08-.05-.16-.08-.24-.11-.3-.23-.6-.39-.9-.62-1.18-1.66-2.47-2.88-3.66.88-.04,1.69-.58,2.02-1.45l1.69-4.47c4.84,1.4,17.02,4.94,20.74,6.09,1.16.36,2.29.54,3.37.54h0c.16,0,.32-.01.49-.02.02,0,.04,0,.06,0,.05,0,.1-.01.15-.02.39-.03.76-.09,1.13-.17.02,0,.03,0,.05,0,0,0,.01,0,.02,0,1.38-.31,2.59-.94,3.52-1.88,1.22-1.23,1.88-2.88,1.86-4.65-.05-5.27-5.09-6.75-8.11-7.63Z"/>
        <g>
          <g>
            <path class="cls-7" d="M22.31,33.18s.57-5.02,5.39-9.54c4.82-4.53,11.26-5.16,15.05-5.62,3.78-.46,7.68,4.04,9.43,7.74,1.75,3.7,2.72,8.91,2.72,8.91,0,0-1.75,1.15-1.83,3.38,0,0-1.61-.11-2.12-.14-.52-.03-5.62,2.41-7.08,4.13-1.46,1.72-1.92,4.67-1.43,6.91,0,0-1.81-.06-2.98.69s-3.15.57-4.3-.6c-1.15-1.18-1.15-3.38-1.38-3.67-.23-.29-.73,2.89-.73,2.89,0,0-.19-.89-1.53-1.63l.32.86s-4.07-.57-6.02-3.18c-1.95-2.61-4.18-6.05-3.5-11.12Z"/>
            <path class="cls-6" d="M29.11,44.43c3.35-.34,2.84-3.94,3.08-4.82s.62-2.04,2.26-2.01c1.64.03,2.61,1.67,5.51,2.05s7.45-2.25,8.59-5.16c1.15-2.9.42-6.53-2.41-8.98s-7.6-2.08-7.6-2.08l-15.28,9.98-1,.21c-.28,2.63.23,4.82,1.06,6.67.03.06,2.44,4.49,5.77,4.15Z"/>
            <path class="cls-3" d="M26.8,35.63c-.99-.03-1.57,1.14-1.11,3.14.46,2.01,3.27,3.15,4.2,1.53s-.73-4.61-3.1-4.67Z"/>
            <g>
              <path class="cls-7" d="M39.15,36.36c-.37-.71,1.26-4.29,3.04-6.41,1.78-2.12,3.65-2.4,4.01.39.36,2.79-.44,4.32-2.1,5.58-1.66,1.26-4.55,1.2-4.95.44Z"/>
              <path class="cls-3" d="M43.12,31.13c-2.11.23-3.26,2.56-3.27,2.59-.58,1.24-.89,2.3-.7,2.65.28.53,1.76.72,3.19.36,3.36-1.47,2.9-5.83.78-5.6Z"/>
            </g>
            <g>
              <path class="cls-5" d="M36.01,47.1s.67.71,1.28.38c.61-.32.34-2.87.34-2.87,0,0,2.56,3.23,4.76,4.18"/>
              <path class="cls-5" d="M46.56,37.41s.13,1.2.82,1.87"/>
              <path class="cls-5" d="M48.64,34.53s1.28.88,2.35.86c1.07-.02.82-5.25-.88-8.5-1.7-3.25-3.44-3.63-3.44-3.63"/>
            </g>
          </g>
          <g>
            <g>
              <path class="cls-2" d="M29.1,34.16c.02-.76-.17-1.15-1.06-1.46-.89-.32-3.58-.72-4.33-.2,0,0-1.72-.54-3.3-.4s-8.46,2.38-11.95,4.84c-3.5,2.47-6.33,5.19-5.7,7.11.63,1.92,2.92-.03,4.73-1.86,1.81-1.83,5.07-4.01,7.08-4.76,2.01-.75,6.88-2.41,8.2-2.29,1.32.11,6.28,1.09,6.33-.97Z"/>
              <g>
                <path class="cls-5" d="M23.72,32.49s-.77,1.15-.77,2.52"/>
                <line class="cls-5" x1="19.75" y1="32.21" x2="20.07" y2="35.63"/>
                <line class="cls-5" x1="12.22" y1="35.02" x2="13.17" y2="37.83"/>
                <path class="cls-5" d="M9.67,36.17s-.78,2.36,1.86,2.85"/>
              </g>
            </g>
            <g>
              <path class="cls-2" d="M37.29,30.99c-.21-.48-.67-1.93-.17-3.34.5-1.41,1.8-5.01,2.06-5.33.27-.32.48-.44.48-.44,0,0,.55-1.66.92-2.03,0,0,2.71-5.2,3.76-7.43,1.05-2.24,5.1-4.66,7.62-6.21s5.69-2.85,6.59-2.16c.9.69,1.01,2.18-.59,3.23-1.6,1.05-7.76,3.29-9.36,4.85-1.61,1.57-6.27,10.64-6.48,11.29s-2.83,6.69-3.25,7.39c-.42.71-1.38.66-1.59.17Z"/>
              <g>
                <line class="cls-5" x1="39.85" y1="21.73" x2="42.13" y2="23.43"/>
                <line class="cls-5" x1="41.17" y1="19.24" x2="43.06" y2="21.21"/>
                <line class="cls-5" x1="46.1" y1="10.55" x2="47.87" y2="13.04"/>
                <line class="cls-5" x1="48.99" y1="8.41" x2="50.02" y2="10.97"/>
              </g>
            </g>
            <g>
              <path class="cls-2" d="M37.29,30.99c-.21-.48-.67-1.93-.17-3.34.5-1.41,1.8-5.01,2.06-5.33.27-.32.48-.44.48-.44,0,0,.12-.37.29-.8-2.78-.11-6.92,1.42-10.36,4.08-2.74,2.12-4.42,5.38-5.18,7.12,1.1-.14,2.93.16,3.63.4.89.32,1.08.7,1.06,1.46-.01.5-.32.83-.8,1.02,1.53,1.14,3.2,1.42,6.26-.42,2.07-1.24,3.01-2.54,3.43-3.4-.31.01-.6-.12-.7-.36Z"/>
              <g>
                <path class="cls-5" d="M29.11,33.94s5.92-1.38,7.88-3.98"/>
                <path class="cls-5" d="M28.57,32.94s1.5-3.51,8.2-4.18"/>
                <polyline class="cls-5" points="28.88 25.76 29.75 27.33 32.84 25.76 32.84 23.08"/>
              </g>
            </g>
          </g>
          <g>
            <path class="cls-11" d="M27.7,23.64c2.1-1.97,4.5-3.2,6.86-4-1.12-2.02-3.13-5.27-6.11-8.67-4.89-5.56-10.13-8.81-11.54-8.24s-.5,6.57-.5,6.57c0,0-.76,2.87,0,4.82.76,1.95,1.61,5.73,3.13,7.83,1.07,1.48,3.92,3.61,5.52,4.75.7-1.01,1.56-2.05,2.64-3.07Z"/>
            <g>
              <path class="cls-5" d="M19.45,3.63s-1.2,1.75,1.03,5.82c2.24,4.07,4.59,5.36,5.85,5.1,1.26-.26,3.14-2.38,3.14-2.38"/>
              <path class="cls-5" d="M25.75,14.69s.17,4.5,4.04,7.04"/>
              <path class="cls-5" d="M16.39,8.8s2.5.31,3.61-.08"/>
              <path class="cls-5" d="M16.66,9s3.46,6.11,3.63,7.01c.17.9-1.43,1.8-2.6,1.45"/>
              <path class="cls-5" d="M20.3,16.15s2.51,2.31,3.6,3.84c1.09,1.53.69,1.78,1.42,2.94s1.28,1.53,1.28,1.53"/>
              <path class="cls-5" d="M22.41,24.46s2.12-.7,2.76-1.78"/>
              <path class="cls-5" d="M24.3,20.23s1.98-1.39,2.39-2.09"/>
            </g>
          </g>
          <path class="cls-2" d="M25.81,44.3s-.07-.09-.1-.13c-1.17.06-3.12.26-4.72.99-2.44,1.12-3.64,4.19-3.64,4.19l3.24.25s1.2-2.53,7.17-3.59c-.73-.44-1.42-1-1.96-1.71Z"/>
          <g>
            <path class="cls-3" d="M45.22,84.98s3.55,7.33,8.75,12.3c5.2,4.97,11.66,6.24,12.99,6.15.92-.06,6.4-7.45,5.24-16.37-1.17-8.91-5.69-17.8-10.74-21.64-5.04-3.84-17.39,7.96-17.39,7.96,0,0-.65,7.24,1.15,11.6Z"/>
            <g>
              <path class="cls-6" d="M57.95,91.85c4.85-1.15,7.68-8.88,7.68-8.88l-4.39-5.05s-1.53,8.65-6.99,8.84c-3.28.11-7.25-2.8-9.91-5.16.19,1.19.47,2.36.89,3.37,3.55,6.81,7.87,8.02,12.73,6.88Z"/>
              <path class="cls-6" d="M67.54,96.55c3.4-3.97,2.79-9.37,2.79-9.37l-3.65-.47s-1.86,7.7-7.01,9.26c-5.02,1.51-8.84-2.25-9.05-2.45,1.01,1.3,2.14,2.6,3.36,3.76,1.6,1.53,3.32,2.71,4.97,3.6,3.1-.49,6.38-1.74,8.59-4.33Z"/>
            </g>
            <g>
              <path class="cls-5" d="M63.2,70.57s1.5,3,1.87,3.65"/>
              <path class="cls-5" d="M49.89,81.78s.93,3.65,2.74,4.82"/>
            </g>
          </g>
          <g>
            <path class="cls-2" d="M10.29,59.87c-.64-1.18-.97-4.05-.52-6.38s4.61-3.52,9.1-3.88c4.49-.36,7.29.08,8.89.36,1.6.29,3.63.1,5.12,1.3,1.49,1.2,1.98,1.32,3.38,1.52,1.4.2,2.66.32,2.94,1.18.27.86-3.19,10.86-3.19,10.86,0,0-1.98-.3-4.82-1.92-2.84-1.62-3.61-1.37-4.84-.99s-9.97,1.21-11.55.89c-1.58-.32-3.52-1.09-4.51-2.93Z"/>
            <g>
              <path class="cls-3" d="M25.58,55.93c.14-2.39,1.89-4.53,3.22-5.83-.36-.03-.71-.07-1.04-.13-1.55-.28-4.24-.69-8.49-.39-.99,1.36-2.51,3.85-2.64,6.39-.12,2.35,1.01,5.07,1.89,6.8,3.11-.19,7.03-.62,7.83-.86.21-.06.4-.12.6-.17-.72-1.51-1.5-3.67-1.37-5.81Z"/>
              <g>
                <path class="cls-5" d="M17.24,53.26s4.92-1.4,9.42-.51"/>
                <line class="cls-5" x1="16.63" y1="56.34" x2="25.43" y2="56.12"/>
                <line class="cls-5" x1="17.35" y1="59.73" x2="26.03" y2="59.35"/>
              </g>
            </g>
            <path class="cls-3" d="M39.21,53.96c-.27-.86-1.53-.97-2.94-1.18-.44-.06-.79-.12-1.11-.2-.86.85-2.04,2.25-2.78,4.11-.7,1.74-.79,4.38-.72,6.45,2.58,1.39,4.35,1.67,4.35,1.67,0,0,3.47-10,3.19-10.86Z"/>
            <g>
              <path class="cls-5" d="M15.61,50.04s-2.13,2.15-3.36,4.95c-1.23,2.81.48,6.42,1.93,7.65"/>
              <path class="cls-5" d="M32.89,51.27s-2.46,2.06-3.3,4.4c-.84,2.33-.84,6.11-.84,6.11"/>
            </g>
          </g>
          <g>
            <path class="cls-2" d="M35.94,64.5s.3,3.18,2.52,5.63c2.22,2.46,4.93,3.53,5.81,5.09.88,1.57,3.69,2.06,6.29,1.83,2.6-.23,4.95-1.49,4.95-1.49l.31-12.29-.96-1.67-12.36-1.86-3.46,1.44-3.1,3.3Z"/>
            <path class="cls-6" d="M48.14,69.27c.09,0,2.78-.39,3.44-1.66,0,0,.77.38,2.04.42,1.26.04,1.26-4.74,1.26-4.74l-3.15-1.67h-5.13l-.46,5.03,2.01,2.62Z"/>
            <path class="cls-6" d="M47.45,65.85s4.41,5.28,5.07,7.23c.66,1.95-1.28,1.81-3.11.69-1.82-1.12-4.8-6.56-4.8-6.56l.59-2.18,2.25.82Z"/>
            <g>
              <line class="cls-5" x1="38.46" y1="69.81" x2="43.1" y2="70.72"/>
              <path class="cls-5" d="M42.02,73.13s2.56.09,4.11.92"/>
            </g>
          </g>
          <g>
            <path class="cls-2" d="M43.1,51.27s-1.2.34-2.83.61c-1.62.27-2.6,1.66-3.9,3.99-1.3,2.33-1.89,6.02-1.41,7.91.48,1.89,3.29,3.31,5.37,3.82,2.08.52,3.48.13,3.48.13,0,0,4.11,1.03,4.55-.02.44-1.05.13-1.38.13-1.38,0,0,.75-.76.92-1.47.17-.71.1-1.26.1-1.26,0,0,.92-.55,1.13-1.39s-.27-1.64-.27-1.64c0,0,.99-.4,1.03-1.45.04-1.05-3.11-2.85-4.87-3.48-1.76-.63-3.73-.21-4.11-.8-.38-.59.17-1.45.48-2.16.31-.71.21-1.41.21-1.41Z"/>
            <g>
              <path class="cls-10" d="M43.39,58.78c0,.32-.26.57-.57.57s-.57-.26-.57-.57.26-.57.57-.57.57.26.57.57Z"/>
              <path class="cls-10" d="M42.49,61.77c0,.32-.26.57-.57.57s-.57-.26-.57-.57.26-.57.57-.57.57.26.57.57Z"/>
              <path class="cls-10" d="M42.16,64.51c0,.32-.26.57-.57.57s-.57-.26-.57-.57.26-.57.57-.57.57.26.57.57Z"/>
            </g>
            <g>
              <path class="cls-5" d="M50.02,57.62s-1.91-.07-3.02.28-.75,1.46.48,1.98,2.48.42,3.52.21"/>
              <path class="cls-5" d="M48.09,60.09s-1.8-.44-2.66.82c-.86,1.26.8,2.04,2.16,2.18,1.36.13,2.11.33,2.94-.6"/>
              <path class="cls-5" d="M46.34,62.79s-1.74-.04-1.84,1.03,1.22,1.72,2.39,1.72,2.03.08,2.52-.67"/>
              <path class="cls-5" d="M46.01,65.42s-1.67.03-2.22.65c-.55.62-.32,1.52.57,1.79"/>
              <path class="cls-5" d="M37.7,60.78s.28,1.95,1.5,3.73"/>
            </g>
          </g>
          <g>
            <path class="cls-2" d="M67.14,59.71s-.19-.36-1.15,0-1.03,1.39-.84,2.06c.19.67-.23,3.17.04,5.08.27,1.91,2.62,3.32,4.6,3.99s2.68-.9,2.71-2.83c0,0,1.7.34,2.1-1.59.4-1.93.11-4.3-.44-5.22-.55-.92-1.97-.44-1.97-.44,0,0-.63-1.03-1.11-1.38-.48-.34-1.16.15-1.16.15,0,0-.19-.94-1.23-.94s-1.57,1.09-1.57,1.09Z"/>
            <g>
              <path class="cls-5" d="M67.2,59.61s-.22,8.75.92,10.52"/>
              <path class="cls-5" d="M69.93,59.56s-.51,9.62,0,11.34"/>
              <path class="cls-5" d="M72.2,60.78s.19,6.15.31,7.24"/>
              <path class="cls-5" d="M65.38,62.22s2.5-1.07,3.63-.76c1.13.31,2.58.75,3.19.69"/>
              <line class="cls-5" x1="65.23" y1="64.28" x2="67.18" y2="64.28"/>
              <path class="cls-5" d="M67.27,65.03s1.56.25,2.34.09"/>
              <path class="cls-5" d="M69.82,65.85s1.85.61,2.54.4"/>
              <line class="cls-5" x1="72.51" y1="64.4" x2="74.57" y2="64.28"/>
            </g>
          </g>
          <g>
            <path class="cls-11" d="M73.78,40.76s9.77.33,14.17,1.64c4.39,1.31,3.59,5.05.46,6.58-3.13,1.53-16.36-.61-18.96-1.89-2.6-1.28,4.33-6.33,4.33-6.33Z"/>
            <g>
              <path class="cls-5" d="M71.54,45.58s3.38.15,4.89.76c1.51.61,3.07,2.84,3.07,2.84"/>
              <path class="cls-5" d="M78.43,41.21s-.15,4.13,3.55,4.94c3.71.8,6.23-2.12,6.34-3.41"/>
              <path class="cls-5" d="M85.61,45.75s.83,2.28,3.04,3.1"/>
              <line class="cls-5" x1="80.22" y1="45.34" x2="77.78" y2="47.08"/>
            </g>
          </g>
          <g>
            <g>
              <g>
                <polygon class="cls-2" points="117.38 63.19 119.59 52.27 123.29 52.27 123.29 65.42 117.38 63.19"/>
                <line class="cls-2" x1="118.17" y1="59.26" x2="123.12" y2="59.26"/>
                <line class="cls-2" x1="118.99" y1="55.94" x2="123.12" y2="55.94"/>
              </g>
              <path class="cls-2" d="M128.94,65.08c-4.01-1.18-22.5-5.82-22.5-5.82-.17-1.06-.89-2.06-3.07-2.06s-4.47,1.32-4.47,1.32c0,0-4.04-1.49-8.46-2.41s-4.96-.49-4.96-.49c0,0,.37-2.52-1.89-3.87-2.26-1.35-13.3-4.24-13.3-4.24,0,0,1.4-1.09,1.23-2.09s-1.52-2.52-1.52-2.52c0,0,3.24,1.32,4.9,0,1.66-1.32,2.55-5.99.77-7.19-1.78-1.2-4.59-.6-4.59-.6l-.29-1.58s-2.67.09-4.47.23c-1.81.14-2.38,1.35-2.38,1.35l-9.06-.43s-1.75,1.15-1.83,3.38c0,0-1.61-.11-2.12-.14-.52-.03-5.62,2.41-7.08,4.13-1.46,1.72-1.92,4.67-1.43,6.91h0c.14.8.67,2.32.67,2.32,0,0,.1.71-.21,1.41-.31.71-.86,1.57-.48,2.16.38.59,2.35.17,4.11.8,1.76.63,4.91,2.43,4.87,3.48-.04,1.05-1.03,1.45-1.03,1.45,0,0,.48.8.27,1.64-.06.26-.2.49-.35.68l2.74.32v19.08l9.21.31.08-11.89c2.6-.38,3.67-3.44,3.67-3.44,0,0,1.91.65,3.1,2.85,1.18,2.2,5.04.85,5.04.85l.08,1.41s.67.96,3.99.53c3.32-.42,2.97-2.61,2.97-2.61l3.89.83.15-2.22,17.28,5.37,2.44-6.42s18.06,5.22,22.79,6.68c4.73,1.46,7.74-.95,7.71-4.01-.03-3.07-2.46-4.3-6.48-5.47Z"/>
              <g>
                <path class="cls-2" d="M69.76,38.24c-.25,2.79-.17,5.12,3.3,5.24.67-.02,1.33-.18,1.85-.58,1.66-1.32,2.55-5.99.77-7.19-1.78-1.2-4.59-.6-4.59-.6,0,0-1.09.34-1.34,3.13Z"/>
                <path class="cls-4" d="M73.06,41.21c-.64-.03-.9-.17-.94-.21-.11-.13-.28-.63-.1-2.56.05-.58.14-.97.22-1.2.15-.01.31-.02.48-.02.66,0,1.23.11,1.58.3.32.76-.18,3.09-.8,3.61h0s-.11.07-.44.09Z"/>
              </g>
              <g>
                <path class="cls-2" d="M44.34,46.03c1.36-.76,7.61-2.94,8.33-4.72.73-1.78.39-3.26.39-3.26,0,0-1.61-.11-2.12-.14-.52-.03-5.62,2.41-7.08,4.13-1.46,1.72-1.92,4.67-1.43,6.91h0c.14.8.67,2.32.67,2.32-.29-1.78-.11-4.47,1.24-5.24Z"/>
                <path class="cls-2" d="M45.43,42.41c-.38-.7,2.72-3.34,3.71-3.77.99-.43,2.42.33.97,1.73-1.45,1.4-4.18,2.97-4.69,2.03Z"/>
              </g>
              <path class="cls-2" d="M63.03,37.61c-.88.05-1.7.52-1.59,1.83.11,1.31.63,2.09,1.85,2,1.22-.1,1.57-3.94-.27-3.82Z"/>
              <g>
                <path class="cls-2" d="M53.71,35.96s-.73,2.56.98,3.54c1.71.97,5.25,2.21,7.66,2.21s2.9.11,4.85.42c1.95.31,2.81.76,2.81.76"/>
                <path class="cls-2" d="M57.32,34.95s-2.01,2.42-1.13,5.12"/>
                <path class="cls-2" d="M60.17,35.12s-1.61,2.57-.71,6.09"/>
                <path class="cls-2" d="M63.96,35.1s-.95,1.51-1.43,2.59"/>
                <line class="cls-2" x1="63.24" y1="36.57" x2="69.93" y2="36.57"/>
                <line class="cls-2" x1="67.24" y1="33.86" x2="67.06" y2="36.4"/>
                <path class="cls-2" d="M66.28,36.57s.75,2.41.78,5.45"/>
                <polyline class="cls-2" points="59.68 41.56 59.1 43.91 52.46 41.94"/>
                <polyline class="cls-2" points="59.1 43.91 60.17 47.33 68.11 48.76 68.51 42.4"/>
                <line class="cls-2" x1="59.19" y1="43.8" x2="68.21" y2="45.58"/>
                <line class="cls-2" x1="63.15" y1="41.89" x2="62.75" y2="44.33"/>
                <line class="cls-2" x1="65.9" y1="42.17" x2="65.4" y2="44.85"/>
                <line class="cls-2" x1="70.29" y1="47.51" x2="68.37" y2="47.08"/>
                <line class="cls-2" x1="60.75" y1="49.43" x2="65.52" y2="50.77"/>
                <polyline class="cls-2" points="48.53 44.15 59.4 46.71 57.87 50.73 66.09 52.99 71.94 47.96"/>
              </g>
              <line class="cls-2" x1="48.34" y1="47.73" x2="53.55" y2="49.36"/>
              <polyline class="cls-2" points="53.02 66.29 57.62 67.2 61.81 64.4 65.07 65.03"/>
              <line class="cls-2" x1="62.31" y1="70.72" x2="62.31" y2="64.5"/>
              <line class="cls-2" x1="62.55" y1="67.61" x2="64.88" y2="66.29"/>
              <line class="cls-2" x1="59.04" y1="66.29" x2="59.04" y2="82.37"/>
              <polyline class="cls-2" points="53.02 69.01 59.04 70.9 62.18 70.9"/>
              <line class="cls-2" x1="53.02" y1="73.77" x2="62.18" y2="73.77"/>
              <line class="cls-2" x1="53.15" y1="76.83" x2="62.18" y2="76.83"/>
              <line class="cls-2" x1="53.15" y1="79.64" x2="62.04" y2="79.64"/>
              <polyline class="cls-2" points="61.03 64.82 61.03 59.45 64.5 56.69 43.1 51"/>
              <path class="cls-2" d="M51.2,59.82s2.31.72,2.87.36c.55-.36.61-1.24-.27-2.11-.88-.86-3.29-.2-3.24-.16"/>
              <path class="cls-2" d="M57.4,58.12c-.51-.02-1.06,1.39-.73,2.67.33,1.28,1.92.39,1.92-1.05,0-1.05-.66-1.59-1.19-1.61Z"/>
              <path class="cls-2" d="M101.68,64.65l24.39,6.71.69-2.64s-2.72.14-3.55-.4-1.2-1.18-2.72-1.38c-1.52-.2-3.38-.72-5.62-1.26-2.24-.54-6.59-1.46-7.71-1.75-1.12-.29-5.47-1.49-5.47-1.49v1.81s-.75-1.55-1.63-1.55-.97.06-2.46-.66c-1.49-.72-12.21-3.24-12.81-3.24-.48,0,.39-1.94,1.85-3.27-.96-.05-1.13.09-1.13.09,0,0,.17-1.19-.44-2.36-1.01.09-2.46.38-3.83,1.28-2.41,1.58-2.15,5.68-1.89,6.99.26,1.32,1.81,4.32,1.81,4.32l-8.77-1.57-1.06,3.61,9.86,2.44,3.89.83.15-2.22,17.28,5.37,2.44-6.42-2.61-.69-.63-2.55Z"/>
              <path class="cls-2" d="M85.2,68.94s-.99-.1-1.45-1.85.19-6.98.98-8.86"/>
              <line class="cls-2" x1="102.31" y1="67.2" x2="102.31" y2="74.31"/>
              <g>
                <path class="cls-2" d="M83.27,55.47s-1.11,1.2-1.07,2.25"/>
                <line class="cls-2" x1="83.71" y1="63.28" x2="102.11" y2="68.29"/>
                <line class="cls-2" x1="83.71" y1="66.33" x2="102.31" y2="71.6"/>
              </g>
              <g>
                <path class="cls-2" d="M113.91,61.15s-2.57,1.39-3.4,3.54c-.83,2.16.62,5,.62,5"/>
                <path class="cls-2" d="M121,62.97s-2.64,1.31-3.39,3.59c-.75,2.27.57,5.04.57,5.04"/>
                <path class="cls-2" d="M128.06,64.83s-3.2,4.8-2.24,9.16"/>
                <path class="cls-2" d="M132.34,66.32s-1.77,1.11-2.66,4.15c-.89,3.04,1.24,4.52,1.24,4.52"/>
              </g>
              <path class="cls-2" d="M71.94,53.53c.19,0,4.48,1,4.48,1"/>
              <line class="cls-2" x1="79.19" y1="58.81" x2="65.9" y2="55.25"/>
              <g>
                <path class="cls-2" d="M98.9,58.52s-1.2,1.4-1.4,3.21"/>
                <path class="cls-2" d="M106.44,59.26s-3.64.49-4.76,3.18"/>
              </g>
            </g>
            <path class="cls-6" d="M131.83,70.16c-.37-.54-1.13-.66-1.81-.65-.12.3-.24.62-.34.96-.66,2.25.48,3.84,1.11,4.51.35-.02.69-.06,1-.13.25-1.43.58-3.92.04-4.7Z"/>
          </g>
          <g>
            <path class="cls-11" d="M63.96,35.1s.57-1.2,2.38-1.35c1.81-.14,4.47-.23,4.47-.23l.2,1.11c8.12.14,31.83-.67,39.93-5.72,9.47-5.91,16.35-6.54,17.66-10.15,1.31-3.61-2.24-8.25-10.55-9.57-8.31-1.32-25.11,1.78-33.42,6.48-6.74,3.81-23.67,14.57-29.82,18.5.07.32.1.51.1.51l9.06.43Z"/>
            <path class="cls-9" d="M120.36,9.69c.2,1.75.11,4.07-1.65,4.62-2.9.92,1.65,1.84,2.24,3.06.59,1.22-.88,2.18-1.6,4.09-.33.88-.59,2.21-.77,3.38,5.4-2.47,9.09-3.54,10.01-6.08,1.18-3.26-1.59-7.34-8.23-9.08Z"/>
            <g>
              <path class="cls-5" d="M87.66,14.18s4.25,4.24,5.97,5.33c1.72,1.09,13.47-2.12,15.36-3.9,1.89-1.78,4.59-4.5,4.99-6.72"/>
              <path class="cls-5" d="M109.98,14.66s3.99,3.08,8.87,2.45c4.87-.63,5.23-4.47,4.48-6.39"/>
              <line class="cls-5" x1="120.95" y1="16.53" x2="123.63" y2="22.26"/>
              <path class="cls-5" d="M110.6,29.11s-2.64-2.61-4.42-3.47c-1.78-.86-11.06,1.64-11.29,1.74s-2.87,2.79-3.38,3.08c-.52.29,2.32,2.94,2.32,2.94"/>
              <path class="cls-5" d="M93.91,19.73s-2.01,4.14-2.87,4.59c-.86.46-30.61,8.25-35.54,10.26"/>
              <path class="cls-5" d="M70.81,33.53s2.12-2.32,9.4-2.41c7.28-.09,9.11.2,11.29-.66"/>
              <path class="cls-5" d="M91.04,24.33s3.53,3.15,3.84,3.05"/>
              <line class="cls-5" x1="106.18" y1="25.64" x2="119.59" y2="16.97"/>
            </g>
          </g>
          <g>
            <path class="cls-2" d="M47.48,84.17c.57-1.78-.9-5.62-3.4-6.82-2.5-1.2-8.92-3.36-12.68-3.76-3.75-.4-7.65-.37-8.74,1.55-1.09,1.92-2.06,6.48-1.32,8.68,0,0-1.29,2.78-1.95,4.67-.66,1.89.03,5.59,1,6.51,0,0-1.81,1.72-2.03,3.3-.23,1.58-1.55,5.07-4.67,8.4-3.12,3.32-7.51,3.67-8.83,4.76-1.32,1.09-1.89,5.04,2.01,6.02,3.9.97,8.23-1.09,9.14-1.66.92-.57,1.95-.77,3.93-.77h4.27v-2.95s2.15-1.12,2.35-4.33c.2-3.21-.54-6.65-.54-6.65l2.21-1.72,1.03,1.38,4.39-2.84,2.29,1.43,1-3.3,2.98.06-1.61-3.53,3.07-4.27s4.67.32,6.11-4.16Z"/>
            <path class="cls-3" d="M27.72,80.04c.37-2.99-.02-6.33-2.99-6.29-.95.27-1.69.71-2.07,1.38-1.09,1.92-2.06,6.48-1.32,8.68,0,0,2.18,2.9,2.71,3.4.54.5,3.29-4.09,3.67-7.18Z"/>
            <g>
              <path class="cls-5" d="M41.37,88.33s-6.43-4.92-6.93-5.07c-.5-.15-2.45,1.03-4.28.61s-2.34-6.12-2.34-6.12"/>
              <path class="cls-5" d="M29.98,73.47s.91,6.57,4.24,9.79"/>
              <path class="cls-5" d="M34,83.04s1.21-.99,2.74-.67c1.53.32,2.05,1.73,5.28,2.46,3.24.73,5.79-1.17,5.09-3.85"/>
              <path class="cls-5" d="M34.21,74.09s2.3,4.49,2.53,8.28"/>
              <path class="cls-5" d="M29.69,83.61s1.05,2.47,1.09,5.15c.04,2.68-6.1,6.57-10.39,6.25"/>
              <path class="cls-5" d="M26.01,101.11s-6.45,7.69-11.98,5.22"/>
              <path class="cls-5" d="M25.73,101.11s-.6-.35-.15-2.07c.45-1.72,5-4.28,6.51-6.65,1.51-2.37,3.23-5.89,6.77-5.96"/>
              <path class="cls-5" d="M27.61,92.75s.34,2.95,0,3.91"/>
              <path class="cls-5" d="M19.59,96.44s2.35,2.06,2.78,3.12"/>
              <path class="cls-5" d="M18.01,99.68s1.35,1.29,1.83,1.97"/>
              <path class="cls-5" d="M17.04,115.35s-.23-1.83,1.24-2.71c1.46-.89,4.87-.11,5.93-.54"/>
              <path class="cls-5" d="M4.07,115.19s7.48-.36,10.12-2.93"/>
              <path class="cls-5" d="M21.51,105.04s.82,2.22.86,2.98"/>
            </g>
          </g>
          <g>
            <path class="cls-6" d="M63.2,88.16s2.01,3.23,7.44,1.55c5.43-1.68,11.08-3.49,12.08-6.26.99-2.76-6.65-4.52-6.65-4.52l-7.53-.46-3.47,3.76s-1.73,3.77-1.62,4.15c.11.38-.26,1.77-.26,1.77Z"/>
            <path class="cls-2" d="M63.41,88.45c-1.36-1.53-1.75-6.63.09-9.21s8.05-5.33,13.61-5.79,12.5-.09,15.62,1.35c0,0,1.15-.72,3.53.11,2.38.83,5.93,3.96,7.19,6.36s0,4.27,0,4.27c0,0,4.84,6.22,6.25,8.51,1.4,2.29,2.58,3.15,4.73,4.7s2.46,2.49,4.3,3.38c1.83.89,4.36,3.93,5.27,4.96.92,1.03,3.47,3.58,4.33,4.84.86,1.26.69,3.41-.63,3.67-1.32.26-6.88.77-9.32-1.09-2.44-1.86-4.44-5.85-5.9-6.02-1.46-.17-4.18.11-6.02,0-1.83-.11-2.18-1.15-1.83-2.38.34-1.23,1.58-4.24,1.58-4.24,0,0-1.55-.37-1.98-1.98s-.43-3.5-2.41-4.44c-1.98-.95-4.79-1.75-5.19-4.04-.4-2.29-.46-4.53-1.29-6.02-.83-1.49-1.95-2.52-2.52-3.98l-3.07.83s-.83,2.81-4.13,3.1c-3.3.29-6.74-1.43-6.74-1.43,0,0-3.15,1.03-4.13.97-.97-.06.17-2.67,1.03-3.81,0,0-3.38,3.41-5.7,3.67-2.32.26-3.64-1.2-3.64-1.2,0,0-.66,2.24,2.67,3.53,0,0-3.37.32-4.63-2.28,0,0,.06,4.94-1.07,3.67Z"/>
            <g>
              <path class="cls-3" d="M99.5,87.18c3.44.11,3.71-1.16,3.96-1.63,0,0,1.26-1.86,0-4.27s-4.82-5.53-7.19-6.36c-2.38-.83-3.53-.11-3.53-.11-1.52,2.64.09,6.62.09,6.62.41,1.04,1.09,1.87,1.75,2.79h0s0,0,0,.01c.12.16.23.34.34.52.61.83,2.08,2.36,4.58,2.44Z"/>
              <g>
                <path class="cls-5" d="M96.95,81.56s1.61,1.83,3.32,1.89c1.72.06,2.52-1.75,2.46-3.01"/>
                <path class="cls-5" d="M95.03,74.77s-.57,2.58.26,4.73"/>
              </g>
            </g>
            <path class="cls-5" d="M66.45,83.54s-.4-1.99,0-3.21"/>
            <path class="cls-5" d="M84.45,73.45s-3.74,8.37-5.82,10.55"/>
            <path class="cls-5" d="M87.07,73.62s-3.11,7.77-3.21,8.33c-.1.56,3.06.46,4.13-1.91"/>
            <path class="cls-5" d="M90.27,74.03s-.45,2.6-.87,3.44"/>
            <path class="cls-5" d="M101.41,87.07s-3.3,4.99-2.23,7.19"/>
            <path class="cls-5" d="M106.41,94.15s-1.64,2.96-2.54,3.65"/>
            <path class="cls-5" d="M106.21,101.89s6.49,1.3,10.17-1.49"/>
            <path class="cls-5" d="M110.78,102.19s.08,5.28.61,6.15"/>
            <path class="cls-5" d="M111.09,104.98s2.68.46,4.98,2.21,2.87,4.3,5.96,5.33c3.1,1.03,5.04.1,5.71-1.34"/>
          </g>
        </g>
      </g>
      <g>
        <path class="cls-10" d="M19.84,29.63c.06-.04,1.74-2.69,1.74-2.69l.39.5-1.17,2.37-.96-.18Z"/>
        <polygon class="cls-10" points="131.22 113.25 131.06 111.33 132.09 112.42 131.32 113.72 131.22 113.25"/>
      </g>
      <g>
        <polygon class="cls-6" points="128.35 130.83 123.43 131.33 127.64 129.96 118.61 118.8 123.79 109.73 120.07 105.37 103.85 133.93 109.48 135.07 113.05 128.45 117.32 127.26 113.87 129.42 126.01 143.68 131.22 134.38 128.35 130.83"/>
        <polygon class="cls-8" points="121.39 103.33 128.23 91.8 134.31 99.42 138.66 91.69 141.75 90.97 137.66 91.01 132.25 84.61 137.77 75.23 154.32 94.7 148.8 103.89 142.5 96.7 138.02 103.68 140.75 106.95 137.29 108.16 141.13 107.69 144.52 111.55 139.05 120.81 125.71 104.72 128.94 103.97 121.39 103.33"/>
        <polygon class="cls-1" points="138.89 73.22 155.31 44.55 157.05 52.83 149.25 65.71 151.9 68.93 158.87 56.82 162.63 56.21 171.17 65.72 155.48 92.23 154.22 84.1 161.9 70.72 162.07 64.99 161.33 69.85 159.07 67.16 151.94 79.78 148.12 80.49 142.86 74.41 146.91 73.72 138.89 73.22"/>
      </g>
    </g>
  </g>
</svg>