<?xml version="1.0" encoding="UTF-8"?>
<svg id="Calque_2" data-name="Calque 2" xmlns="http://www.w3.org/2000/svg" xmlns:xlink="http://www.w3.org/1999/xlink" viewBox="0 0 256.27 221.94">
  <defs>
    <style>
      .cls-1 {
        fill: #6f7271;
      }

      .cls-1, .cls-2, .cls-3, .cls-4, .cls-5, .cls-6, .cls-7, .cls-8, .cls-9, .cls-10, .cls-11, .cls-12, .cls-13, .cls-14 {
        stroke: #231916;
      }

      .cls-1, .cls-3, .cls-5, .cls-6, .cls-7, .cls-8, .cls-9, .cls-10, .cls-11, .cls-13 {
        stroke-linecap: round;
        stroke-linejoin: round;
        stroke-width: .8px;
      }

      .cls-2, .cls-4, .cls-12, .cls-14 {
        stroke-miterlimit: 10;
      }

      .cls-2, .cls-8 {
        fill: none;
      }

      .cls-3 {
        fill: #fed925;
      }

      .cls-4, .cls-6 {
        fill: #5b4926;
      }

      .cls-5 {
        fill: #a576a6;
      }

      .cls-7 {
        fill: #e1251b;
      }

      .cls-9, .cls-14 {
        fill: #231916;
      }

      .cls-10 {
        fill: #c89211;
      }

      .cls-11 {
        fill: #fff;
      }

      .cls-15 {
        clip-path: url(#clippath);
      }

      .cls-12 {
        fill: #094;
      }

      .cls-13 {
        fill: #fdcf85;
      }
    </style>
    <clipPath id="clippath">
      <polygon id="SVGID" class="cls-2" points="79.74 194.79 31.34 110.97 79.74 27.15 176.53 27.15 224.93 110.97 176.53 194.79 79.74 194.79"/>
    </clipPath>
  </defs>
  <g id="_图层_1" data-name="图层 1">
    <g>
      <polygon class="cls-14" points="191.92 .5 64.36 .5 .58 110.97 64.36 221.44 191.92 221.44 255.7 110.97 191.92 .5"/>
      <polygon class="cls-14" points="66.48 217.75 4.83 110.97 66.48 4.18 189.79 4.18 251.44 110.97 189.79 217.75 66.48 217.75"/>
      <polygon class="cls-14" points="68.28 214.64 8.43 110.97 68.28 7.3 187.99 7.3 247.84 110.97 187.99 214.64 68.28 214.64"/>
    </g>
    <polygon class="cls-6" points="79.74 194.79 31.34 110.97 79.74 27.15 176.53 27.15 224.93 110.97 176.53 194.79 79.74 194.79"/>
    <g>
      <g class="cls-15">
        <g>
          <polygon class="cls-8" points="117.14 166.31 106.46 166.31 101.12 175.56 106.46 184.81 117.14 184.81 122.48 175.56 117.14 166.31"/>
          <polygon class="cls-8" points="101.12 175.56 90.43 175.56 85.09 184.81 90.43 194.06 101.12 194.06 106.46 184.81 101.12 175.56"/>
          <polygon class="cls-8" points="101.12 157.06 90.43 157.06 85.09 166.31 90.43 175.56 101.12 175.56 106.46 166.31 101.12 157.06"/>
          <polygon class="cls-8" points="101.12 138.55 90.43 138.55 85.09 147.8 90.43 157.06 101.12 157.06 106.46 147.8 101.12 138.55"/>
          <polygon class="cls-8" points="101.12 120.05 90.43 120.05 85.09 129.3 90.43 138.55 101.12 138.55 106.46 129.3 101.12 120.05"/>
          <polygon class="cls-8" points="101.12 101.55 90.43 101.55 85.09 110.8 90.43 120.05 101.12 120.05 106.46 110.8 101.12 101.55"/>
          <polygon class="cls-8" points="101.12 83.04 90.43 83.04 85.09 92.29 90.43 101.55 101.12 101.55 106.46 92.29 101.12 83.04"/>
          <polygon class="cls-8" points="101.12 64.54 90.43 64.54 85.09 73.79 90.43 83.04 101.12 83.04 106.46 73.79 101.12 64.54"/>
          <polygon class="cls-8" points="101.12 46.03 90.43 46.03 85.09 55.29 90.43 64.54 101.12 64.54 106.46 55.29 101.12 46.03"/>
          <polygon class="cls-8" points="101.12 27.53 90.43 27.53 85.09 36.78 90.43 46.03 101.12 46.03 106.46 36.78 101.12 27.53"/>
          <polygon class="cls-8" points="101.12 9.03 90.43 9.03 85.09 18.28 90.43 27.53 101.12 27.53 106.46 18.28 101.12 9.03"/>
          <polygon class="cls-8" points="101.12 194.06 90.43 194.06 85.09 203.32 90.43 212.57 101.12 212.57 106.46 203.32 101.12 194.06"/>
          <polygon class="cls-8" points="117.14 147.8 106.46 147.8 101.12 157.06 106.46 166.31 117.14 166.31 122.48 157.06 117.14 147.8"/>
          <polygon class="cls-8" points="117.14 129.3 106.46 129.3 101.12 138.55 106.46 147.8 117.14 147.8 122.48 138.55 117.14 129.3"/>
          <polygon class="cls-8" points="117.14 110.8 106.46 110.8 101.12 120.05 106.46 129.3 117.14 129.3 122.48 120.05 117.14 110.8"/>
          <polygon class="cls-8" points="117.14 92.29 106.46 92.29 101.12 101.55 106.46 110.8 117.14 110.8 122.48 101.55 117.14 92.29"/>
          <polygon class="cls-8" points="117.14 73.79 106.46 73.79 101.12 83.04 106.46 92.29 117.14 92.29 122.48 83.04 117.14 73.79"/>
          <polygon class="cls-8" points="117.14 55.29 106.46 55.29 101.12 64.54 106.46 73.79 117.14 73.79 122.48 64.54 117.14 55.29"/>
          <polygon class="cls-8" points="117.14 36.78 106.46 36.78 101.12 46.03 106.46 55.29 117.14 55.29 122.48 46.03 117.14 36.78"/>
          <polygon class="cls-8" points="117.14 18.28 106.46 18.28 101.12 27.53 106.46 36.78 117.14 36.78 122.48 27.53 117.14 18.28"/>
          <polygon class="cls-8" points="117.14 -.23 106.46 -.23 101.12 9.03 106.46 18.28 117.14 18.28 122.48 9.03 117.14 -.23"/>
          <polygon class="cls-8" points="117.14 184.81 106.46 184.81 101.12 194.06 106.46 203.32 117.14 203.32 122.48 194.06 117.14 184.81"/>
          <polygon class="cls-8" points="149.17 166.31 138.48 166.31 133.14 175.56 138.48 184.81 149.17 184.81 154.51 175.56 149.17 166.31"/>
          <polygon class="cls-8" points="133.14 175.56 122.46 175.56 117.12 184.81 122.46 194.06 133.14 194.06 138.48 184.81 133.14 175.56"/>
          <polygon class="cls-8" points="133.14 157.06 122.46 157.06 117.12 166.31 122.46 175.56 133.14 175.56 138.48 166.31 133.14 157.06"/>
          <polygon class="cls-8" points="133.14 138.55 122.46 138.55 117.12 147.8 122.46 157.06 133.14 157.06 138.48 147.8 133.14 138.55"/>
          <polygon class="cls-8" points="133.14 120.05 122.46 120.05 117.12 129.3 122.46 138.55 133.14 138.55 138.48 129.3 133.14 120.05"/>
          <polygon class="cls-8" points="133.14 101.55 122.46 101.55 117.12 110.8 122.46 120.05 133.14 120.05 138.48 110.8 133.14 101.55"/>
          <polygon class="cls-8" points="133.14 83.04 122.46 83.04 117.12 92.29 122.46 101.55 133.14 101.55 138.48 92.29 133.14 83.04"/>
          <polygon class="cls-8" points="133.14 64.54 122.46 64.54 117.12 73.79 122.46 83.04 133.14 83.04 138.48 73.79 133.14 64.54"/>
          <polygon class="cls-8" points="133.14 46.03 122.46 46.03 117.12 55.29 122.46 64.54 133.14 64.54 138.48 55.29 133.14 46.03"/>
          <polygon class="cls-8" points="133.14 27.53 122.46 27.53 117.12 36.78 122.46 46.03 133.14 46.03 138.48 36.78 133.14 27.53"/>
          <polygon class="cls-8" points="133.14 9.03 122.46 9.03 117.12 18.28 122.46 27.53 133.14 27.53 138.48 18.28 133.14 9.03"/>
          <polygon class="cls-8" points="133.14 194.06 122.46 194.06 117.12 203.32 122.46 212.57 133.14 212.57 138.48 203.32 133.14 194.06"/>
          <polygon class="cls-8" points="149.17 147.8 138.48 147.8 133.14 157.06 138.48 166.31 149.17 166.31 154.51 157.06 149.17 147.8"/>
          <polygon class="cls-8" points="149.17 129.3 138.48 129.3 133.14 138.55 138.48 147.8 149.17 147.8 154.51 138.55 149.17 129.3"/>
          <polygon class="cls-8" points="149.17 110.8 138.48 110.8 133.14 120.05 138.48 129.3 149.17 129.3 154.51 120.05 149.17 110.8"/>
          <polygon class="cls-8" points="149.17 92.29 138.48 92.29 133.14 101.55 138.48 110.8 149.17 110.8 154.51 101.55 149.17 92.29"/>
          <polygon class="cls-8" points="149.17 73.79 138.48 73.79 133.14 83.04 138.48 92.29 149.17 92.29 154.51 83.04 149.17 73.79"/>
          <polygon class="cls-8" points="149.17 55.29 138.48 55.29 133.14 64.54 138.48 73.79 149.17 73.79 154.51 64.54 149.17 55.29"/>
          <polygon class="cls-8" points="149.17 36.78 138.48 36.78 133.14 46.03 138.48 55.29 149.17 55.29 154.51 46.03 149.17 36.78"/>
          <polygon class="cls-8" points="149.17 18.28 138.48 18.28 133.14 27.53 138.48 36.78 149.17 36.78 154.51 27.53 149.17 18.28"/>
          <polygon class="cls-8" points="149.17 -.23 138.48 -.23 133.14 9.03 138.48 18.28 149.17 18.28 154.51 9.03 149.17 -.23"/>
          <polygon class="cls-8" points="149.17 184.81 138.48 184.81 133.14 194.06 138.48 203.32 149.17 203.32 154.51 194.06 149.17 184.81"/>
          <polygon class="cls-8" points="181.19 166.31 170.51 166.31 165.17 175.56 170.51 184.81 181.19 184.81 186.53 175.56 181.19 166.31"/>
          <polygon class="cls-8" points="165.17 175.56 154.48 175.56 149.14 184.81 154.48 194.06 165.17 194.06 170.51 184.81 165.17 175.56"/>
          <polygon class="cls-8" points="165.17 157.06 154.48 157.06 149.14 166.31 154.48 175.56 165.17 175.56 170.51 166.31 165.17 157.06"/>
          <polygon class="cls-8" points="165.17 138.55 154.48 138.55 149.14 147.8 154.48 157.06 165.17 157.06 170.51 147.8 165.17 138.55"/>
          <polygon class="cls-8" points="165.17 120.05 154.48 120.05 149.14 129.3 154.48 138.55 165.17 138.55 170.51 129.3 165.17 120.05"/>
          <polygon class="cls-8" points="165.17 101.55 154.48 101.55 149.14 110.8 154.48 120.05 165.17 120.05 170.51 110.8 165.17 101.55"/>
          <polygon class="cls-8" points="165.17 83.04 154.48 83.04 149.14 92.29 154.48 101.55 165.17 101.55 170.51 92.29 165.17 83.04"/>
          <polygon class="cls-8" points="165.17 64.54 154.48 64.54 149.14 73.79 154.48 83.04 165.17 83.04 170.51 73.79 165.17 64.54"/>
          <polygon class="cls-8" points="165.17 46.03 154.48 46.03 149.14 55.29 154.48 64.54 165.17 64.54 170.51 55.29 165.17 46.03"/>
          <polygon class="cls-8" points="165.17 27.53 154.48 27.53 149.14 36.78 154.48 46.03 165.17 46.03 170.51 36.78 165.17 27.53"/>
          <polygon class="cls-8" points="165.17 9.03 154.48 9.03 149.14 18.28 154.48 27.53 165.17 27.53 170.51 18.28 165.17 9.03"/>
          <polygon class="cls-8" points="165.17 194.06 154.48 194.06 149.14 203.32 154.48 212.57 165.17 212.57 170.51 203.32 165.17 194.06"/>
          <polygon class="cls-8" points="181.19 147.8 170.51 147.8 165.17 157.06 170.51 166.31 181.19 166.31 186.53 157.06 181.19 147.8"/>
          <polygon class="cls-8" points="181.19 129.3 170.51 129.3 165.17 138.55 170.51 147.8 181.19 147.8 186.53 138.55 181.19 129.3"/>
          <polygon class="cls-8" points="181.19 110.8 170.51 110.8 165.17 120.05 170.51 129.3 181.19 129.3 186.53 120.05 181.19 110.8"/>
          <polygon class="cls-8" points="181.19 92.29 170.51 92.29 165.17 101.55 170.51 110.8 181.19 110.8 186.53 101.55 181.19 92.29"/>
          <polygon class="cls-8" points="181.19 73.79 170.51 73.79 165.17 83.04 170.51 92.29 181.19 92.29 186.53 83.04 181.19 73.79"/>
          <polygon class="cls-8" points="181.19 55.29 170.51 55.29 165.17 64.54 170.51 73.79 181.19 73.79 186.53 64.54 181.19 55.29"/>
          <polygon class="cls-8" points="181.19 36.78 170.51 36.78 165.17 46.03 170.51 55.29 181.19 55.29 186.53 46.03 181.19 36.78"/>
          <polygon class="cls-8" points="181.19 18.28 170.51 18.28 165.17 27.53 170.51 36.78 181.19 36.78 186.53 27.53 181.19 18.28"/>
          <polygon class="cls-8" points="181.19 -.23 170.51 -.23 165.17 9.03 170.51 18.28 181.19 18.28 186.53 9.03 181.19 -.23"/>
          <polygon class="cls-8" points="181.19 184.81 170.51 184.81 165.17 194.06 170.51 203.32 181.19 203.32 186.53 194.06 181.19 184.81"/>
          <polygon class="cls-8" points="213.22 166.31 202.53 166.31 197.19 175.56 202.53 184.81 213.22 184.81 218.56 175.56 213.22 166.31"/>
          <polygon class="cls-8" points="197.19 175.56 186.51 175.56 181.17 184.81 186.51 194.06 197.19 194.06 202.53 184.81 197.19 175.56"/>
          <polygon class="cls-8" points="197.19 157.06 186.51 157.06 181.17 166.31 186.51 175.56 197.19 175.56 202.53 166.31 197.19 157.06"/>
          <polygon class="cls-8" points="197.19 138.55 186.51 138.55 181.17 147.8 186.51 157.06 197.19 157.06 202.53 147.8 197.19 138.55"/>
          <polygon class="cls-8" points="197.19 120.05 186.51 120.05 181.17 129.3 186.51 138.55 197.19 138.55 202.53 129.3 197.19 120.05"/>
          <polygon class="cls-8" points="197.19 101.55 186.51 101.55 181.17 110.8 186.51 120.05 197.19 120.05 202.53 110.8 197.19 101.55"/>
          <polygon class="cls-8" points="197.19 83.04 186.51 83.04 181.17 92.29 186.51 101.55 197.19 101.55 202.53 92.29 197.19 83.04"/>
          <polygon class="cls-8" points="197.19 64.54 186.51 64.54 181.17 73.79 186.51 83.04 197.19 83.04 202.53 73.79 197.19 64.54"/>
          <polygon class="cls-8" points="197.19 46.03 186.51 46.03 181.17 55.29 186.51 64.54 197.19 64.54 202.53 55.29 197.19 46.03"/>
          <polygon class="cls-8" points="197.19 27.53 186.51 27.53 181.17 36.78 186.51 46.03 197.19 46.03 202.53 36.78 197.19 27.53"/>
          <polygon class="cls-8" points="197.19 9.03 186.51 9.03 181.17 18.28 186.51 27.53 197.19 27.53 202.53 18.28 197.19 9.03"/>
          <polygon class="cls-8" points="197.19 194.06 186.51 194.06 181.17 203.32 186.51 212.57 197.19 212.57 202.53 203.32 197.19 194.06"/>
          <polygon class="cls-8" points="213.22 147.8 202.53 147.8 197.19 157.06 202.53 166.31 213.22 166.31 218.56 157.06 213.22 147.8"/>
          <polygon class="cls-8" points="213.22 129.3 202.53 129.3 197.19 138.55 202.53 147.8 213.22 147.8 218.56 138.55 213.22 129.3"/>
          <polygon class="cls-8" points="213.22 110.8 202.53 110.8 197.19 120.05 202.53 129.3 213.22 129.3 218.56 120.05 213.22 110.8"/>
          <polygon class="cls-8" points="213.22 92.29 202.53 92.29 197.19 101.55 202.53 110.8 213.22 110.8 218.56 101.55 213.22 92.29"/>
          <polygon class="cls-8" points="213.22 73.79 202.53 73.79 197.19 83.04 202.53 92.29 213.22 92.29 218.56 83.04 213.22 73.79"/>
          <polygon class="cls-8" points="213.22 55.29 202.53 55.29 197.19 64.54 202.53 73.79 213.22 73.79 218.56 64.54 213.22 55.29"/>
          <polygon class="cls-8" points="213.22 36.78 202.53 36.78 197.19 46.03 202.53 55.29 213.22 55.29 218.56 46.03 213.22 36.78"/>
          <polygon class="cls-8" points="213.22 18.28 202.53 18.28 197.19 27.53 202.53 36.78 213.22 36.78 218.56 27.53 213.22 18.28"/>
          <polygon class="cls-8" points="213.22 -.23 202.53 -.23 197.19 9.03 202.53 18.28 213.22 18.28 218.56 9.03 213.22 -.23"/>
          <polygon class="cls-8" points="213.22 184.81 202.53 184.81 197.19 194.06 202.53 203.32 213.22 203.32 218.56 194.06 213.22 184.81"/>
          <polygon class="cls-8" points="245.24 166.31 234.56 166.31 229.22 175.56 234.56 184.81 245.24 184.81 250.58 175.56 245.24 166.31"/>
          <polygon class="cls-8" points="229.22 175.56 218.53 175.56 213.19 184.81 218.53 194.06 229.22 194.06 234.56 184.81 229.22 175.56"/>
          <polygon class="cls-8" points="229.22 157.06 218.53 157.06 213.19 166.31 218.53 175.56 229.22 175.56 234.56 166.31 229.22 157.06"/>
          <polygon class="cls-8" points="229.22 138.55 218.53 138.55 213.19 147.8 218.53 157.06 229.22 157.06 234.56 147.8 229.22 138.55"/>
          <polygon class="cls-8" points="229.22 120.05 218.53 120.05 213.19 129.3 218.53 138.55 229.22 138.55 234.56 129.3 229.22 120.05"/>
          <polygon class="cls-8" points="229.22 101.55 218.53 101.55 213.19 110.8 218.53 120.05 229.22 120.05 234.56 110.8 229.22 101.55"/>
          <polygon class="cls-8" points="229.22 83.04 218.53 83.04 213.19 92.29 218.53 101.55 229.22 101.55 234.56 92.29 229.22 83.04"/>
          <polygon class="cls-8" points="229.22 64.54 218.53 64.54 213.19 73.79 218.53 83.04 229.22 83.04 234.56 73.79 229.22 64.54"/>
          <polygon class="cls-8" points="229.22 46.03 218.53 46.03 213.19 55.29 218.53 64.54 229.22 64.54 234.56 55.29 229.22 46.03"/>
          <polygon class="cls-8" points="229.22 27.53 218.53 27.53 213.19 36.78 218.53 46.03 229.22 46.03 234.56 36.78 229.22 27.53"/>
          <polygon class="cls-8" points="229.22 9.03 218.53 9.03 213.19 18.28 218.53 27.53 229.22 27.53 234.56 18.28 229.22 9.03"/>
          <polygon class="cls-8" points="229.22 194.06 218.53 194.06 213.19 203.32 218.53 212.57 229.22 212.57 234.56 203.32 229.22 194.06"/>
          <polygon class="cls-8" points="245.24 147.8 234.56 147.8 229.22 157.06 234.56 166.31 245.24 166.31 250.58 157.06 245.24 147.8"/>
          <polygon class="cls-8" points="245.24 129.3 234.56 129.3 229.22 138.55 234.56 147.8 245.24 147.8 250.58 138.55 245.24 129.3"/>
          <polygon class="cls-8" points="245.24 110.8 234.56 110.8 229.22 120.05 234.56 129.3 245.24 129.3 250.58 120.05 245.24 110.8"/>
          <polygon class="cls-8" points="245.24 92.29 234.56 92.29 229.22 101.55 234.56 110.8 245.24 110.8 250.58 101.55 245.24 92.29"/>
          <polygon class="cls-8" points="245.24 73.79 234.56 73.79 229.22 83.04 234.56 92.29 245.24 92.29 250.58 83.04 245.24 73.79"/>
          <polygon class="cls-8" points="245.24 55.29 234.56 55.29 229.22 64.54 234.56 73.79 245.24 73.79 250.58 64.54 245.24 55.29"/>
          <polygon class="cls-8" points="245.24 36.78 234.56 36.78 229.22 46.03 234.56 55.29 245.24 55.29 250.58 46.03 245.24 36.78"/>
          <polygon class="cls-8" points="245.24 18.28 234.56 18.28 229.22 27.53 234.56 36.78 245.24 36.78 250.58 27.53 245.24 18.28"/>
          <polygon class="cls-8" points="245.24 -.23 234.56 -.23 229.22 9.03 234.56 18.28 245.24 18.28 250.58 9.03 245.24 -.23"/>
          <polygon class="cls-8" points="245.24 184.81 234.56 184.81 229.22 194.06 234.56 203.32 245.24 203.32 250.58 194.06 245.24 184.81"/>
          <polygon class="cls-8" points="85.08 166.31 74.4 166.31 69.06 175.56 74.4 184.81 85.08 184.81 90.42 175.56 85.08 166.31"/>
          <polygon class="cls-8" points="69.06 175.56 58.37 175.56 53.03 184.81 58.37 194.06 69.06 194.06 74.4 184.81 69.06 175.56"/>
          <polygon class="cls-8" points="69.06 157.06 58.37 157.06 53.03 166.31 58.37 175.56 69.06 175.56 74.4 166.31 69.06 157.06"/>
          <polygon class="cls-8" points="69.06 138.55 58.37 138.55 53.03 147.8 58.37 157.06 69.06 157.06 74.4 147.8 69.06 138.55"/>
          <polygon class="cls-8" points="69.06 120.05 58.37 120.05 53.03 129.3 58.37 138.55 69.06 138.55 74.4 129.3 69.06 120.05"/>
          <polygon class="cls-8" points="69.06 101.55 58.37 101.55 53.03 110.8 58.37 120.05 69.06 120.05 74.4 110.8 69.06 101.55"/>
          <polygon class="cls-8" points="69.06 83.04 58.37 83.04 53.03 92.29 58.37 101.55 69.06 101.55 74.4 92.29 69.06 83.04"/>
          <polygon class="cls-8" points="69.06 64.54 58.37 64.54 53.03 73.79 58.37 83.04 69.06 83.04 74.4 73.79 69.06 64.54"/>
          <polygon class="cls-8" points="69.06 46.03 58.37 46.03 53.03 55.29 58.37 64.54 69.06 64.54 74.4 55.29 69.06 46.03"/>
          <polygon class="cls-8" points="69.06 27.53 58.37 27.53 53.03 36.78 58.37 46.03 69.06 46.03 74.4 36.78 69.06 27.53"/>
          <polygon class="cls-8" points="69.06 9.03 58.37 9.03 53.03 18.28 58.37 27.53 69.06 27.53 74.4 18.28 69.06 9.03"/>
          <polygon class="cls-8" points="69.06 194.06 58.37 194.06 53.03 203.32 58.37 212.57 69.06 212.57 74.4 203.32 69.06 194.06"/>
          <polygon class="cls-8" points="85.08 147.8 74.4 147.8 69.06 157.06 74.4 166.31 85.08 166.31 90.42 157.06 85.08 147.8"/>
          <polygon class="cls-8" points="85.08 129.3 74.4 129.3 69.06 138.55 74.4 147.8 85.08 147.8 90.42 138.55 85.08 129.3"/>
          <polygon class="cls-8" points="85.08 110.8 74.4 110.8 69.06 120.05 74.4 129.3 85.08 129.3 90.42 120.05 85.08 110.8"/>
          <polygon class="cls-8" points="85.08 92.29 74.4 92.29 69.06 101.55 74.4 110.8 85.08 110.8 90.42 101.55 85.08 92.29"/>
          <polygon class="cls-8" points="85.08 73.79 74.4 73.79 69.06 83.04 74.4 92.29 85.08 92.29 90.42 83.04 85.08 73.79"/>
          <polygon class="cls-8" points="85.08 55.29 74.4 55.29 69.06 64.54 74.4 73.79 85.08 73.79 90.42 64.54 85.08 55.29"/>
          <polygon class="cls-8" points="85.08 36.78 74.4 36.78 69.06 46.03 74.4 55.29 85.08 55.29 90.42 46.03 85.08 36.78"/>
          <polygon class="cls-8" points="85.08 18.28 74.4 18.28 69.06 27.53 74.4 36.78 85.08 36.78 90.42 27.53 85.08 18.28"/>
          <polygon class="cls-8" points="85.08 -.23 74.4 -.23 69.06 9.03 74.4 18.28 85.08 18.28 90.42 9.03 85.08 -.23"/>
          <polygon class="cls-8" points="85.08 184.81 74.4 184.81 69.06 194.06 74.4 203.32 85.08 203.32 90.42 194.06 85.08 184.81"/>
          <polygon class="cls-8" points="53.03 166.31 42.34 166.31 37 175.56 42.34 184.81 53.03 184.81 58.37 175.56 53.03 166.31"/>
          <polygon class="cls-8" points="37 175.56 26.32 175.56 20.98 184.81 26.32 194.06 37 194.06 42.34 184.81 37 175.56"/>
          <polygon class="cls-8" points="37 157.06 26.32 157.06 20.98 166.31 26.32 175.56 37 175.56 42.34 166.31 37 157.06"/>
          <polygon class="cls-8" points="37 138.55 26.32 138.55 20.98 147.8 26.32 157.06 37 157.06 42.34 147.8 37 138.55"/>
          <polygon class="cls-8" points="37 120.05 26.32 120.05 20.98 129.3 26.32 138.55 37 138.55 42.34 129.3 37 120.05"/>
          <polygon class="cls-8" points="37 101.55 26.32 101.55 20.98 110.8 26.32 120.05 37 120.05 42.34 110.8 37 101.55"/>
          <polygon class="cls-8" points="37 83.04 26.32 83.04 20.98 92.29 26.32 101.55 37 101.55 42.34 92.29 37 83.04"/>
          <polygon class="cls-8" points="37 64.54 26.32 64.54 20.98 73.79 26.32 83.04 37 83.04 42.34 73.79 37 64.54"/>
          <polygon class="cls-8" points="37 46.03 26.32 46.03 20.98 55.29 26.32 64.54 37 64.54 42.34 55.29 37 46.03"/>
          <polygon class="cls-8" points="37 27.53 26.32 27.53 20.98 36.78 26.32 46.03 37 46.03 42.34 36.78 37 27.53"/>
          <polygon class="cls-8" points="37 9.03 26.32 9.03 20.98 18.28 26.32 27.53 37 27.53 42.34 18.28 37 9.03"/>
          <polygon class="cls-8" points="37 194.06 26.32 194.06 20.98 203.32 26.32 212.57 37 212.57 42.34 203.32 37 194.06"/>
          <polygon class="cls-8" points="53.03 147.8 42.34 147.8 37 157.06 42.34 166.31 53.03 166.31 58.37 157.06 53.03 147.8"/>
          <polygon class="cls-8" points="53.03 129.3 42.34 129.3 37 138.55 42.34 147.8 53.03 147.8 58.37 138.55 53.03 129.3"/>
          <polygon class="cls-8" points="53.03 110.8 42.34 110.8 37 120.05 42.34 129.3 53.03 129.3 58.37 120.05 53.03 110.8"/>
          <polygon class="cls-8" points="53.03 92.29 42.34 92.29 37 101.55 42.34 110.8 53.03 110.8 58.37 101.55 53.03 92.29"/>
          <polygon class="cls-8" points="53.03 73.79 42.34 73.79 37 83.04 42.34 92.29 53.03 92.29 58.37 83.04 53.03 73.79"/>
          <polygon class="cls-8" points="53.03 55.29 42.34 55.29 37 64.54 42.34 73.79 53.03 73.79 58.37 64.54 53.03 55.29"/>
          <polygon class="cls-8" points="53.03 36.78 42.34 36.78 37 46.03 42.34 55.29 53.03 55.29 58.37 46.03 53.03 36.78"/>
          <polygon class="cls-8" points="53.03 18.28 42.34 18.28 37 27.53 42.34 36.78 53.03 36.78 58.37 27.53 53.03 18.28"/>
          <polygon class="cls-8" points="53.03 -.23 42.34 -.23 37 9.03 42.34 18.28 53.03 18.28 58.37 9.03 53.03 -.23"/>
          <polygon class="cls-8" points="53.03 184.81 42.34 184.81 37 194.06 42.34 203.32 53.03 203.32 58.37 194.06 53.03 184.81"/>
        </g>
      </g>
      <polygon id="SVGID-2" data-name="SVGID" class="cls-2" points="79.74 194.79 31.34 110.97 79.74 27.15 176.53 27.15 224.93 110.97 176.53 194.79 79.74 194.79"/>
    </g>
    <polygon class="cls-8" points="79.74 194.79 31.34 110.97 79.74 27.15 176.53 27.15 224.93 110.97 176.53 194.79 79.74 194.79"/>
    <g>
      <path class="cls-9" d="M182.03,110.98c-.83-.24-2.27-.63-4.02-1.09v-9.54c0-1.25-1.02-2.27-2.27-2.27h-3.7c-1.08,0-2.01.76-2.22,1.82l-1.42,6.98s0,0,0,.01l-.1.49c-3.22-.82-6.13-1.56-7.69-1.95-.84-1.54-2.54-2.43-4.79-2.43-1.81,0-3.57.65-4.63,1.13-1.49-.51-4.54-1.49-7.84-2.17-1.34-.28-2.47-.47-3.4-.56-.11-.36-.25-.72-.44-1.08,0-.01-.01-.03-.02-.04,0,0-.01-.01-.02-.02-.09-.17-.19-.34-.3-.51,1.12-.11,2-.33,2.67-.66.16-.08.31-.17.46-.26.03-.02.06-.03.09-.05,2.2-1.29,3.49-3.42,3.31-5.59-.09-1.08-.72-3.72-4.66-4.89-2.5-.74-6.49-1.18-9.69-1.43.02-.27.02-.52.01-.78,0-.02,0-.05,0-.07h0c-.02-.4-.07-.78-.14-1.14,9.08-.31,25.62-1.48,32.96-5.74.04-.03.09-.05.13-.07.09-.05.18-.1.26-.15,2.69-1.68,5.18-2.92,7.39-3.93,0,0,0,0,0,0,1.05-.48,2.04-.91,2.95-1.3,2.09-.9,3.88-1.68,5.29-2.6.13-.08.24-.18.36-.26.21-.15.43-.3.62-.45.91-.76,1.58-1.63,1.98-2.74.09-.24.16-.47.21-.72.03-.12.05-.24.07-.36.02-.12.05-.24.06-.36.02-.15.03-.31.04-.46,0-.09.01-.18.02-.27,0-.17,0-.33-.01-.5,0-.08,0-.16-.01-.24-.02-.17-.04-.34-.07-.51-.01-.08-.02-.16-.04-.23-.03-.17-.08-.33-.12-.5-.02-.08-.04-.16-.07-.24-.05-.16-.11-.33-.17-.49-.03-.08-.06-.16-.09-.23-.07-.17-.15-.33-.23-.5-.02-.03-.03-.07-.05-.1-.01-.02-.03-.04-.04-.07-.06-.11-.11-.22-.17-.32-.07-.12-.17-.24-.25-.36-.12-.19-.25-.37-.38-.55-.14-.18-.28-.36-.44-.53-.16-.18-.33-.36-.5-.53-.16-.16-.32-.31-.49-.47-.21-.18-.43-.36-.66-.53-.17-.13-.33-.26-.5-.38-.28-.19-.58-.37-.88-.55-.15-.09-.3-.19-.45-.28-.3-.17-.62-.32-.95-.47-.14-.09-.28-.16-.43-.21-.02,0-.04-.02-.06-.03-.26-.11-.53-.21-.8-.31-.26-.1-.51-.2-.78-.3-.35-.12-.72-.22-1.08-.33-.15-.04-.3-.1-.45-.14-.02,0-.04,0-.06,0-.8-.21-1.62-.4-2.48-.53-1.29-.2-2.78-.31-4.43-.33-.03,0-.05,0-.08,0-.11,0-.22,0-.33,0-8.62,0-22.22,2.65-30.05,7.08-5.95,3.36-19.52,11.94-27.25,16.85-.48-1.78-1.16-3.92-2.03-5.76-1.34-2.83-3.62-5.79-6.3-7.53.69-1.2,1.33-2.25,1.8-2.92.03-.04.06-.08.09-.12.14-.2.28-.36.38-.46.7-.68,3.62-1.99,5.36-2.78,1.62-.73,2.9-1.3,3.66-1.8,1.39-.91,2.21-2.25,2.27-3.67.05-1.26-.53-2.48-1.54-3.25-.57-.44-1.28-.66-2.11-.66-2.48,0-6.02,2.05-7.05,2.68l-.26.16c-3.65,2.24-7.03,4.46-8.23,7.02-.53,1.12-1.5,3.04-2.32,4.63-1.33.19-2.8.45-4.35.86-1.26-2.08-3.06-4.73-5.47-7.47-3.97-4.51-9.66-9.07-12.86-9.07-.44,0-.86.08-1.24.23-.82.33-2.99,1.21-1.95,8.58-.23,1.08-.62,3.65.19,5.74.2.5.42,1.2.66,1.95.65,2.05,1.46,4.6,2.76,6.39.77,1.06,2.23,2.4,4.33,4.01-.49.91-.87,1.76-1.15,2.51-.23,0-.45,0-.68.03-.26.02-.63.09-1.07.19-.02,0-.05.01-.07.02-2.81.66-8.64,2.73-11.91,5.04-5.39,3.8-7.47,6.87-6.55,9.67.48,1.45,1.66,2.35,3.08,2.35,1.52,0,3.09-.97,5.42-3.33,1.54-1.57,4.52-3.58,6.25-4.22,1.68-.63,3.46-1.21,4.85-1.61.19.93.46,1.85.84,2.76.04.11.09.21.13.32.03.07.05.13.08.2.02.05.05.1.07.14,0,0,0,0,0,0,.17.38.35.75.54,1.09-.62.17-1.24.37-1.83.64-2.4,1.1-3.82,3.4-4.45,4.64-.14.03-.28.05-.43.08,0,0,0,0-.01,0-3.62.71-7.01,2.19-7.61,5.23-.53,2.68-.2,6.15.75,7.9,1.03,1.9,2.86,3.23,5.31,3.89.07.02.14.04.21.05.18.04.35.1.54.13.4.08.9.12,1.64.12.66,0,1.58-.04,2.59-.1.03,0,.05,0,.08,0,.71-.04,1.54-.11,2.41-.18.06,0,.12-.01.19-.02.16-.01.31-.03.47-.04.14-.01.27-.02.4-.04.07,0,.13-.01.2-.02.25-.02.5-.05.75-.08.14-.01.27-.03.41-.04.08,0,.16-.02.23-.03,1.47-.16,2.74-.35,3.29-.51.17-.05.33-.1.49-.14,0,0,.02,0,.03,0,.1-.02.18-.04.25-.04.22,0,.82.13,2.3.97.18.1.34.18.51.27,0,0,0,0,0,0,.01,0,.02,0,.03.01,1.38.74,2.57,1.22,3.44,1.5,0,0,.01.01.02.02.4,1.39,1.18,3.3,2.7,4.99.33.37.67.7,1.01,1.02-2.18-.63-4.4-1.15-6.15-1.33-.53-.06-1.02-.1-1.49-.13-.01,0-.02,0-.03,0-.75-.05-1.46-.08-2.12-.08-.93,0-3.11,0-4.96.85-.03.01-.06.03-.09.04-.29.14-.57.3-.83.48-.05.03-.09.06-.14.1-.23.17-.46.37-.66.58-.04.04-.08.09-.11.13-.19.22-.38.46-.53.73-.13.24-.27.51-.4.81-.02.03-.03.07-.05.1-.12.29-.24.6-.36.93-.02.06-.04.11-.06.17-.11.33-.22.67-.32,1.03-.02.06-.03.12-.05.19-.1.37-.19.74-.27,1.13-.01.05-.02.1-.03.15-.08.4-.15.81-.21,1.23,0,0,0,.02,0,.02-.05.41-.09.81-.11,1.21,0,.05,0,.1,0,.15-.02.39-.02.76,0,1.13,0,.06,0,.13,0,.19.02.36.06.71.11,1.04,0,.03,0,.06,0,.09-.44.98-1.22,2.77-1.7,4.15-.62,1.78-.46,4.8.39,6.96-.65.86-1.34,2.02-1.52,3.26-.14.93-1.13,4.04-4.08,7.17-1.66,1.77-3.86,2.53-5.62,3.15-1.19.42-2.22.78-3,1.41-1.45,1.2-2.14,3.5-1.67,5.58.03.14.08.28.13.42,0,.04.02.08.04.12.63,1.91,2.2,3.3,4.41,3.85.86.22,1.79.33,2.75.33,3.71,0,7.14-1.63,8.15-2.26.09-.05.18-.11.3-.16.14-.03.27-.07.4-.12.4-.09,1-.15,2.03-.15h4.27c1.25,0,2.27-1.02,2.27-2.27v-1.84c.97-.92,2.18-2.58,2.35-5.3.11-1.77-.04-3.59-.21-4.96.21.06.43.09.64.09.42,0,.85-.12,1.23-.36l3.17-2.05,1.07.67c.36.23.78.34,1.2.34.27,0,.54-.05.8-.14.66-.25,1.17-.79,1.37-1.46l.5-1.66s1.3.02,1.31.02c.76,0,1.48-.38,1.89-1.02.43-.65.49-1.48.17-2.18l-1.06-2.33,1.66-2.31c.91-.1,1.84-.35,2.73-.76,1.28,2.11,3.09,4.78,5.28,7.24.09.1.18.2.27.3.2.22.41.45.62.67.31.32.62.64.93.93.38.36.77.7,1.16,1.03.11.09.22.17.32.26.31.25.62.49.94.73.11.08.21.16.32.23.4.29.81.56,1.21.82.02,0,.03.02.05.03,4.32,2.72,8.62,3.69,10.44,3.69h0c.1,0,.19,0,.28,0,.91-.06,1.7-.57,2.64-1.72,1.83-2.22,4.51-7.12,4.84-13.15,3.19-1.06,5.82-2.13,7.66-3.45.82.16,1.71.27,2.61.27.32,0,.64-.01.96-.04,2.92-.25,4.67-1.95,5.54-3.44l.32-.09s.06.08.09.13c.2.3.41.58.6.85,0,0,.14.2.25.34.04.06.08.12.13.18.05.07.09.14.14.22,0,0,.18.27.2.3,0,0,0,0,0,0,.09.14.18.27.26.41.39.7.56,1.98.74,3.34.09.64.18,1.3.29,1.97.39,2.22,1.95,3.48,3.57,4.35.04.03.09.05.14.08.61.32,1.21.59,1.77.83.33.15.66.29.97.43.52.25.66.54.96,1.96.07.35.15.69.24,1.02.28,1.03.8,1.78,1.36,2.32-.36.94-.76,2.02-.95,2.71-.48,1.73-.01,2.91.47,3.58.49.69,1.48,1.55,3.41,1.67.37.02.76.03,1.18.03.64,0,1.32-.02,2-.04.6-.02,1.19-.04,1.73-.04.28,0,.52,0,.72.02.38.33,1.09,1.23,1.58,1.85,1,1.27,2.14,2.71,3.49,3.74,1.58,1.21,4.03,1.82,7.27,1.82,1.58,0,3.07-.16,3.86-.31,1.19-.23,2.15-1.05,2.64-2.24.63-1.53.4-3.51-.57-4.93-.2-.29-.46-.62-.75-.96-.02-.02-.04-.04-.05-.06-.67-.81-1.56-1.75-2.6-2.86-.45-.48-.85-.9-1.11-1.19l-.35-.4c-1.73-1.99-3.74-4.18-5.63-5.09-.73-.35-1.07-.68-1.7-1.27-.54-.51-1.21-1.15-2.26-1.91-2.02-1.45-2.94-2.12-4.12-4.04-1.11-1.81-4.13-5.79-5.59-7.68.02-.09.04-.19.06-.28.01-.05.03-.11.04-.16.04-.22.08-.45.1-.7,0-.06,0-.11,0-.17.01-.2.02-.41.01-.62,0-.07,0-.14,0-.21-.02-.27-.05-.54-.1-.82,0-.04-.02-.09-.03-.13-.05-.24-.12-.49-.2-.74-.03-.08-.05-.16-.08-.24-.11-.3-.23-.6-.39-.9-.62-1.18-1.66-2.47-2.88-3.66.88-.04,1.69-.58,2.02-1.45l1.69-4.47c4.84,1.4,17.02,4.94,20.74,6.09,1.16.36,2.29.54,3.37.54h0c.16,0,.32-.01.49-.02.02,0,.04,0,.06,0,.05,0,.1-.01.15-.02.39-.03.76-.09,1.13-.17.02,0,.03,0,.05,0,0,0,.01,0,.02,0,1.38-.31,2.59-.94,3.52-1.88,1.22-1.23,1.88-2.88,1.86-4.65-.05-5.27-5.09-6.75-8.11-7.63Z"/>
      <g>
        <g>
          <path class="cls-10" d="M74.77,81.26s.57-5.02,5.39-9.54c4.82-4.53,11.26-5.16,15.05-5.62,3.78-.46,7.68,4.04,9.43,7.74,1.75,3.7,2.72,8.91,2.72,8.91,0,0-1.75,1.15-1.83,3.38,0,0-1.61-.11-2.12-.14-.52-.03-5.62,2.41-7.08,4.13-1.46,1.72-1.92,4.67-1.43,6.91,0,0-1.81-.06-2.98.69-1.18.75-3.15.57-4.3-.6-1.15-1.18-1.15-3.38-1.38-3.67-.23-.29-.73,2.89-.73,2.89,0,0-.19-.89-1.53-1.63l.32.86s-4.07-.57-6.02-3.18c-1.95-2.61-4.18-6.05-3.5-11.12Z"/>
          <path class="cls-9" d="M81.56,92.5c3.35-.34,2.84-3.94,3.08-4.82s.62-2.04,2.26-2.01,2.61,1.67,5.51,2.05,7.45-2.25,8.59-5.16c1.15-2.9.42-6.53-2.41-8.98-2.83-2.45-7.6-2.08-7.6-2.08l-15.28,9.98-1,.21c-.28,2.63.23,4.82,1.06,6.67.03.06,2.44,4.49,5.77,4.15Z"/>
          <path class="cls-3" d="M79.26,83.7c-.99-.03-1.57,1.14-1.11,3.14.46,2.01,3.27,3.15,4.2,1.53.94-1.62-.73-4.61-3.1-4.67Z"/>
          <g>
            <path class="cls-10" d="M91.6,84.44c-.37-.71,1.26-4.29,3.04-6.41,1.78-2.12,3.65-2.4,4.01.39.36,2.79-.44,4.32-2.1,5.58-1.66,1.26-4.55,1.2-4.95.44Z"/>
            <path class="cls-3" d="M95.58,79.2c-2.11.23-3.26,2.56-3.27,2.59-.58,1.24-.89,2.3-.7,2.65.28.53,1.76.72,3.19.36,3.36-1.47,2.9-5.83.78-5.6Z"/>
          </g>
          <g>
            <path class="cls-8" d="M88.47,95.18s.67.71,1.28.38c.61-.32.34-2.87.34-2.87,0,0,2.56,3.23,4.76,4.18"/>
            <path class="cls-8" d="M99.02,85.49s.13,1.2.82,1.87"/>
            <path class="cls-8" d="M101.1,82.6s1.28.88,2.35.86c1.07-.02.82-5.25-.88-8.5-1.7-3.25-3.44-3.63-3.44-3.63"/>
          </g>
        </g>
        <g>
          <g>
            <path class="cls-1" d="M81.56,82.23c.02-.76-.17-1.15-1.06-1.46-.89-.32-3.58-.72-4.33-.2,0,0-1.72-.54-3.3-.4s-8.46,2.38-11.95,4.84c-3.5,2.47-6.33,5.19-5.7,7.11.63,1.92,2.92-.03,4.73-1.86,1.81-1.83,5.07-4.01,7.08-4.76,2.01-.75,6.88-2.41,8.2-2.29,1.32.11,6.28,1.09,6.33-.97Z"/>
            <g>
              <path class="cls-8" d="M76.17,80.57s-.77,1.15-.77,2.52"/>
              <line class="cls-8" x1="72.2" y1="80.28" x2="72.52" y2="83.7"/>
              <line class="cls-8" x1="64.68" y1="83.09" x2="65.62" y2="85.9"/>
              <path class="cls-8" d="M62.12,84.25s-.78,2.36,1.86,2.85"/>
            </g>
          </g>
          <g>
            <path class="cls-1" d="M89.75,79.07c-.21-.48-.67-1.93-.17-3.34.5-1.41,1.8-5.01,2.06-5.33.27-.32.48-.44.48-.44,0,0,.55-1.66.92-2.03,0,0,2.71-5.2,3.76-7.43,1.05-2.24,5.1-4.66,7.62-6.21s5.69-2.85,6.59-2.16c.9.69,1.01,2.18-.59,3.23-1.61,1.05-7.76,3.29-9.36,4.85-1.61,1.57-6.27,10.64-6.48,11.29s-2.83,6.69-3.25,7.39-1.38.66-1.59.17Z"/>
            <g>
              <line class="cls-8" x1="92.31" y1="69.8" x2="94.58" y2="71.5"/>
              <line class="cls-8" x1="93.63" y1="67.32" x2="95.52" y2="69.28"/>
              <line class="cls-8" x1="98.56" y1="58.62" x2="100.33" y2="61.12"/>
              <line class="cls-8" x1="101.44" y1="56.48" x2="102.47" y2="59.04"/>
            </g>
          </g>
          <g>
            <path class="cls-1" d="M89.75,79.07c-.21-.48-.67-1.93-.17-3.34.5-1.41,1.8-5.01,2.06-5.33.27-.32.48-.44.48-.44,0,0,.12-.37.29-.8-2.78-.11-6.92,1.42-10.36,4.08-2.74,2.12-4.42,5.38-5.18,7.12,1.1-.14,2.93.16,3.63.4.89.32,1.08.7,1.06,1.46-.01.5-.32.83-.8,1.02,1.53,1.14,3.2,1.42,6.26-.42,2.07-1.24,3.01-2.54,3.43-3.4-.31.01-.6-.12-.7-.36Z"/>
            <g>
              <path class="cls-8" d="M81.56,82.01s5.92-1.38,7.88-3.98"/>
              <path class="cls-8" d="M81.03,81.01s1.5-3.51,8.2-4.18"/>
              <polyline class="cls-8" points="81.33 73.84 82.2 75.4 85.3 73.84 85.3 71.15"/>
            </g>
          </g>
        </g>
        <g>
          <path class="cls-13" d="M80.16,71.71c2.1-1.97,4.5-3.2,6.86-4-1.12-2.02-3.13-5.27-6.11-8.67-4.89-5.56-10.13-8.81-11.54-8.24s-.5,6.57-.5,6.57c0,0-.76,2.87,0,4.82.76,1.95,1.61,5.73,3.13,7.83,1.07,1.48,3.92,3.61,5.52,4.75.7-1.01,1.56-2.05,2.64-3.07Z"/>
          <g>
            <path class="cls-8" d="M71.9,51.71s-1.2,1.75,1.03,5.82c2.24,4.07,4.59,5.36,5.85,5.1,1.26-.26,3.14-2.38,3.14-2.38"/>
            <path class="cls-8" d="M78.21,62.76s.17,4.5,4.04,7.04"/>
            <path class="cls-8" d="M68.84,56.87s2.5.31,3.61-.08"/>
            <path class="cls-8" d="M69.11,57.07s3.46,6.11,3.63,7.01c.17.9-1.43,1.8-2.6,1.45"/>
            <path class="cls-8" d="M72.75,64.22s2.51,2.31,3.6,3.84c1.09,1.53.69,1.78,1.42,2.94.72,1.17,1.28,1.53,1.28,1.53"/>
            <path class="cls-8" d="M74.86,72.53s2.12-.7,2.76-1.78"/>
            <path class="cls-8" d="M76.75,68.3s1.98-1.39,2.39-2.09"/>
          </g>
        </g>
        <path class="cls-1" d="M78.26,92.38s-.07-.09-.1-.13c-1.17.06-3.12.26-4.72.99-2.44,1.12-3.64,4.19-3.64,4.19l3.24.25s1.2-2.53,7.17-3.59c-.73-.44-1.42-1-1.96-1.71Z"/>
        <g>
          <path class="cls-3" d="M97.68,133.05s3.55,7.33,8.75,12.3c5.2,4.97,11.66,6.24,12.99,6.15.92-.06,6.4-7.45,5.24-16.37s-5.69-17.8-10.74-21.64c-5.04-3.84-17.39,7.96-17.39,7.96,0,0-.65,7.24,1.15,11.6Z"/>
          <g>
            <path class="cls-9" d="M110.4,139.93c4.85-1.15,7.68-8.88,7.68-8.88l-4.39-5.05s-1.53,8.65-6.99,8.84c-3.28.11-7.25-2.8-9.91-5.16.19,1.19.47,2.36.89,3.37,3.55,6.81,7.87,8.02,12.73,6.88Z"/>
            <path class="cls-9" d="M120,144.63c3.4-3.97,2.79-9.37,2.79-9.37l-3.65-.47s-1.86,7.7-7.01,9.26c-5.02,1.51-8.84-2.25-9.05-2.45,1.01,1.3,2.14,2.6,3.36,3.76,1.6,1.53,3.32,2.71,4.97,3.6,3.1-.49,6.38-1.74,8.59-4.33Z"/>
          </g>
          <g>
            <path class="cls-8" d="M115.65,118.64s1.5,3,1.87,3.65"/>
            <path class="cls-8" d="M102.34,129.86s.93,3.65,2.74,4.82"/>
          </g>
        </g>
        <g>
          <path class="cls-1" d="M62.75,107.94c-.64-1.18-.97-4.05-.52-6.38.46-2.33,4.61-3.52,9.1-3.88,4.49-.36,7.29.08,8.89.36,1.6.29,3.63.1,5.12,1.3,1.49,1.2,1.98,1.32,3.38,1.52,1.4.2,2.66.32,2.94,1.18.27.86-3.19,10.86-3.19,10.86,0,0-1.98-.3-4.82-1.92-2.84-1.62-3.61-1.37-4.84-.99-1.23.37-9.97,1.21-11.55.89s-3.52-1.09-4.51-2.93Z"/>
          <g>
            <path class="cls-3" d="M78.03,104c.14-2.39,1.89-4.53,3.22-5.83-.36-.03-.71-.07-1.04-.13-1.55-.28-4.24-.69-8.49-.39-.99,1.36-2.51,3.85-2.64,6.39-.12,2.35,1.01,5.07,1.89,6.8,3.11-.19,7.03-.62,7.83-.86.21-.06.4-.12.6-.17-.72-1.51-1.5-3.67-1.37-5.81Z"/>
            <g>
              <path class="cls-8" d="M69.7,101.33s4.92-1.4,9.42-.51"/>
              <line class="cls-8" x1="69.08" y1="104.42" x2="77.88" y2="104.19"/>
              <line class="cls-8" x1="69.81" y1="107.8" x2="78.48" y2="107.43"/>
            </g>
          </g>
          <path class="cls-3" d="M91.66,102.04c-.27-.86-1.53-.97-2.94-1.18-.44-.06-.79-.12-1.11-.2-.86.85-2.04,2.25-2.78,4.11-.7,1.74-.79,4.38-.72,6.45,2.58,1.39,4.35,1.67,4.35,1.67,0,0,3.47-10,3.19-10.86Z"/>
          <g>
            <path class="cls-8" d="M68.07,98.11s-2.13,2.15-3.36,4.95c-1.23,2.81.48,6.42,1.93,7.65"/>
            <path class="cls-8" d="M85.34,99.34s-2.46,2.06-3.3,4.39-.84,6.11-.84,6.11"/>
          </g>
        </g>
        <g>
          <path class="cls-1" d="M88.39,112.57s.3,3.18,2.52,5.64c2.22,2.46,4.93,3.53,5.81,5.09.88,1.57,3.69,2.06,6.29,1.83,2.6-.23,4.95-1.49,4.95-1.49l.31-12.29-.96-1.67-12.36-1.86-3.46,1.44-3.1,3.3Z"/>
          <path class="cls-9" d="M100.59,117.34c.09,0,2.78-.39,3.44-1.66,0,0,.77.38,2.03.42,1.26.04,1.26-4.74,1.26-4.74l-3.15-1.67h-5.13l-.46,5.03,2.01,2.62Z"/>
          <path class="cls-9" d="M99.9,113.92s4.41,5.28,5.07,7.23-1.28,1.81-3.11.69-4.8-6.56-4.8-6.56l.59-2.17,2.25.82Z"/>
          <g>
            <line class="cls-8" x1="90.91" y1="117.88" x2="95.55" y2="118.79"/>
            <path class="cls-8" d="M94.48,121.21s2.56.09,4.11.92"/>
          </g>
        </g>
        <g>
          <path class="cls-1" d="M95.56,99.34s-1.2.34-2.83.61c-1.62.27-2.6,1.66-3.9,3.99-1.3,2.33-1.89,6.02-1.41,7.91.48,1.89,3.29,3.31,5.37,3.82s3.48.13,3.48.13c0,0,4.11,1.03,4.55-.02.44-1.05.13-1.38.13-1.38,0,0,.75-.76.92-1.47.17-.71.1-1.26.1-1.26,0,0,.92-.55,1.13-1.39s-.27-1.64-.27-1.64c0,0,.99-.4,1.03-1.45.04-1.05-3.11-2.85-4.87-3.48-1.76-.63-3.73-.21-4.11-.8-.38-.59.17-1.45.48-2.16.31-.71.21-1.41.21-1.41Z"/>
          <g>
            <path class="cls-12" d="M95.85,106.85c0,.32-.26.57-.57.57s-.57-.26-.57-.57.26-.57.57-.57.57.26.57.57Z"/>
            <path class="cls-12" d="M94.94,109.85c0,.32-.26.57-.57.57s-.57-.26-.57-.57.26-.57.57-.57.57.26.57.57Z"/>
            <path class="cls-12" d="M94.61,112.58c0,.32-.26.57-.57.57s-.57-.26-.57-.57.26-.57.57-.57.57.26.57.57Z"/>
          </g>
          <g>
            <path class="cls-8" d="M102.47,105.7s-1.91-.07-3.02.28c-1.11.35-.75,1.46.48,1.98,1.22.52,2.48.42,3.52.21"/>
            <path class="cls-8" d="M100.54,108.17s-1.8-.44-2.66.82c-.86,1.26.8,2.04,2.16,2.18,1.36.13,2.11.33,2.93-.6"/>
            <path class="cls-8" d="M98.79,110.87s-1.74-.04-1.84,1.03c-.1,1.07,1.22,1.72,2.39,1.72s2.03.08,2.52-.67"/>
            <path class="cls-8" d="M98.47,113.5s-1.67.03-2.22.65c-.55.62-.32,1.52.57,1.79"/>
            <path class="cls-8" d="M90.16,108.86s.28,1.95,1.5,3.73"/>
          </g>
        </g>
        <g>
          <path class="cls-1" d="M119.6,107.79s-.19-.36-1.15,0c-.96.36-1.03,1.39-.84,2.06s-.23,3.17.04,5.08c.27,1.91,2.62,3.32,4.61,3.99s2.68-.9,2.71-2.83c0,0,1.7.34,2.1-1.59.4-1.93.11-4.3-.44-5.22-.55-.92-1.97-.44-1.97-.44,0,0-.63-1.03-1.11-1.38-.48-.34-1.16.15-1.16.15,0,0-.19-.94-1.23-.94s-1.57,1.09-1.57,1.09Z"/>
          <g>
            <path class="cls-8" d="M119.65,107.69s-.22,8.75.92,10.52"/>
            <path class="cls-8" d="M122.39,107.64s-.51,9.62,0,11.34"/>
            <path class="cls-8" d="M124.66,108.86s.19,6.15.31,7.24"/>
            <path class="cls-8" d="M117.84,110.29s2.5-1.07,3.63-.76c1.13.31,2.58.75,3.19.69"/>
            <line class="cls-8" x1="117.68" y1="112.36" x2="119.64" y2="112.36"/>
            <path class="cls-8" d="M119.72,113.1s1.56.25,2.34.09"/>
            <path class="cls-8" d="M122.28,113.92s1.85.61,2.54.4"/>
            <line class="cls-8" x1="124.96" y1="112.48" x2="127.03" y2="112.36"/>
          </g>
        </g>
        <g>
          <path class="cls-13" d="M126.23,88.83s9.77.33,14.17,1.64c4.39,1.31,3.59,5.05.46,6.58-3.13,1.53-16.36-.61-18.96-1.89-2.6-1.28,4.33-6.33,4.33-6.33Z"/>
          <g>
            <path class="cls-8" d="M123.99,93.65s3.38.15,4.89.76c1.51.61,3.07,2.84,3.07,2.84"/>
            <path class="cls-8" d="M130.89,89.29s-.15,4.13,3.55,4.94c3.71.8,6.23-2.12,6.34-3.41"/>
            <path class="cls-8" d="M138.07,93.82s.83,2.28,3.04,3.1"/>
            <line class="cls-8" x1="132.67" y1="93.41" x2="130.24" y2="95.16"/>
          </g>
        </g>
        <g>
          <g>
            <g>
              <polygon class="cls-1" points="169.83 111.27 172.05 100.35 175.74 100.35 175.74 113.5 169.83 111.27"/>
              <line class="cls-1" x1="170.63" y1="107.34" x2="175.57" y2="107.34"/>
              <line class="cls-1" x1="171.45" y1="104.01" x2="175.57" y2="104.01"/>
            </g>
            <path class="cls-1" d="M181.39,113.16c-4.01-1.18-22.5-5.82-22.5-5.82-.17-1.06-.89-2.06-3.07-2.06s-4.47,1.32-4.47,1.32c0,0-4.04-1.49-8.46-2.41s-4.96-.49-4.96-.49c0,0,.37-2.52-1.89-3.87-2.26-1.35-13.3-4.24-13.3-4.24,0,0,1.4-1.09,1.23-2.09s-1.52-2.52-1.52-2.52c0,0,3.24,1.32,4.9,0,1.66-1.32,2.55-5.99.77-7.19-1.78-1.2-4.59-.6-4.59-.6l-.29-1.58s-2.67.09-4.47.23c-1.81.14-2.38,1.35-2.38,1.35l-9.06-.43s-1.75,1.15-1.83,3.38c0,0-1.61-.11-2.12-.14-.52-.03-5.62,2.41-7.08,4.13-1.46,1.72-1.92,4.67-1.43,6.91h0c.14.8.67,2.32.67,2.32,0,0,.1.71-.21,1.41-.31.71-.86,1.57-.48,2.16.38.59,2.35.17,4.11.8,1.76.63,4.91,2.43,4.87,3.48-.04,1.05-1.03,1.45-1.03,1.45,0,0,.48.8.27,1.64-.06.26-.2.48-.35.68l2.74.32v19.08l9.21.31.08-11.89c2.6-.38,3.67-3.44,3.67-3.44,0,0,1.91.65,3.1,2.85,1.18,2.2,5.04.85,5.04.85l.08,1.41s.67.96,3.99.53c3.32-.42,2.97-2.61,2.97-2.61l3.89.83.15-2.22,17.28,5.37,2.44-6.42s18.06,5.22,22.79,6.68c4.73,1.46,7.74-.95,7.71-4.01-.03-3.07-2.47-4.3-6.48-5.47Z"/>
            <g>
              <path class="cls-1" d="M122.21,86.31c-.25,2.79-.17,5.12,3.3,5.24.67-.02,1.33-.18,1.85-.58,1.66-1.32,2.55-5.99.77-7.19-1.78-1.2-4.59-.6-4.59-.6,0,0-1.09.34-1.34,3.13Z"/>
              <path class="cls-5" d="M125.52,89.29c-.64-.03-.9-.17-.94-.21-.11-.13-.28-.63-.1-2.56.05-.58.14-.97.22-1.2.15-.01.31-.02.48-.02.66,0,1.23.11,1.58.3.32.76-.18,3.09-.8,3.61h0s-.11.07-.44.09Z"/>
            </g>
            <g>
              <path class="cls-1" d="M96.8,94.11c1.36-.76,7.61-2.94,8.33-4.72.73-1.78.39-3.26.39-3.26,0,0-1.61-.11-2.12-.14-.52-.03-5.62,2.41-7.08,4.13-1.46,1.72-1.92,4.67-1.43,6.91h0c.14.8.67,2.32.67,2.32-.29-1.78-.11-4.47,1.24-5.24Z"/>
              <path class="cls-1" d="M97.88,90.49c-.38-.7,2.72-3.34,3.71-3.77.99-.43,2.42.33.97,1.73-1.45,1.4-4.18,2.97-4.69,2.04Z"/>
            </g>
            <path class="cls-1" d="M115.49,85.68c-.88.05-1.7.52-1.59,1.83.11,1.31.63,2.09,1.85,2,1.22-.1,1.57-3.94-.27-3.82Z"/>
            <g>
              <path class="cls-1" d="M106.16,84.04s-.73,2.56.98,3.54c1.71.97,5.25,2.21,7.66,2.21s2.9.11,4.85.42c1.95.31,2.81.76,2.81.76"/>
              <path class="cls-1" d="M109.77,83.03s-2.01,2.42-1.13,5.12"/>
              <path class="cls-1" d="M112.62,83.2s-1.6,2.57-.71,6.09"/>
              <path class="cls-1" d="M116.41,83.18s-.95,1.51-1.43,2.59"/>
              <line class="cls-1" x1="115.7" y1="84.65" x2="122.38" y2="84.65"/>
              <line class="cls-1" x1="119.69" y1="81.93" x2="119.52" y2="84.47"/>
              <path class="cls-1" d="M118.74,84.65s.75,2.41.78,5.45"/>
              <polyline class="cls-1" points="112.13 89.64 111.55 91.99 104.92 90.02"/>
              <polyline class="cls-1" points="111.55 91.99 112.62 95.41 120.57 96.84 120.97 90.47"/>
              <line class="cls-1" x1="111.64" y1="91.87" x2="120.67" y2="93.65"/>
              <line class="cls-1" x1="115.6" y1="89.96" x2="115.2" y2="92.41"/>
              <line class="cls-1" x1="118.35" y1="90.25" x2="117.86" y2="92.92"/>
              <line class="cls-1" x1="122.75" y1="95.59" x2="120.83" y2="95.16"/>
              <line class="cls-1" x1="113.2" y1="97.51" x2="117.97" y2="98.85"/>
              <polyline class="cls-1" points="100.98 92.23 111.86 94.78 110.33 98.81 118.54 101.06 124.4 96.03"/>
            </g>
            <line class="cls-1" x1="100.79" y1="95.81" x2="106.01" y2="97.43"/>
            <polyline class="cls-1" points="105.47 114.37 110.08 115.28 114.26 112.48 117.52 113.1"/>
            <line class="cls-1" x1="114.76" y1="118.79" x2="114.76" y2="112.57"/>
            <line class="cls-1" x1="115.01" y1="115.68" x2="117.33" y2="114.37"/>
            <line class="cls-1" x1="111.5" y1="114.37" x2="111.5" y2="130.44"/>
            <polyline class="cls-1" points="105.47 117.08 111.5 118.97 114.64 118.97"/>
            <line class="cls-1" x1="105.47" y1="121.84" x2="114.64" y2="121.84"/>
            <line class="cls-1" x1="105.61" y1="124.91" x2="114.64" y2="124.91"/>
            <line class="cls-1" x1="105.61" y1="127.72" x2="114.49" y2="127.72"/>
            <polyline class="cls-1" points="113.48 112.89 113.48 107.52 116.96 104.77 95.55 99.07"/>
            <path class="cls-1" d="M103.66,107.89s2.31.72,2.87.36c.55-.36.61-1.24-.27-2.11-.88-.86-3.29-.2-3.24-.16"/>
            <path class="cls-1" d="M109.86,106.19c-.51-.02-1.06,1.39-.73,2.67.33,1.28,1.92.39,1.92-1.05,0-1.05-.66-1.59-1.19-1.61Z"/>
            <path class="cls-1" d="M154.13,112.73l24.39,6.71.69-2.64s-2.72.14-3.55-.4c-.83-.54-1.2-1.18-2.72-1.38s-3.38-.72-5.62-1.26c-2.24-.54-6.59-1.46-7.71-1.75-1.12-.29-5.47-1.49-5.47-1.49v1.81s-.75-1.55-1.63-1.55-.97.06-2.46-.66c-1.49-.72-12.21-3.24-12.81-3.24-.48,0,.39-1.94,1.85-3.27-.96-.05-1.13.09-1.13.09,0,0,.17-1.19-.44-2.36-1.01.09-2.46.38-3.83,1.28-2.41,1.58-2.15,5.68-1.89,6.99.26,1.32,1.81,4.32,1.81,4.32l-8.77-1.57-1.06,3.61,9.86,2.44,3.89.83.15-2.22,17.28,5.37,2.44-6.42-2.61-.69-.63-2.55Z"/>
            <path class="cls-1" d="M137.65,117.02s-.99-.1-1.45-1.85c-.46-1.76.19-6.98.98-8.86"/>
            <line class="cls-1" x1="154.76" y1="115.28" x2="154.76" y2="122.39"/>
            <g>
              <path class="cls-1" d="M135.72,103.55s-1.11,1.2-1.07,2.25"/>
              <line class="cls-1" x1="136.16" y1="111.36" x2="154.56" y2="116.37"/>
              <line class="cls-1" x1="136.16" y1="114.4" x2="154.76" y2="119.67"/>
            </g>
            <g>
              <path class="cls-1" d="M166.37,109.23s-2.57,1.39-3.4,3.54c-.83,2.16.62,5,.62,5"/>
              <path class="cls-1" d="M173.45,111.04s-2.64,1.31-3.39,3.59c-.75,2.27.57,5.04.57,5.04"/>
              <path class="cls-1" d="M180.52,112.91s-3.2,4.8-2.24,9.16"/>
              <path class="cls-1" d="M184.8,114.4s-1.77,1.11-2.66,4.15c-.89,3.04,1.24,4.52,1.24,4.52"/>
            </g>
            <path class="cls-1" d="M124.4,101.61c.19,0,4.48,1,4.48,1"/>
            <line class="cls-1" x1="131.65" y1="106.88" x2="118.35" y2="103.33"/>
            <g>
              <path class="cls-1" d="M151.35,106.59s-1.2,1.4-1.4,3.21"/>
              <path class="cls-1" d="M158.89,107.34s-3.64.49-4.76,3.18"/>
            </g>
          </g>
          <path class="cls-9" d="M184.29,118.23c-.37-.54-1.13-.66-1.81-.65-.12.3-.24.62-.34.96-.66,2.25.48,3.84,1.11,4.51.35-.02.69-.06,1-.13.25-1.43.58-3.92.04-4.7Z"/>
        </g>
        <g>
          <path class="cls-13" d="M116.41,83.18s.57-1.2,2.38-1.35c1.81-.14,4.47-.23,4.47-.23l.2,1.11c8.12.14,31.83-.67,39.93-5.72,9.47-5.91,16.34-6.54,17.66-10.15,1.31-3.61-2.24-8.25-10.55-9.57-8.31-1.32-25.11,1.78-33.42,6.48-6.74,3.81-23.67,14.57-29.82,18.5.07.32.1.51.1.51l9.06.43Z"/>
          <path class="cls-11" d="M172.82,57.76c.2,1.75.11,4.07-1.65,4.62-2.9.92,1.65,1.84,2.24,3.06.59,1.22-.88,2.18-1.6,4.09-.33.88-.59,2.21-.77,3.38,5.4-2.47,9.09-3.54,10.01-6.08,1.18-3.26-1.59-7.34-8.23-9.08Z"/>
          <g>
            <path class="cls-8" d="M140.11,62.25s4.25,4.24,5.97,5.33c1.72,1.09,13.47-2.12,15.36-3.9,1.89-1.78,4.59-4.5,4.99-6.72"/>
            <path class="cls-8" d="M162.43,62.73s3.99,3.08,8.87,2.45,5.23-4.47,4.48-6.39"/>
            <line class="cls-8" x1="173.41" y1="64.6" x2="176.08" y2="70.34"/>
            <path class="cls-8" d="M163.05,77.19s-2.64-2.61-4.42-3.47-11.06,1.64-11.29,1.74c-.23.1-2.87,2.79-3.38,3.08-.52.29,2.32,2.94,2.32,2.94"/>
            <path class="cls-8" d="M146.37,67.8s-2.01,4.14-2.87,4.59c-.86.46-30.61,8.25-35.54,10.26"/>
            <path class="cls-8" d="M123.26,81.6s2.12-2.32,9.4-2.41c7.28-.09,9.11.2,11.29-.66"/>
            <path class="cls-8" d="M143.5,72.4s3.53,3.15,3.84,3.05"/>
            <line class="cls-8" x1="158.63" y1="73.72" x2="172.04" y2="65.05"/>
          </g>
        </g>
        <g>
          <path class="cls-1" d="M99.93,132.25c.57-1.78-.9-5.62-3.4-6.82s-8.92-3.36-12.68-3.76c-3.75-.4-7.65-.37-8.74,1.55-1.09,1.92-2.06,6.48-1.32,8.68,0,0-1.29,2.78-1.95,4.67-.66,1.89.03,5.59,1,6.51,0,0-1.81,1.72-2.04,3.3-.23,1.58-1.55,5.07-4.67,8.4-3.12,3.32-7.51,3.67-8.83,4.76-1.32,1.09-1.89,5.04,2.01,6.02,3.9.97,8.23-1.09,9.14-1.66.92-.57,1.95-.77,3.93-.77h4.27v-2.95s2.15-1.12,2.35-4.33c.2-3.21-.54-6.65-.54-6.65l2.21-1.72,1.03,1.38,4.39-2.84,2.29,1.43,1-3.3,2.98.06-1.61-3.53,3.07-4.27s4.67.32,6.1-4.16Z"/>
          <path class="cls-3" d="M80.17,128.12c.37-2.99-.02-6.33-2.99-6.29-.95.27-1.69.71-2.07,1.38-1.09,1.92-2.06,6.48-1.32,8.68,0,0,2.18,2.9,2.71,3.4.53.5,3.29-4.09,3.67-7.18Z"/>
          <g>
            <path class="cls-8" d="M93.83,136.4s-6.43-4.92-6.93-5.07c-.5-.15-2.45,1.03-4.28.61-1.83-.42-2.34-6.12-2.34-6.12"/>
            <path class="cls-8" d="M82.43,121.54s.91,6.57,4.24,9.79"/>
            <path class="cls-8" d="M86.45,131.11s1.21-.99,2.74-.67,2.05,1.73,5.28,2.46c3.24.73,5.79-1.17,5.09-3.85"/>
            <path class="cls-8" d="M86.67,122.16s2.3,4.49,2.53,8.28"/>
            <path class="cls-8" d="M82.15,131.68s1.05,2.47,1.09,5.15c.04,2.68-6.1,6.57-10.39,6.25"/>
            <path class="cls-8" d="M78.46,149.19s-6.45,7.69-11.98,5.22"/>
            <path class="cls-8" d="M78.19,149.19s-.6-.35-.15-2.07c.45-1.72,5-4.28,6.51-6.65,1.51-2.37,3.23-5.89,6.77-5.96"/>
            <path class="cls-8" d="M80.06,140.83s.34,2.95,0,3.91"/>
            <path class="cls-8" d="M72.04,144.51s2.35,2.06,2.78,3.12"/>
            <path class="cls-8" d="M70.47,147.76s1.35,1.29,1.83,1.97"/>
            <path class="cls-8" d="M69.49,163.42s-.23-1.83,1.24-2.71c1.46-.89,4.87-.11,5.93-.54"/>
            <path class="cls-8" d="M56.53,163.26s7.48-.36,10.12-2.93"/>
            <path class="cls-8" d="M73.96,153.11s.82,2.22.86,2.98"/>
          </g>
        </g>
        <g>
          <path class="cls-9" d="M115.65,136.24s2.01,3.23,7.44,1.55c5.43-1.68,11.08-3.49,12.08-6.26s-6.65-4.52-6.65-4.52l-7.53-.46-3.47,3.76s-1.73,3.77-1.62,4.15c.11.38-.26,1.77-.26,1.77Z"/>
          <path class="cls-1" d="M115.87,136.53c-1.36-1.53-1.75-6.63.09-9.21s8.05-5.33,13.61-5.79,12.5-.09,15.62,1.35c0,0,1.15-.72,3.53.11s5.93,3.96,7.19,6.36c1.26,2.41,0,4.27,0,4.27,0,0,4.84,6.22,6.25,8.51,1.4,2.29,2.58,3.15,4.73,4.7,2.15,1.55,2.46,2.49,4.3,3.38,1.83.89,4.36,3.93,5.27,4.96.92,1.03,3.47,3.58,4.33,4.84.86,1.26.69,3.41-.63,3.67-1.32.26-6.88.77-9.32-1.09-2.44-1.86-4.44-5.85-5.9-6.02-1.46-.17-4.18.11-6.02,0-1.83-.11-2.18-1.15-1.83-2.38.34-1.23,1.58-4.24,1.58-4.24,0,0-1.55-.37-1.98-1.98-.43-1.61-.43-3.5-2.41-4.44-1.98-.95-4.79-1.75-5.19-4.04-.4-2.29-.46-4.53-1.29-6.02-.83-1.49-1.95-2.52-2.52-3.98l-3.07.83s-.83,2.81-4.13,3.1c-3.3.29-6.74-1.43-6.74-1.43,0,0-3.15,1.03-4.13.97s.17-2.67,1.03-3.81c0,0-3.38,3.41-5.7,3.67-2.32.26-3.64-1.2-3.64-1.2,0,0-.66,2.24,2.67,3.53,0,0-3.37.32-4.63-2.28,0,0,.06,4.94-1.07,3.67Z"/>
          <g>
            <path class="cls-3" d="M151.95,135.26c3.44.11,3.71-1.16,3.96-1.63,0,0,1.26-1.86,0-4.27-1.26-2.41-4.82-5.53-7.19-6.36-2.38-.83-3.53-.11-3.53-.11-1.52,2.64.09,6.62.09,6.62.41,1.04,1.09,1.87,1.75,2.79h0s0,0,0,.01c.12.16.23.34.34.52.62.83,2.08,2.36,4.58,2.44Z"/>
            <g>
              <path class="cls-8" d="M149.4,129.64s1.61,1.83,3.32,1.89c1.72.06,2.52-1.75,2.46-3.01"/>
              <path class="cls-8" d="M147.48,122.85s-.57,2.58.26,4.73"/>
            </g>
          </g>
          <path class="cls-8" d="M118.91,131.62s-.4-1.99,0-3.21"/>
          <path class="cls-8" d="M136.91,121.53s-3.74,8.37-5.82,10.55"/>
          <path class="cls-8" d="M139.52,121.7s-3.11,7.77-3.21,8.33c-.1.56,3.06.46,4.13-1.91"/>
          <path class="cls-8" d="M142.72,122.1s-.45,2.6-.87,3.44"/>
          <path class="cls-8" d="M153.87,135.14s-3.3,4.99-2.23,7.19"/>
          <path class="cls-8" d="M158.86,142.22s-1.64,2.96-2.54,3.65"/>
          <path class="cls-8" d="M158.66,149.96s6.49,1.3,10.17-1.49"/>
          <path class="cls-8" d="M163.24,150.26s.08,5.28.61,6.15"/>
          <path class="cls-8" d="M163.54,153.06s2.68.46,4.98,2.21,2.87,4.3,5.96,5.33c3.1,1.03,5.04.1,5.71-1.34"/>
        </g>
      </g>
    </g>
    <g>
      <path class="cls-12" d="M72.29,77.7c.06-.04,1.74-2.69,1.74-2.69l.39.5-1.17,2.37-.96-.18Z"/>
      <polygon class="cls-12" points="183.68 161.32 183.52 159.4 184.55 160.49 183.77 161.8 183.68 161.32"/>
      <polygon class="cls-12" points="177.65 153.1 176.46 151.77 179.81 152.05 178 153.06 177.65 153.1"/>
    </g>
    <g>
      <polygon class="cls-9" points="180.8 178.9 175.89 179.4 180.1 178.03 171.06 166.87 176.24 157.8 172.53 153.45 156.31 182.01 161.94 183.14 165.5 176.52 169.77 175.33 166.32 177.49 178.46 191.76 183.68 182.45 180.8 178.9"/>
      <polygon class="cls-3" points="173.85 151.41 180.69 139.87 186.76 147.49 191.12 139.77 194.21 139.05 190.12 139.09 184.7 132.68 190.22 123.3 206.78 142.78 201.25 151.97 194.95 144.77 190.48 151.75 193.2 155.02 189.75 156.23 193.58 155.76 196.98 159.63 191.51 168.88 178.16 152.8 181.39 152.05 173.85 151.41"/>
      <polygon class="cls-7" points="191.35 121.29 207.76 92.63 209.51 100.9 201.71 113.78 204.36 117.01 211.33 104.9 215.08 104.28 223.63 113.79 207.94 140.3 206.67 132.17 214.35 118.8 214.52 113.06 213.79 117.92 211.53 115.23 204.39 127.86 200.58 128.57 195.32 122.49 199.36 121.8 191.35 121.29"/>
    </g>
    <g>
      <path class="cls-4" d="M23.95,111.16l-5.11-2.95-1.05,1.83-1.04-.6,2.82-4.89,1.04.6-1.05,1.82,5.11,2.95-.72,1.24Z"/>
      <path class="cls-4" d="M26.43,106.86l-6.15-3.55.72-1.24,2.42,1.4,1.41-2.43-2.42-1.4.72-1.24,6.15,3.55-.72,1.24-2.69-1.55-1.41,2.43,2.69,1.55-.72,1.24Z"/>
      <path class="cls-4" d="M30.26,100.22l-6.15-3.55,2.63-4.56,1.04.6-1.92,3.32,1.36.79,1.78-3.09,1.04.6-1.78,3.09,1.67.97,1.98-3.44,1.04.6-2.7,4.68Z"/>
      <path class="cls-4" d="M35.45,91.23l-6.15-3.55.72-1.24,2.42,1.4,1.41-2.43-2.42-1.4.72-1.24,6.15,3.55-.72,1.24-2.69-1.55-1.41,2.43,2.69,1.55-.72,1.24Z"/>
      <path class="cls-4" d="M36.1,83.1c-.63-.36-1.1-.76-1.41-1.19-.23-.32-.4-.67-.51-1.06s-.14-.76-.09-1.11c.06-.48.23-.97.52-1.47.52-.91,1.22-1.47,2.1-1.69.88-.22,1.82-.04,2.82.54.99.57,1.61,1.29,1.86,2.16.25.86.11,1.75-.41,2.65-.53.91-1.23,1.48-2.1,1.7-.87.22-1.79.04-2.77-.52ZM36.79,81.79c.7.4,1.32.55,1.86.43.54-.11.96-.42,1.25-.91.29-.5.34-1,.17-1.53-.17-.52-.62-.99-1.33-1.4-.71-.41-1.32-.56-1.84-.45-.53.11-.94.42-1.23.93-.29.51-.36,1.03-.19,1.54.17.52.61.98,1.32,1.39Z"/>
      <path class="cls-4" d="M43.39,77.49l-6.15-3.55,1.51-2.61c.38-.66.71-1.1.99-1.34.28-.23.62-.36,1-.38.39-.02.76.08,1.12.29.46.27.76.62.91,1.07.14.44.1.96-.13,1.54.31-.18.61-.3.9-.37.29-.07.76-.11,1.41-.13l1.63-.06-.86,1.48-1.86.13c-.66.04-1.09.09-1.28.13-.19.05-.35.12-.47.23-.12.11-.27.3-.43.59l-.15.25,2.57,1.48-.72,1.24ZM40.55,74.2l.53-.92c.34-.6.53-.98.57-1.16.04-.18.02-.34-.06-.5-.08-.15-.2-.29-.39-.39-.21-.12-.41-.16-.6-.12-.19.04-.36.15-.51.33-.07.09-.25.39-.54.89l-.56.97,1.56.9Z"/>
      <path class="cls-4" d="M47.22,70.84l-6.15-3.55.7-1.21,5.56-.15-4.11-2.37.67-1.15,6.15,3.55-.72,1.25-5.44.16,4.01,2.32-.67,1.15Z"/>
      <path class="cls-4" d="M51.05,64.22l-6.15-3.55,2.63-4.56,1.04.6-1.92,3.32,1.36.79,1.78-3.09,1.04.6-1.78,3.09,1.67.97,1.98-3.44,1.04.6-2.7,4.68Z"/>
      <path class="cls-4" d="M55.4,56.67l-5.11-2.95-1.05,1.83-1.04-.6,2.82-4.89,1.04.6-1.05,1.82,5.11,2.95-.72,1.24Z"/>
      <path class="cls-4" d="M57.33,48.71l.58-1.28c.45.16.83.19,1.15.07.32-.11.59-.36.8-.74.23-.4.32-.75.27-1.05-.05-.3-.19-.52-.42-.65-.15-.08-.29-.11-.45-.09-.15.03-.33.12-.52.29-.13.12-.42.4-.84.84-.55.57-1.02.92-1.42,1.05-.56.18-1.08.13-1.56-.15-.31-.18-.56-.44-.73-.77-.17-.34-.23-.71-.18-1.13.05-.42.21-.86.49-1.33.45-.77.95-1.26,1.51-1.45.56-.19,1.13-.14,1.71.17l-.66,1.27c-.35-.13-.64-.15-.88-.05-.24.1-.46.32-.66.67-.21.36-.3.69-.27.98.02.19.11.33.27.42.15.08.3.09.48.03.22-.08.58-.38,1.07-.9.49-.52.9-.88,1.22-1.08.32-.2.66-.31,1.02-.32.36-.01.73.1,1.12.32.35.2.63.49.82.87.19.37.26.78.21,1.23-.06.44-.24.93-.55,1.47-.45.78-.97,1.27-1.57,1.48-.6.21-1.27.16-2-.16Z"/>
      <path class="cls-4" d="M65.15,37.98c.39-.18.76-.41,1.09-.69l.61.96c-.16.15-.35.29-.55.42-.04.03-.38.2-1.02.51-.06.5-.23,1-.51,1.49-.54.95-1.25,1.53-2.12,1.74-.87.21-1.8.03-2.81-.55-1-.58-1.63-1.3-1.88-2.16-.25-.86-.11-1.75.42-2.67.53-.91,1.22-1.47,2.09-1.69.87-.21,1.8-.03,2.81.55.53.31.96.65,1.27,1.03.24.29.44.64.58,1.05ZM63.88,38.57c-.09-.27-.25-.52-.47-.75-.22-.23-.5-.45-.85-.65-.71-.41-1.33-.56-1.86-.45-.53.11-.94.42-1.24.93-.29.51-.35,1.02-.18,1.54.17.52.61.98,1.32,1.39.72.42,1.35.57,1.89.46.54-.11.95-.4,1.22-.88.1-.18.17-.37.2-.56-.31.16-.59.34-.83.55l-.51-.76c.38-.33.81-.6,1.3-.81Z"/>
      <path class="cls-4" d="M61.03,32.73l.72-1.24,3.33,1.92c.53.31.88.49,1.05.55.28.09.56.08.83-.03.27-.11.5-.34.7-.69.2-.35.29-.66.24-.92s-.16-.47-.34-.63c-.19-.16-.53-.38-1.01-.66l-3.4-1.96.72-1.24,3.23,1.86c.74.43,1.24.76,1.51,1,.27.24.45.52.56.82.11.3.13.64.08,1.01-.05.37-.21.8-.5,1.29-.34.59-.66.99-.97,1.22-.31.23-.63.36-.94.41-.32.05-.61.04-.88-.05-.4-.12-.94-.38-1.63-.78l-3.28-1.89Z"/>
      <path class="cls-4" d="M74.2,24.1l-.78,1.35-1.71-.27-1.42,2.46,1.1,1.31-.76,1.32-4.77-5.95.76-1.31,7.57,1.09ZM70.45,24.99l-2.77-.47,1.8,2.15.97-1.68Z"/>
      <path class="cls-4" d="M68.69,19.46l1.31-2.27c.3-.51.56-.88.79-1.1.31-.3.68-.5,1.1-.6.42-.1.87-.1,1.34-.01.47.09.99.31,1.57.64.51.29.91.61,1.2.94.36.41.59.84.71,1.29.08.34.08.72-.01,1.16-.07.32-.24.72-.5,1.17l-1.35,2.34-6.15-3.55ZM70.45,18.81l4.07,2.35.54-.93c.2-.35.33-.61.37-.78.07-.23.08-.45.03-.65-.04-.2-.18-.42-.41-.67-.23-.24-.58-.5-1.05-.78s-.87-.44-1.17-.51-.57-.06-.8,0c-.23.07-.44.2-.62.41-.14.15-.35.48-.65.99l-.32.56Z"/>
    </g>
    <g>
      <path class="cls-4" d="M184.98,28.51l5.11-2.95-1.05-1.83,1.04-.6,2.82,4.89-1.04.6-1.05-1.82-5.11,2.95-.72-1.24Z"/>
      <path class="cls-4" d="M187.45,32.79l6.15-3.55.72,1.24-2.42,1.4,1.41,2.43,2.42-1.4.72,1.24-6.15,3.55-.72-1.24,2.69-1.55-1.4-2.43-2.69,1.55-.72-1.24Z"/>
      <path class="cls-4" d="M191.29,39.43l6.15-3.55,2.63,4.56-1.04.6-1.92-3.32-1.36.79,1.78,3.09-1.04.6-1.78-3.09-1.67.97,1.98,3.44-1.04.6-2.7-4.68Z"/>
      <path class="cls-4" d="M196.48,48.42l6.15-3.55.72,1.24-2.42,1.4,1.41,2.43,2.42-1.4.72,1.24-6.15,3.55-.72-1.24,2.69-1.55-1.41-2.43-2.69,1.55-.72-1.24Z"/>
      <path class="cls-4" d="M200.28,55l6.15-3.55.72,1.24-6.15,3.55-.72-1.24Z"/>
      <path class="cls-4" d="M202.83,59.43l4.88-5.75.78,1.35-3.65,4.18,5.42-1.12.76,1.32-7.42,1.35-.77-1.33Z"/>
      <path class="cls-4" d="M205.48,64.02l6.15-3.55,2.63,4.56-1.04.6-1.92-3.32-1.36.79,1.78,3.09-1.04.6-1.78-3.09-1.67.97,1.98,3.44-1.04.6-2.7-4.68Z"/>
      <path class="cls-4" d="M212.49,71.53l.81,1.14c-.36.31-.58.63-.64.96-.06.33.02.69.23,1.06.23.4.49.65.78.76.29.1.54.09.77-.04.15-.08.24-.2.3-.34.05-.14.05-.34,0-.6-.03-.17-.14-.56-.31-1.15-.22-.76-.29-1.34-.2-1.75.12-.57.42-1,.91-1.28.31-.18.66-.26,1.03-.24.37.02.73.16,1.07.41.33.25.64.61.91,1.09.45.77.61,1.45.5,2.04-.11.59-.45,1.05-1,1.4l-.77-1.21c.29-.24.45-.48.48-.74.04-.25-.04-.56-.25-.91-.21-.36-.45-.6-.71-.72-.17-.08-.34-.07-.5.02-.15.08-.23.22-.27.4-.04.23.04.69.25,1.38.21.69.32,1.22.33,1.6.01.38-.06.72-.23,1.04-.17.32-.45.59-.84.81-.35.2-.74.3-1.16.28-.42-.02-.81-.16-1.17-.43-.36-.27-.69-.67-1-1.21-.45-.78-.61-1.48-.5-2.1.12-.62.5-1.18,1.14-1.65Z"/>
      <path class="cls-4" d="M217.86,83.65c-.04.43-.02.86.05,1.29l-1.14.05c-.05-.22-.08-.45-.09-.68,0-.05.02-.43.07-1.14-.41-.3-.75-.7-1.04-1.19-.55-.95-.7-1.85-.45-2.7.25-.86.87-1.58,1.88-2.16,1-.58,1.94-.76,2.81-.55.87.21,1.57.78,2.1,1.7.53.91.66,1.8.41,2.65-.25.86-.88,1.57-1.88,2.15-.53.31-1.04.5-1.53.59-.37.07-.77.06-1.2-.02ZM217.98,82.25c.28.05.58.04.89-.03.31-.07.64-.21.98-.41.71-.41,1.15-.87,1.32-1.39.17-.52.11-1.03-.18-1.53-.29-.51-.71-.81-1.24-.93-.53-.11-1.15.04-1.86.45-.72.42-1.16.88-1.34,1.4-.17.52-.12,1.02.15,1.5.1.18.23.33.38.46.02-.35,0-.68-.06-.99l.91-.06c.1.49.11,1,.05,1.53Z"/>
      <path class="cls-4" d="M224.48,82.72l.72,1.24-3.33,1.92c-.53.31-.86.52-1,.64-.22.2-.35.44-.39.73-.04.29.04.61.25.95.2.35.43.58.68.67.25.1.49.1.72.02.23-.08.59-.27,1.08-.55l3.4-1.96.72,1.24-3.23,1.87c-.74.43-1.28.69-1.62.8-.34.11-.67.13-.99.07-.31-.06-.62-.2-.92-.43-.3-.23-.59-.59-.87-1.08-.34-.59-.53-1.07-.57-1.45-.04-.38,0-.72.11-1.02.11-.3.27-.55.48-.74.31-.28.8-.63,1.49-1.02l3.28-1.89Z"/>
      <path class="cls-4" d="M225.37,98.46l-.78-1.35,1.09-1.34-1.42-2.46-1.69.3-.76-1.32,7.53-1.16.76,1.31-4.73,6.01ZM226.48,94.77l1.79-2.17-2.76.49.97,1.68Z"/>
      <path class="cls-4" d="M232.15,96.01l1.31,2.27c.3.51.48.92.56,1.24.1.42.09.84-.03,1.25-.12.41-.34.8-.66,1.16-.32.36-.76.71-1.34,1.04-.51.29-.98.48-1.42.57-.54.1-1.03.09-1.47-.03-.33-.09-.67-.29-.99-.59-.25-.22-.5-.57-.76-1.02l-1.35-2.34,6.15-3.55ZM231.83,97.85l-4.07,2.35.54.93c.2.35.36.59.49.72.17.17.35.29.54.35.2.06.46.06.78-.02s.72-.25,1.2-.52c.48-.27.82-.53,1.02-.76.21-.23.34-.46.39-.7.05-.23.04-.48-.04-.74-.06-.2-.24-.55-.53-1.05l-.32-.56Z"/>
    </g>
    <g>
      <path class="cls-4" d="M95.68,208.64h-1.56l-.62-1.61h-2.84l-.59,1.61h-1.52l2.77-7.1h1.52l2.84,7.1ZM93.04,205.83l-.98-2.64-.96,2.64h1.94Z"/>
      <path class="cls-4" d="M96.9,208.64v-7.1h1.43v7.1h-1.43Z"/>
      <path class="cls-4" d="M100.2,208.64v-7.1h3.02c.76,0,1.31.06,1.65.19.34.13.62.35.83.68.21.33.31.7.31,1.12,0,.53-.16.97-.47,1.32-.31.35-.78.57-1.41.66.31.18.57.38.77.6.2.22.47.6.82,1.15l.87,1.39h-1.71l-1.04-1.54c-.37-.55-.62-.9-.76-1.04-.14-.14-.28-.24-.43-.3-.15-.05-.39-.08-.72-.08h-.29v2.96h-1.43ZM101.63,204.54h1.06c.69,0,1.12-.03,1.29-.09.17-.06.3-.16.4-.3.1-.14.15-.32.15-.53,0-.24-.06-.43-.19-.58-.13-.15-.31-.24-.54-.28-.12-.02-.46-.02-1.05-.02h-1.12v1.8Z"/>
      <path class="cls-4" d="M107.49,206.33l1.39-.14c.08.47.25.81.51,1.03.26.22.6.33,1.04.33.46,0,.81-.1,1.04-.29.23-.2.35-.42.35-.69,0-.17-.05-.31-.15-.43-.1-.12-.27-.22-.52-.31-.17-.06-.55-.16-1.15-.31-.77-.19-1.31-.42-1.62-.7-.44-.39-.65-.87-.65-1.43,0-.36.1-.7.31-1.02.2-.31.5-.55.89-.72.39-.16.85-.25,1.4-.25.89,0,1.56.2,2.01.59.45.39.69.91.71,1.56l-1.43.06c-.06-.37-.19-.63-.39-.79-.2-.16-.5-.24-.91-.24s-.74.09-.98.26c-.15.11-.23.26-.23.44,0,.17.07.31.21.43.18.15.62.31,1.32.47.7.17,1.21.33,1.55.51.33.18.6.42.79.72.19.3.28.68.28,1.13,0,.41-.11.79-.34,1.14-.23.35-.55.62-.96.79-.41.17-.93.26-1.54.26-.9,0-1.59-.21-2.07-.62-.48-.41-.77-1.02-.86-1.81Z"/>
      <path class="cls-4" d="M114.68,205.14c0-.72.11-1.33.33-1.82.16-.36.38-.69.66-.97.28-.29.58-.5.92-.64.44-.19.95-.28,1.53-.28,1.05,0,1.88.32,2.51.97.63.65.94,1.55.94,2.71s-.31,2.04-.93,2.69c-.62.65-1.46.97-2.5.97s-1.9-.32-2.52-.97c-.62-.64-.94-1.53-.94-2.66ZM116.15,205.09c0,.8.19,1.41.56,1.83.37.42.84.62,1.41.62s1.04-.21,1.41-.62c.37-.41.55-1.03.55-1.85s-.18-1.42-.54-1.82c-.36-.4-.83-.6-1.42-.6s-1.07.2-1.43.61c-.36.41-.54,1.02-.54,1.83Z"/>
      <path class="cls-4" d="M123.19,208.64v-7.1h4.87v1.2h-3.43v1.68h2.96v1.2h-2.96v3.02h-1.43Z"/>
      <path class="cls-4" d="M131.33,208.64v-5.9h-2.11v-1.2h5.64v1.2h-2.1v5.9h-1.43Z"/>
      <path class="cls-4" d="M141.14,208.64v-5.9h-2.11v-1.2h5.64v1.2h-2.1v5.9h-1.43Z"/>
      <path class="cls-4" d="M146.1,208.64v-7.1h5.27v1.2h-3.83v1.57h3.57v1.2h-3.57v1.93h3.97v1.2h-5.4Z"/>
      <path class="cls-4" d="M159.62,208.64h-1.56l-.62-1.61h-2.84l-.59,1.61h-1.52l2.77-7.1h1.52l2.84,7.1ZM156.98,205.83l-.98-2.64-.96,2.64h1.94Z"/>
      <path class="cls-4" d="M160.86,208.64v-7.1h2.15l1.29,4.84,1.27-4.84h2.15v7.1h-1.33v-5.59l-1.41,5.59h-1.38l-1.41-5.59v5.59h-1.33Z"/>
    </g>
  </g>
</svg>