<svg width="4297" height="4492" viewBox="0 0 4297 4492" fill="none" xmlns="http://www.w3.org/2000/svg">
<path fill-rule="evenodd" clip-rule="evenodd" d="M1896.23 10.8836C1847.33 33.1463 1822.55 78.2604 1829.75 131.92C1835.04 171.377 1847.02 183.292 1964.1 265.503C2022.57 306.564 2032.1 343.108 1990.97 368.532C1947.66 395.306 1898.02 375.361 1874.82 321.855C1858.23 283.612 1851.71 295.997 1851.71 365.787C1851.71 427.945 1851.71 427.945 1882.91 427.119C1900.07 426.662 1926.42 428.254 1941.47 430.655C2022.63 443.605 2095.35 385.625 2095.35 307.961C2095.35 248.797 2068.39 215.397 1981.19 166.545C1899.39 120.712 1887.11 53.3113 1960.55 53.3113C1992.65 53.3113 2010.31 65.8393 2024.34 98.5798C2031.21 114.608 2039.35 124.628 2045.5 124.628C2054.97 124.628 2054.35 21.1473 2044.78 5.68336C2038.6 -4.3248 1920.55 -0.188411 1896.23 10.8836ZM2405.82 16.9396C2226.42 78.92 2229.16 392.626 2409.46 433.835C2493.98 453.15 2536.49 429.693 2544.78 359.154C2549.44 319.544 2542.97 317.57 2516.49 350.513C2428.16 460.448 2328.75 326.616 2377.31 163.139C2415.71 33.8595 2525.57 19.2633 2544.15 140.972C2551.36 188.225 2564.87 170.212 2579.03 94.4493C2591.7 26.6446 2591.79 27.4054 2571.66 31.4348C2560.23 33.7169 2545.5 30.1154 2526.09 20.2915C2491.24 2.64649 2450.47 1.51139 2405.82 16.9396ZM1688.3 39.3688C1489.96 81.226 1448.64 97.1237 1491.56 115.06C1515.57 125.092 1517.43 130.054 1543.08 252.405C1584.44 449.655 1583.98 445.454 1566.31 467.925C1545.22 494.74 1559.35 495.97 1653.7 475.538C1828.66 437.65 1814.5 448.289 1806.24 360.866C1801.5 310.593 1792.2 309.072 1775.17 355.784C1760.7 395.49 1749.05 405.302 1701.72 417.664C1664.19 427.464 1665.87 429.942 1647.09 337.343C1635.06 278.061 1634.12 282.132 1661.74 273.853C1683.39 267.369 1687.24 267.904 1701.85 279.451C1722.34 295.646 1725.5 284.949 1715.06 234.653C1706.88 195.226 1699.89 189.711 1683.18 209.472C1649.81 248.952 1629.21 237.38 1614.96 171.163C1600.19 102.526 1600.72 101.046 1641.96 94.6098C1673.77 89.6473 1698.48 100.333 1720.79 128.699C1741.79 155.413 1750.7 143.438 1741.01 101.498C1725.55 34.5252 1723.37 31.9697 1688.3 39.3688ZM2671.75 54.4167C2671.75 58.2916 2677.61 67.7054 2684.78 75.3363C2700.71 92.2919 2700.43 93.8431 2649.74 267.292C2610.76 400.714 2600.77 424.932 2582.34 430.786C2565.62 436.087 2570 453.964 2588.62 456.425C2596.76 457.506 2627.19 465.006 2656.26 473.101C2715.32 489.545 2731.43 485.997 2708.51 461.595C2701.36 453.988 2695.52 442.577 2695.52 436.242C2695.52 424.914 2728.71 303.402 2732.97 299.147C2734.96 297.156 2832.61 325.956 2837.07 329.843C2850.22 341.307 2790.85 473.208 2768.76 481.605C2740.84 492.226 2755.31 504.855 2819.91 526.25C2888.61 549 2901.55 547.193 2883.9 517.312C2875.72 503.446 2874.97 496.713 2880.13 483.198C2883.67 473.933 2901.2 419.554 2919.1 362.352C2970.01 199.654 2978.71 180.897 3004.98 177.171C3022.34 174.705 3027.64 155.764 3012.38 150.742C3006.42 148.775 2978.44 138.089 2950.21 126.988C2883.6 100.797 2859.02 103.073 2888.64 132.693C2893.54 137.596 2897.52 145.144 2897.49 149.464C2897.42 157.69 2857.34 273.806 2853.11 278.037C2851.77 279.38 2827.64 274.162 2799.51 266.442C2748.35 252.405 2748.35 252.405 2752.02 231.604C2764.64 160.073 2789.5 106.799 2810.25 106.799C2822.61 106.799 2829.19 95.4834 2821.37 87.6623C2806.9 73.1909 2671.75 43.1546 2671.75 54.4167ZM1227.31 168.435C1202.54 178.663 1173.8 190.139 1163.43 193.942C1141.14 202.12 1137.79 219.718 1158.53 219.718C1185.38 219.718 1196.49 239.235 1248.42 377.542C1300.2 515.439 1312.11 559.341 1299.78 566.954C1288.47 573.943 1291.96 594.132 1304.47 594.132C1318.56 594.132 1513.15 517.84 1523.59 508.225C1534.79 497.913 1514.16 395.906 1500.35 393.297C1492.94 391.901 1489.67 398.135 1486.41 419.922C1479.69 464.745 1468.54 480.506 1432.19 496.582C1389.93 515.273 1391.76 515.844 1378.05 479.727C1264.31 180.042 1269.13 195.702 1284.42 175.495C1308.08 144.205 1291.08 142.101 1227.31 168.435ZM3081.76 195.743C3081.76 198.899 3086.07 210.518 3091.34 221.56C3108.14 256.802 2970.78 531.046 2932.49 538.707C2909.46 543.312 2901.22 570.359 2922.84 570.359C2926.24 570.359 2972.84 591.755 3026.4 617.904C3142.13 674.411 3127.69 672.86 3163.55 632.613C3216.91 572.749 3220.02 550.111 3171.14 577.402C3126.91 602.101 3105.96 603.861 3067.26 586.144C3049.09 577.824 3034.23 569.355 3034.23 567.323C3034.23 560.221 3102.6 439.802 3106.68 439.707C3123.54 439.32 3153.07 466.112 3153.07 481.802C3153.07 516.468 3174.63 503.702 3198.89 454.677C3222.79 406.354 3221.79 397.838 3193.47 408.529C3177.87 414.419 3170.82 413.735 3149.36 404.238C3123.83 392.941 3123.83 392.941 3150.74 340.505C3185.02 273.693 3182.84 275.375 3214.66 291.272C3245.24 306.546 3248.68 312.037 3253.56 353.378C3258.78 397.6 3271.15 395.247 3295.24 345.444C3319.21 295.902 3320.05 297.524 3252.15 262.894C3133.89 202.578 3081.76 182.033 3081.76 195.743ZM880.971 353.437C879.093 358.34 872.016 362.352 865.248 362.352C786.822 362.352 728.932 482.628 775.139 549.559C802.361 588.985 830.034 600.164 915.401 606.214C1002.12 612.365 1026.43 620.585 1037.59 647.548C1062.57 707.853 974.734 748.759 916.209 704.079C871.6 670.025 869.336 692.775 911.17 754.69C940.317 797.819 952.356 804.458 964.936 784.31C969.172 777.523 978.793 772.424 987.356 772.424C1068.82 772.424 1138.34 661.829 1101.39 591.024C1075.79 541.969 1037.9 524.348 942.408 517.098C867.946 511.446 864.529 510.554 843.012 491.18C791.855 445.115 871.672 386.742 933.632 424.908C976.499 451.314 978.032 438.167 938.498 383.2C910.374 344.094 888.833 332.951 880.971 353.437ZM3409.7 363.623C3404.67 368.645 3406.09 375.432 3415.27 390.29C3429.48 413.29 3439.8 397.309 3310.76 552.245C3214.85 667.404 3212.12 670.174 3192.15 672.414C3163.02 675.683 3168.32 686.975 3212.35 715.466C3267.31 751.023 3273.25 750.595 3257.38 712.251C3254.63 705.582 3264.99 688.841 3290.88 658.174C3311.5 633.748 3347.08 590.839 3369.95 562.83C3392.83 534.814 3412.14 512.492 3412.87 513.229C3413.6 513.96 3400.7 553.19 3384.21 600.402C3346.4 708.685 3325.6 773.286 3325.49 782.825C3325.27 800.791 3360.14 780.917 3494.75 686.339C3598.61 613.37 3598.33 611.224 3502.44 744.058C3437.48 834.054 3438.14 833.388 3412.67 834.232C3385.12 835.142 3387.46 845.453 3421.76 874.378C3487.15 929.524 3519.05 942.272 3502.89 906.815C3495.46 890.507 3492.41 895.898 3565.88 795.638C3588.85 764.282 3627.71 710.277 3652.22 675.629C3692.94 618.076 3698.59 612.478 3717.59 610.814C3751.42 607.848 3744.82 591.024 3696.79 557.826C3644.62 521.763 3642.88 521.822 3585.99 561.695C3560.14 579.809 3536.42 593.044 3533.28 591.101C3530.14 589.157 3528.74 591.053 3530.16 595.309C3531.67 599.801 3516.67 613.702 3494.44 628.441C3473.37 642.407 3456.13 651.328 3456.13 648.261C3456.13 639.834 3515.75 468.626 3524.89 450.802C3535.96 429.217 3519.12 414.3 3422.91 360.503C3419.35 358.512 3413.4 359.915 3409.7 363.623ZM2140.02 494.585C2132.8 516.111 2124.48 559.709 2109.65 653.563C2100.62 710.765 2092.7 758.345 2092.05 759.302C2091.41 760.259 2059.21 763.617 2020.5 766.772C1689.64 793.748 1367.52 932.139 1139.61 1145.23C1091.84 1189.9 1100.63 1189.57 1055.39 1148.32C955.256 1057.04 934.184 1056.75 997.511 1147.55C1059.75 1236.78 1059.09 1220.54 1003.08 1283.72C791.213 1522.73 663.615 1828.53 641.943 2149.21C637.861 2209.6 637.861 2209.6 568.853 2219.88C426.827 2241.03 318.053 2261.36 316.865 2266.98C316.187 2270.18 388.012 2284.72 476.474 2299.32C637.314 2325.86 637.314 2325.86 644.51 2406.43C672.142 2715.71 819.076 3061.02 1001.47 3245.34C1033.3 3277.5 1049.51 3299.36 1045.88 3305.24C1043.59 3308.94 1024.75 3334.73 1004.02 3362.55C943.745 3443.4 951.429 3453.75 1028.86 3396.02C1087.14 3352.56 1102.99 3342.87 1102.99 3350.69C1102.99 3353.61 1133.07 3379.9 1169.84 3409.11C1440.2 3623.85 1683.53 3723.7 2030.39 3762.23C2093.18 3769.21 2093.18 3769.21 2100.43 3811.56C2111.39 3875.6 2141.21 4005.76 2146.03 4010.59C2152.73 4017.29 2158.14 3998.92 2181.79 3889.29C2211.53 3751.45 2197.64 3769.51 2279.82 3761.84C2445.58 3746.37 2636.27 3700.07 2759.79 3645.3C2929.37 3570.09 3056.42 3490.53 3172.13 3387.06C3211.99 3351.42 3211.99 3351.42 3269.93 3393.13C3306.13 3419.19 3329.96 3432.74 3333.46 3429.24C3339.44 3423.26 3339.9 3424.04 3287.58 3351.87C3255.38 3307.45 3255.38 3307.45 3301.01 3256.6C3518.11 3014.71 3669.8 2646.77 3670.02 2361.54C3670.06 2314.06 3645.98 2322.27 3894.83 2284.84C4032.81 2264.08 4033.1 2264.25 3791.87 2225.22C3739.57 2216.76 3692.26 2208.55 3686.71 2206.97C3676.07 2203.95 3675.94 2203.27 3664.62 2093.61C3632.85 1785.68 3500.23 1488.21 3294.8 1264.04C3246.98 1211.87 3246.98 1211.87 3270.33 1180.84C3303.13 1137.24 3337.28 1088.09 3337.28 1084.5C3337.28 1071.75 3269.74 1115.42 3220.52 1159.98C3207.76 1171.55 3207.76 1171.55 3152.17 1124.81C2966.44 968.629 2787.59 877.017 2529.13 805.658C2485.93 793.73 2364.63 774.689 2279.76 766.511C2242.29 762.904 2211.1 759.415 2210.46 758.761C2209.82 758.101 2198.13 698.766 2184.48 626.896C2170.84 555.026 2158.41 494.187 2156.87 491.691C2152.53 484.666 2142.78 486.336 2140.02 494.585ZM642.965 515.386C628.133 527.647 607.918 543.895 598.036 551.496C570.559 572.636 574.023 583.88 606.509 579.007C636.66 574.484 638.116 575.625 698.068 650.591C716.364 673.472 747.751 710.913 767.812 733.794C825.292 799.341 833.932 823.909 812.112 859.704C772.061 925.393 711.076 889.883 573.797 720.933C545.346 685.917 538.874 673.781 537.353 652.588C534.822 617.363 528.731 619.372 473.361 673.745C418.817 727.304 415.12 736.766 448.76 736.766C471.192 736.766 474.46 739.624 548.875 824.426C679.914 973.752 713.233 991.564 789.632 953.141C896.35 899.475 900.896 811.363 802.795 698.136C695.744 574.579 673.758 542.647 678.09 517.002C683.159 486.99 677.62 486.734 642.965 515.386ZM3797.94 675.849C3812.96 711.579 3814.73 709.041 3690.46 829.93C3574.39 942.848 3571.98 944.774 3546.95 944.774C3509.89 944.774 3513.69 955.965 3569.36 1010.83C3619.38 1060.12 3628.45 1063.41 3628.45 1032.23C3628.45 1001.01 3853.86 778.373 3885.46 778.367C3917.12 778.367 3914.24 770.261 3862.63 714.337C3820.01 668.147 3786.26 648.071 3797.94 675.849ZM2144.22 918.03C2142.58 1117.12 2142.58 1117.12 2119.62 1117.12C2097.26 1117.12 2096.71 1116.61 2098.64 1097.81C2099.74 1087.18 2103.56 1047.74 2107.13 1010.15C2121.48 859.015 2139.31 718.942 2144.19 718.937C2145.1 718.931 2145.12 808.523 2144.22 918.03ZM2084.82 820.337C2082.64 838.927 2087.35 837.406 2011.5 844.009C1800.95 862.331 1488.94 966.103 1393.69 1049.48C1388.53 1054 1382.39 1057.69 1380.05 1057.69C1365.08 1057.69 1199.34 1185.75 1166.38 1222.79C1155.5 1235.02 1155.5 1235.02 1143.07 1222.58C1128.84 1208.36 1119.82 1218.84 1216.41 1137.35C1420.82 964.897 1691 849.227 1970.56 814.489C2079.95 800.898 2087.06 801.26 2084.82 820.337ZM2369.73 819.814C2650.36 859.687 2920.35 982.964 3138.82 1170.99C3173.92 1201.2 3174.04 1201.44 3158.76 1210.99C3145.12 1219.52 3144.8 1219.33 3084.49 1167.04C2886.02 994.975 2583.99 870.509 2297.38 842.689C2226.15 835.772 2214.48 831.956 2214.28 815.512C2214.15 804.547 2273.93 806.205 2369.73 819.814ZM3953.3 841.762C3951.12 843.937 3949.34 854.094 3949.34 864.328C3949.34 885.123 3930.39 905.639 3869.23 951.062C3849.68 965.581 3801.72 1002.43 3762.65 1032.95C3692.56 1087.7 3691.29 1088.38 3665.98 1084.58C3630.83 1079.31 3632.15 1088.92 3673.72 1140.73C3709.23 1185 3717.59 1187.88 3717.59 1155.82C3717.59 1133.23 3721.08 1129.84 3835.35 1041.4C3933.85 965.147 3930.23 967.304 3912.59 995.444C3898.8 1017.45 3824.55 1168.74 3824.55 1174.85C3824.55 1176.36 3816.28 1195.42 3806.16 1217.19C3780.38 1272.7 3778.53 1289.27 3796.25 1305.88C3812.56 1321.16 3860.88 1290.95 4078.35 1129.51C4103.9 1110.55 4107.22 1109.63 4128.99 1115.44C4163.89 1124.76 4163.51 1112.48 4127.34 1063.84C4093.98 1018.96 4080.07 1011.57 4080.07 1038.73C4080.07 1063.47 4076.64 1066.69 3955.96 1155.27C3947.42 1161.54 3931.58 1174.91 3920.77 1184.99C3897.62 1206.54 3916.3 1164.03 3993.26 1019.97C4043.14 926.588 4042.54 937.131 4001.01 882.865C3967.27 838.785 3961.36 833.697 3953.3 841.762ZM312.664 866.89C161.944 920.282 199.428 1119.98 377.643 1213.04C481.353 1267.2 595.748 1226.29 625.346 1124.46C667.661 978.893 465.826 812.635 312.664 866.89ZM2066.87 985.965C2056.72 1083.62 2056.72 1083.62 1985.41 1093.89C1946.2 1099.54 1892.72 1109.96 1866.57 1117.04C1840.42 1124.12 1787.51 1136.48 1748.99 1144.49C1642.14 1166.71 1578.37 1196.99 1578.37 1225.5C1578.37 1229.91 1560.32 1243.95 1538.26 1256.72C1497.76 1280.15 1440.42 1320.83 1384.48 1365.85C1354.01 1390.36 1354.01 1390.36 1333.97 1372.7C1322.95 1362.98 1312.04 1354.99 1309.71 1354.94C1307.39 1354.89 1300.7 1349.91 1294.86 1343.89C1289.01 1337.86 1263.41 1317.41 1237.97 1298.44C1212.53 1279.47 1192.47 1262.11 1193.4 1259.85C1215.43 1206.39 1614.12 954.205 1614 993.804C1613.93 1016.92 1669.99 1153.16 1678.81 1151.33C1693.24 1148.32 1688.69 1121.27 1661.04 1045.83C1647.62 1009.19 1638.9 977.051 1641.67 974.406C1673.04 944.453 2066.82 863.663 2075.78 885.343C2076.45 886.977 2072.44 932.258 2066.87 985.965ZM2325.07 888.564C2430.87 902.435 2579.6 939.128 2660.53 971.322C2668.87 974.638 2666.77 984.682 2644.19 1049.5C2617.05 1127.35 2613.96 1143.47 2624.87 1150.22C2634.45 1156.14 2639.14 1146.35 2667.07 1062.15C2680.89 1020.48 2695.06 986.375 2698.55 986.375C2745.56 986.375 3105.53 1217.42 3105.53 1247.59C3105.53 1250.38 3089.24 1265.63 3069.32 1281.47C3049.4 1297.31 3012.72 1326.99 2987.82 1347.42C2935.07 1390.67 2940.72 1389.01 2917.75 1368.02C2907.79 1358.92 2882.46 1338.86 2861.46 1323.43C2840.46 1308 2820.57 1293.19 2817.25 1290.52C2813.93 1287.86 2792.99 1275.48 2770.71 1263.02C2748.43 1250.56 2728.84 1236.03 2727.17 1230.74C2713.62 1187.63 2693.14 1177.02 2570.73 1149.72C2516.8 1137.69 2444.6 1121.52 2410.29 1113.79C2375.97 1106.07 2327.17 1096.66 2301.84 1092.89C2276.51 1089.13 2255.79 1083.89 2255.79 1081.26C2255.79 1073.51 2231.98 907.386 2228.78 892.772C2225.16 876.232 2229.56 876.042 2325.07 888.564ZM2131.47 894.751C2131.76 901.675 2133.16 903.083 2135.06 898.346C2136.78 894.055 2136.56 888.927 2134.59 886.953C2132.62 884.98 2131.21 888.487 2131.47 894.751ZM2288.94 910.221C2285.04 934.385 2273.66 1034.09 2273.63 1044.32C2273.62 1048.41 2278.73 1051.75 2284.96 1051.75C2296.49 1051.75 2304.38 1002.53 2305.83 921.59C2306.4 889.973 2293.6 881.355 2288.94 910.221ZM1988.39 902.869C1988.39 922.398 2007.53 1049.5 2011 1052.97C2028.6 1070.58 2026.26 930.813 2008.47 902.019C2004.34 895.333 1988.39 896.011 1988.39 902.869ZM2131 921.001C2131 925.358 2132.78 927.141 2134.96 924.965C2137.14 922.784 2137.14 919.218 2134.96 917.037C2132.78 914.862 2131 916.645 2131 921.001ZM393.853 938.837C531.357 1001.19 611.02 1121.49 539.986 1159.5C484.532 1189.19 316.211 1082.93 279.506 995.076C254.257 934.641 316.782 903.885 393.853 938.837ZM2476.04 967.827C2455.92 1005.42 2444.71 1109.66 2462.86 1090.33C2468.59 1084.23 2493.48 983.422 2493.48 966.323C2493.48 953.231 2483.38 954.104 2476.04 967.827ZM1804.08 972.51C1803.85 997.97 1830.65 1093.35 1838.03 1093.35C1849.03 1093.35 1847.07 1068.53 1831.69 1013.53C1819.46 969.782 1804.3 947.264 1804.08 972.51ZM2131 1039.86C2131 1044.22 2132.78 1046 2134.96 1043.83C2137.14 1041.65 2137.14 1038.08 2134.96 1035.9C2132.78 1033.72 2131 1035.51 2131 1039.86ZM71.6747 1227.58C44.0729 1285.07 21.4922 1333.46 21.4922 1335.13C21.4922 1336.79 15.8945 1346.02 9.05496 1355.63C-7.63689 1379.06 -3.20397 1386.87 38.8792 1408.11C97.1195 1437.51 110.977 1432.57 81.0813 1393.05C60.937 1366.43 59.3742 1355.5 72.156 1330.78C83.6424 1308.56 71.5559 1304.92 189.736 1366.2C364.183 1456.66 362.882 1455.81 365.039 1481.71C367.945 1516.69 381.273 1507.22 417.248 1444.62C458.98 1372.02 459.111 1361.2 418.098 1373.79C397.769 1380.03 393.259 1378.41 320.555 1338.86C278.632 1316.05 224.272 1287.23 199.76 1274.82C119.766 1234.31 116.17 1231.47 123.699 1214.95C133.706 1192.98 157.137 1180.8 196.665 1177.01C247.37 1172.15 243.763 1160.88 184.905 1140.25C158.759 1131.08 133.878 1123.46 129.612 1123.32C125.322 1123.18 99.4252 1169.78 71.6747 1227.58ZM1441.7 1131.37C1441.7 1146.98 1501.88 1242.66 1510 1239.96C1523.63 1235.42 1517.83 1217.1 1488.29 1171.39C1459.31 1126.55 1441.7 1111.42 1441.7 1131.37ZM2824.24 1142.38C2783.08 1197.2 2759.38 1254.57 2784.23 1239.22C2794.32 1232.98 2855.96 1136.05 2855.96 1126.43C2855.96 1116.08 2836.72 1125.76 2824.24 1142.38ZM2422.17 1176.5C2544.72 1192.22 2636.19 1211.3 2649.9 1224.01C2696.22 1266.92 1872.46 1278.99 1689.79 1238.07C1640.81 1227.1 1639.82 1222.46 1683.84 1210.21C1841.61 1166.28 2211.07 1149.41 2422.17 1176.5ZM4142.46 1216.17C4135.92 1217.52 4124.77 1219.85 4117.66 1221.36C4072.2 1231 4047.2 1278 4039.59 1368.18C4031.69 1461.85 4005.76 1498.1 3960.18 1479.22C3914.24 1460.19 3906.04 1396.88 3943.39 1349.61C3985.07 1296.88 3971.61 1293.61 3894.97 1337.85C3832.26 1374.05 3830.98 1375.59 3850.79 1391.18C3859.23 1397.82 3866.15 1408.1 3866.15 1414.03C3866.15 1465.72 3922.86 1537.44 3974.8 1551.43C4057.88 1573.8 4115.86 1514.42 4123.86 1398.76C4130.32 1305.56 4163.35 1255.86 4202.02 1281.19C4238.46 1305.07 4241.41 1341.35 4210.4 1384.16C4182.56 1422.61 4192.7 1424.98 4249.37 1393.28C4297.91 1366.13 4303.27 1359.69 4292.08 1341.87C4287.32 1334.3 4280.28 1318.17 4276.43 1306.02C4265.6 1271.85 4220.6 1225.27 4194.09 1220.81C4182.03 1218.78 4168.16 1216.35 4163.26 1215.42C4158.36 1214.49 4149 1214.83 4142.46 1216.17ZM2190.42 1230.04C2190.42 1233.31 2194.59 1235.98 2199.69 1235.98C2204.78 1235.98 2207.3 1233.31 2205.28 1230.04C2203.26 1226.77 2199.09 1224.1 2196.01 1224.1C2192.94 1224.1 2190.42 1226.77 2190.42 1230.04ZM2270.64 1230.04C2268.62 1233.31 2272.63 1235.98 2279.56 1235.98C2286.48 1235.98 2290.49 1233.31 2288.47 1230.04C2286.45 1226.77 2282.44 1224.1 2279.56 1224.1C2276.68 1224.1 2272.66 1226.77 2270.64 1230.04ZM2347.89 1230.04C2345.87 1233.31 2349.88 1235.98 2356.81 1235.98C2363.73 1235.98 2367.74 1233.31 2365.72 1230.04C2363.7 1226.77 2359.69 1224.1 2356.81 1224.1C2353.92 1224.1 2349.91 1226.77 2347.89 1230.04ZM2431.09 1230.04C2428.7 1233.9 2456.77 1235.98 2510.96 1235.98C2562.69 1235.98 2594.5 1233.72 2594.5 1230.04C2594.5 1226.37 2563.91 1224.1 2514.63 1224.1C2467.79 1224.1 2433.24 1226.56 2431.09 1230.04ZM2974.06 1252.33C2924.61 1303.97 2913.35 1325.13 2935.35 1325.13C2945.13 1325.13 3010.46 1245.39 3010.46 1233.44C3010.46 1218.37 3002.76 1222.36 2974.06 1252.33ZM1287.2 1238.06C1287.2 1247.65 1352.16 1331.07 1359.62 1331.07C1376.59 1331.07 1368.23 1309.36 1336.83 1271.83C1303.48 1231.97 1287.2 1220.9 1287.2 1238.06ZM2245.88 1234.01C2248.06 1236.18 2251.63 1236.18 2253.81 1234.01C2255.98 1231.82 2254.2 1230.04 2249.85 1230.04C2245.49 1230.04 2243.71 1231.82 2245.88 1234.01ZM3254.8 1285.02C3479.51 1541.55 3598.37 1813.99 3627.53 2139.33C3633.29 2203.55 3633.77 2201.39 3614.75 2196.61C3601.42 2193.27 3600.03 2188.89 3593.26 2129.04C3562.41 1856.42 3485.76 1648.42 3340.83 1443.99C3291.97 1375.06 3284.65 1366.1 3213.97 1288.66C3201.4 1274.88 3200.62 1271.46 3207.52 1260.43C3218.26 1243.22 3218.14 1243.16 3254.8 1285.02ZM1091.11 1277.59C1096.61 1287.89 1091.33 1296.49 1051.92 1341.48C951.274 1456.38 832.542 1664.16 785.562 1807.59C749.32 1918.24 733.312 1994.59 720.001 2120.27C715.746 2160.46 711.266 2194.22 710.042 2195.31C693.849 2209.74 681.085 2204.15 681.085 2182.65C681.085 2086.72 730.204 1842.27 764.425 1767.89C767.432 1761.35 775.472 1741.46 782.3 1723.67C825.601 1610.83 915.769 1460.12 1002.43 1355.74C1033.22 1318.65 1062.43 1283.32 1067.33 1277.22C1078.82 1262.95 1083.31 1263.01 1091.11 1277.59ZM1682.36 1288.61C1894.68 1336.33 2537.06 1323.63 2677.95 1268.93C2685.21 1266.12 2688.73 1273.14 2694.79 1302.49C2699.01 1322.91 2725.22 1406.56 2753.03 1488.38C2780.84 1570.2 2818.1 1679.89 2835.83 1732.13C2965.61 2114.46 2954.3 2324.88 2793.65 2517.33C2653.59 2685.11 2461.69 2752.62 2121.02 2753.98C2058.34 2754.24 2010.21 2756.09 2014.06 2758.11C2026.01 2764.37 2124.84 2776.72 2193.39 2780.53C2249.48 2783.64 2255.39 2784.88 2234.99 2789.26C2170.45 2803.1 2030.53 2790.04 1965.72 2764.11C1950.41 2757.98 1923.17 2749.65 1905.19 2745.61C1596.43 2676.06 1395.72 2454.98 1383.9 2171.4C1378.58 2043.7 1400.37 1938.52 1480.41 1705.49C1545.45 1516.14 1582.31 1402.26 1599.69 1337.02C1607.96 1305.96 1615.86 1277.12 1617.24 1272.92C1619.25 1266.79 1623.01 1266.93 1636.2 1273.61C1645.24 1278.19 1666.02 1284.94 1682.36 1288.61ZM1539.86 1364.2C1507.48 1475.8 1502.79 1488.67 1495.15 1486.87C1487.01 1484.95 1394.16 1415.2 1394.16 1411C1394.16 1405.55 1555.62 1289.03 1559 1292.05C1559.79 1292.75 1551.18 1325.22 1539.86 1364.2ZM2861.26 1374.79C2911.03 1415.22 2913.95 1404.13 2837.61 1464.54C2804.4 1490.81 2804.4 1490.81 2777.49 1415.4C2734.29 1294.33 2734.57 1283.31 2780.08 1313.99C2800.57 1327.81 2837.1 1355.17 2861.26 1374.79ZM3240.86 1387.53C3259.21 1410.41 3277.05 1431.81 3280.5 1435.08C3288.02 1442.2 3362.73 1554.44 3372.16 1572.79C3378.41 1584.94 3374.77 1587.82 3309.02 1622.67C3212.89 1673.63 3186.69 1693.6 3215.98 1693.6C3227.48 1693.6 3373.92 1612.48 3379.91 1602.8C3385.21 1594.22 3385.31 1594.35 3407.53 1634.17C3494.22 1789.61 3591.16 2196.05 3538.76 2184.39C3530.89 2182.63 3497.72 2177.07 3465.04 2172.01C3319.79 2149.53 3335.64 2160.85 3320.82 2069.07C3290.08 1878.84 3210.96 1700.22 3089.25 1546.36C3045.65 1491.23 3045.65 1491.23 3071.54 1457.22C3085.78 1438.5 3114.35 1398.32 3135.01 1367.92C3178.05 1304.64 3173.75 1303.84 3240.86 1387.53ZM1225.07 1359.86C1454.44 1585.62 1465.95 1599.77 1452.4 1639.43C1441.74 1670.67 1438.73 1674.92 1433.69 1665.82C1430.39 1659.85 1407.43 1628.23 1382.65 1595.54C1357.89 1562.85 1318.37 1509.37 1294.84 1476.68C1271.32 1443.99 1236.03 1395.19 1216.42 1368.22C1196.82 1341.25 1181.45 1319.19 1182.26 1319.19C1183.08 1319.19 1202.34 1337.49 1225.07 1359.86ZM1190.21 1409.87C1250.69 1494.32 1250.69 1494.32 1231.62 1518.19C1208.9 1546.61 1156.25 1626.59 1121.69 1685.18C1060.47 1788.99 991.408 1984.15 977.2 2093.49C970.652 2143.93 968.043 2151.99 957.579 2154.18C757.425 2196.13 755.958 2196.01 760.753 2136.9C770.326 2018.93 797.155 1899.43 839.601 1785.72C862.776 1723.63 916.031 1610.4 922.062 1610.4C923.981 1610.4 944.75 1621.99 968.216 1636.15C1066.26 1695.32 1110.06 1711.85 1101.61 1686.49C1099.42 1679.92 1020.72 1633.42 961.857 1603.92C947.97 1596.96 936.603 1589.03 936.603 1586.31C936.603 1567.28 1034.23 1430.56 1117.64 1332.79C1127.2 1321.59 1126.28 1320.61 1190.21 1409.87ZM2585.58 1334.47C2494.17 1347.88 2400.84 1356.07 2252.82 1363.68C2110.2 1371.01 2110.2 1371.01 2258.76 1371.82C2350.81 1372.32 2444.39 1369.22 2504.79 1363.66C2558.4 1358.73 2602.88 1355.39 2603.63 1356.25C2623.15 1378.62 2611.23 1394.31 2569.45 1401.21C2498.13 1413 2419.09 1419.99 2310.45 1424.14C2253.9 1426.29 2210.56 1429.86 2214.12 1432.06C2225.34 1438.99 2573.43 1427.17 2620.51 1418.25C2626.27 1417.17 2637.5 1450.51 2632.92 1455.09C2627.18 1460.83 2528.68 1471.09 2318.18 1487.87C2301.84 1489.18 2355.32 1489.25 2437.03 1488.04C2518.73 1486.82 2599.25 1484.14 2615.96 1482.06C2645.91 1478.35 2668.3 1502.75 2647.01 1515.91C2638.96 1520.88 2470.41 1538.01 2381.97 1542.84C2341.88 1545.03 2310.55 1548.29 2312.35 1550.09C2317.24 1554.99 2466.12 1551.62 2569.6 1544.27C2619.64 1540.72 2661.44 1538.77 2662.5 1539.94C2676.8 1555.72 2671.19 1580.68 2653.33 1580.68C2642.69 1580.68 2595.01 1584.71 2547.39 1589.63C2499.76 1594.55 2431.38 1601.06 2395.43 1604.08C2341.83 1608.59 2355.2 1609.1 2469.71 1606.94C2546.51 1605.48 2624.36 1602.69 2642.71 1600.74C2675.96 1597.19 2676.08 1597.23 2682.6 1615.94C2690.61 1638.93 2694.6 1637.42 2603.41 1645.81C2564.19 1649.42 2518.73 1653.6 2502.39 1655.1C2486.05 1656.6 2452.63 1658.24 2428.11 1658.74C2403.6 1659.25 2378.2 1661.99 2371.66 1664.85C2359.01 1670.38 2586.14 1666.54 2654.76 1660.07C2694.22 1656.34 2694.22 1656.35 2698.4 1675.4C2704.05 1701.1 2711.93 1699.13 2576.01 1706.02C2335.38 1718.22 2322.41 1722.02 2521.91 1721.87C2624.15 1721.8 2708.67 1722.76 2709.74 1724.01C2735.92 1754.81 2685.83 1770.04 2554.17 1771.3C2528.96 1771.55 2496.3 1774.08 2481.59 1776.93C2464.03 1780.34 2501.11 1781.52 2589.63 1780.39C2724.41 1778.68 2724.41 1778.68 2728.08 1793.3C2733.57 1815.18 2733.11 1815.27 2608.5 1817.56C2460.59 1820.27 2466.12 1826.47 2619.85 1830.29C2739.33 1833.26 2739.33 1833.26 2746.85 1862.77C2756.02 1898.79 2755.98 1898.83 2722.06 1890.29C2589.19 1856.83 2360.53 1844.85 2015.22 1853.26C1881.27 1856.53 1771.09 1858.62 1770.39 1857.91C1769.68 1857.2 1775.56 1828.04 1783.45 1793.11C1791.35 1758.17 1801.99 1704.78 1807.11 1674.45C1821.08 1591.65 1826.99 1562.39 1849.82 1463.17C1869.16 1379.12 1871.74 1344.33 1857.58 1358.48C1849.67 1366.4 1824.92 1475.06 1801.56 1604.46C1790.64 1664.93 1775.68 1747.83 1768.3 1788.69C1760.92 1829.55 1753.15 1864.32 1751.05 1865.95C1748.94 1867.59 1742.4 1907.7 1736.52 1955.1C1730.63 2002.49 1725.07 2042.05 1724.16 2043C1721.04 2046.21 1563.62 2021.03 1544.2 2014.21C1521.83 2006.35 1520.16 1996.34 1533.74 1951.59C1545.76 1911.95 1545.55 1893.31 1533.12 1898.07C1514.38 1905.27 1549.93 1775.23 1659.05 1437.48C1670.23 1402.85 1679.39 1368.75 1679.39 1361.71C1679.39 1327.98 1664.88 1359.37 1626.94 1475.19C1564.16 1666.86 1551.19 1708.48 1531.13 1782.75C1496.89 1909.45 1496.79 1909.72 1477.19 1920.79C1391.9 1969 1415.4 2291.61 1515.08 2440.91C1775.94 2831.63 2562.52 2822.25 2801.72 2425.55C2912.79 2241.35 2900.72 2020.15 2758.7 1637.14C2704.11 1489.94 2694.41 1464.34 2686.6 1446.96C2661.47 1391.03 2643.88 1342.96 2648.55 1342.96C2651.51 1342.96 2653.92 1338.95 2653.92 1334.05C2653.92 1329.14 2650.58 1325.47 2646.49 1325.88C2642.41 1326.3 2615 1330.16 2585.58 1334.47ZM3065.86 1344.47C3045.27 1369.93 3031.15 1386.34 3003.82 1416.6C2988.73 1433.3 2947.59 1479.06 2912.4 1518.28C2877.22 1557.51 2846.39 1590.4 2843.88 1591.38C2833.9 1595.29 2818.34 1540.18 2827.03 1531.67C2835.04 1523.83 2916.37 1458.8 3009.15 1386.07C3035.2 1365.66 3059.84 1344.93 3063.92 1340.01C3068 1335.1 3072.54 1331.07 3074.01 1331.07C3075.48 1331.07 3071.81 1337.1 3065.86 1344.47ZM2639.07 1378.62C2641.94 1388.53 2641.39 1391.5 2637.43 1387.53C2634.16 1384.26 2629.55 1374.9 2627.18 1366.73C2624.31 1356.83 2624.86 1353.85 2628.81 1357.82C2632.08 1361.09 2636.69 1370.45 2639.07 1378.62ZM1257.49 1410.58C1257.49 1411.81 1262.17 1416.49 1267.88 1420.98C1277.31 1428.37 1277.52 1428.16 1270.13 1418.73C1262.36 1408.83 1257.49 1405.69 1257.49 1410.58ZM2659.35 1441.02C2659.03 1452.91 2659.03 1452.91 2653.92 1441.02C2646.29 1423.25 2646.29 1408.41 2653.92 1420.22C2657.09 1425.12 2659.54 1434.48 2659.35 1441.02ZM2964.9 1436.07C2967.08 1438.25 2970.64 1438.25 2972.82 1436.07C2975 1433.89 2973.22 1432.11 2968.86 1432.11C2964.51 1432.11 2962.72 1433.89 2964.9 1436.07ZM3169.41 1474.55C3120.98 1507.92 3105.21 1527.2 3126.31 1527.2C3131.21 1527.2 3151.93 1515.22 3172.37 1500.59C3192.8 1485.95 3215.54 1469.78 3222.89 1464.65C3237.25 1454.64 3241.05 1437.84 3228.84 1438.38C3224.75 1438.56 3198.01 1454.83 3169.41 1474.55ZM1076.42 1449.66C1072.54 1455.94 1166.36 1527.2 1178.51 1527.2C1199.41 1527.2 1182.02 1503.83 1139.79 1475.19C1093.26 1443.64 1082.76 1439.4 1076.42 1449.66ZM2680.23 1503.42C2682.99 1513.75 2682.52 1515.56 2678.69 1509.37C2675.66 1504.46 2671.4 1493.77 2669.21 1485.59C2666.45 1475.27 2666.92 1473.46 2670.74 1479.65C2673.77 1484.55 2678.04 1495.25 2680.23 1503.42ZM2202.31 1504.12C2202.31 1507.01 2211.67 1509.37 2223.11 1509.37C2234.54 1509.37 2243.9 1507.26 2243.9 1504.68C2243.9 1502.1 2234.54 1499.74 2223.11 1499.44C2211.67 1499.13 2202.31 1501.24 2202.31 1504.12ZM1349.17 1626.03C1386.99 1678.75 1417.8 1725.55 1417.63 1730.03C1417.47 1734.51 1410.11 1760.15 1401.29 1787.01C1383.32 1841.7 1400.75 1845.96 1244.26 1748.71C1192.86 1716.77 1180.24 1714.02 1180.24 1734.76C1180.24 1742.35 1209.04 1762.54 1278.28 1803.46C1332.21 1835.33 1376.33 1863.56 1376.33 1866.18C1376.33 1871.04 1354.23 1967.89 1349.09 1985.58C1346.61 1994.12 1341.57 1993.36 1306.34 1979.13C1188.07 1931.37 1124.79 1915.23 1137.91 1936.19C1144.26 1946.33 1329.29 2015.53 1339.58 2011.63C1344.73 2009.67 1346.42 2012.19 1344.52 2019.02C1342.94 2024.72 1339.91 2044.76 1337.77 2063.56C1333.89 2097.67 1333.84 2097.73 1313.77 2097.73C1302.69 2097.73 1230.25 2108.43 1152.76 2121.5C1075.28 2134.58 1010.68 2145.28 1009.22 2145.28C999.532 2145.28 1038.67 1981.75 1070.47 1889.41C1105.04 1789.02 1135.53 1731.26 1225.31 1596.12C1270.01 1528.83 1271.48 1526.88 1276.35 1528.68C1278.58 1529.5 1311.35 1573.3 1349.17 1626.03ZM3120.31 1654.97C3189.77 1762.79 3253.63 1919.28 3276.75 2038.3C3293.15 2122.7 3296.7 2145.28 3293.6 2145.28C3285.94 2145.28 2982.57 2097 2976.29 2094.78C2972.21 2093.34 2968.86 2082.81 2968.86 2071.38C2968.86 2059.95 2960.53 2012.4 2950.35 1965.71C2940.15 1919.01 2930.74 1875.46 2929.41 1868.92C2927.4 1859.05 2943.82 1847.06 3026.66 1797.94C3130.12 1736.6 3139.38 1729.63 3127.5 1722.08C3114.56 1713.85 3107.74 1716.93 3013.1 1773.76C2961.45 1804.76 2918.29 1829.24 2917.19 1828.14C2916.09 1827.04 2907.64 1802.05 2898.4 1772.58C2881.62 1719.02 2881.62 1719.02 2932.67 1650.38C2960.74 1612.63 2992.54 1569.21 3003.32 1553.89C3022.92 1526.03 3022.92 1526.03 3058.22 1569.7C3077.63 1593.72 3105.57 1632.09 3120.31 1654.97ZM2699.91 1553.94C2703.41 1565.38 2704.31 1574.74 2701.9 1574.74C2699.49 1574.74 2694.64 1565.38 2691.13 1553.94C2687.62 1542.5 2686.72 1533.14 2689.13 1533.14C2691.55 1533.14 2696.4 1542.5 2699.91 1553.94ZM1423.87 1592.57C1423.87 1596.93 1425.65 1598.71 1427.83 1596.53C1430.01 1594.35 1430.01 1590.79 1427.83 1588.61C1425.65 1586.43 1423.87 1588.21 1423.87 1592.57ZM2721.99 1620.8C2724.22 1628.19 2723.48 1634.17 2720.32 1634.17C2713.83 1634.17 2707.4 1620.03 2707.4 1605.75C2707.4 1593.41 2716.58 1602.88 2721.99 1620.8ZM2740.5 1678.03C2743.7 1690.98 2742.79 1694.51 2736.79 1692.5C2728.21 1689.64 2718.31 1660.9 2723.96 1655.25C2729.22 1649.99 2735.82 1659.07 2740.5 1678.03ZM2203.79 1667.98C2209.51 1669.48 2218.87 1669.48 2224.59 1667.98C2230.31 1666.49 2225.63 1665.27 2214.19 1665.27C2202.75 1665.27 2198.08 1666.49 2203.79 1667.98ZM2757.27 1726.78C2763.38 1742.7 2761.3 1753.03 2751.97 1753.03C2747.07 1753.03 2743.02 1751.03 2742.97 1748.58C2742.93 1746.12 2741.28 1738.1 2739.31 1730.75C2735.09 1715 2751.37 1711.4 2757.27 1726.78ZM2772.85 1778.29C2772.89 1782.38 2774.54 1791.73 2776.51 1799.09C2779.4 1809.88 2777.66 1812.46 2767.52 1812.46C2760.6 1812.46 2754.9 1809.12 2754.86 1805.03C2754.81 1800.95 2753.16 1791.59 2751.2 1784.23C2748.3 1773.45 2750.04 1770.86 2760.19 1770.86C2767.11 1770.86 2772.8 1774.21 2772.85 1778.29ZM889.065 1808.93C889.065 1818.51 987.516 1856.32 1000 1851.53C1016.91 1845.04 1005.85 1837.47 952.944 1819.3C890.301 1797.8 889.065 1797.6 889.065 1808.93ZM3347.68 1822.05C3317.72 1831.51 3301.63 1839.65 3301.63 1845.33C3301.63 1858.53 3320.85 1855.97 3373.13 1835.8C3450.14 1806.1 3430.98 1795.74 3347.68 1822.05ZM2786.98 1837.72C2788.05 1841.81 2794.39 1863.13 2801.06 1885.12C2813.19 1925.08 2813.19 1925.08 2796.71 1916.56C2780.51 1908.18 2766.82 1874.28 2766.82 1842.52C2766.82 1829.29 2783.71 1825.28 2786.98 1837.72ZM3114.45 1929.96C2968.01 1987.65 2930.63 2008.59 2974.06 2008.59C2990.25 2008.59 3154.91 1943.69 3160.41 1935.14C3172.19 1916.83 3153.2 1914.69 3114.45 1929.96ZM818.702 1994.35C820.776 2005.26 894.383 2025.28 935.551 2026.13C971.817 2026.88 945.374 2006.1 900.913 1998.9C876.419 1994.94 847.421 1989.76 836.469 1987.39C818.987 1983.61 816.818 1984.46 818.702 1994.35ZM3398.41 1998.91C3378.11 2002.59 3358.28 2008.87 3354.34 2012.85C3341.43 2025.89 3362.73 2027.56 3418.21 2017.86C3447.23 2012.78 3472.99 2008.62 3475.44 2008.6C3477.89 2008.59 3479.9 2004.57 3479.9 1999.67C3479.9 1989.04 3454.08 1988.8 3398.41 1998.91ZM1587.28 2067.98C1616.7 2074 1656.81 2080.66 1676.42 2082.79C1712.07 2086.65 1712.07 2086.65 1710.17 2164.99C1706.82 2303.93 1741.4 2461.07 1782.91 2495.53C1800.74 2510.33 1792.16 2512.62 1758.12 2502.14C1595.24 2452 1513.41 2324.16 1513.1 2119.38C1513.01 2054.67 1513.85 2049.25 1523.4 2052.97C1529.12 2055.2 1557.87 2061.95 1587.28 2067.98ZM3069.88 2150.85C3153.05 2164.26 3272.04 2183.16 3444.24 2210.29C3731.43 2255.54 3743.63 2251.08 3330.92 2251.7C2965.05 2252.25 2965.05 2252.25 2969.49 2221.05C2971.94 2203.89 2974.13 2177.4 2974.37 2162.18C2974.73 2139.07 2976.52 2134.86 2985.2 2136.69C2990.92 2137.89 3029.03 2144.26 3069.88 2150.85ZM1356.63 2317.63C1364.4 2345.41 1372.34 2372.86 1374.26 2378.63C1376.68 2385.88 1375.25 2388.19 1369.62 2386.13C1365.14 2384.48 1344.09 2380.59 1322.85 2377.48C911.562 2317.25 681.626 2285.17 600.864 2276.76C552.387 2271.72 788.931 2267.11 1096.47 2267.11C1342.5 2267.11 1342.5 2267.11 1356.63 2317.63ZM3616.99 2468.76C3571.9 2778.86 3457.67 3016.4 3232.7 3267.88C3228.88 3272.15 3212.49 3255.31 3212.49 3247.11C3212.49 3242.67 3228.98 3220.93 3249.12 3198.81C3449.81 2978.34 3558.37 2717.94 3595.9 2367C3599.28 2335.3 3601.61 2329.94 3612.66 2328.37C3631.04 2325.75 3632.22 2364.04 3616.99 2468.76ZM705.246 2335.66C714.243 2340.48 716.739 2348.23 716.739 2371.36C716.739 2615.72 858.706 2960.64 1052.28 3186.6C1098.24 3240.25 1098.24 3240.25 1084.93 3252.9C1073.55 3263.71 1072.16 3263.99 1075.35 3254.84C1077.62 3248.32 1076.72 3245.59 1073.04 3247.87C1067.4 3251.35 1022.02 3205.64 1001.97 3176.27C997.065 3169.09 974.158 3138.1 951.06 3107.41C811.892 2922.45 723.614 2696.41 690.307 2439.71C676.034 2329.71 677.323 2320.72 705.246 2335.66ZM3553.8 2375.57C3535.78 2571.78 3430.21 2911.86 3391.87 2897.2C3375.46 2890.92 3246.01 2816.1 3235.15 2806.61C3229.64 2801.79 3222.29 2799.61 3218.81 2801.76C3196.98 2815.25 3230.22 2842.82 3324.84 2889.67C3359.47 2906.82 3388.76 2921.37 3389.94 2922.01C3399.85 2927.34 3271.47 3109.78 3213.02 3173.43C3177.73 3211.86 3188.25 3218.7 3101.08 3100.57C3036.31 3012.79 3039.02 3025.37 3076.2 2984.68C3191.47 2858.54 3310.85 2589.36 3329.14 2414.34C3331.22 2394.45 3334.63 2375.4 3336.73 2372.01C3339.61 2367.36 3492.54 2341.65 3549.89 2336.18C3555.7 2335.63 3556.61 2344.87 3553.8 2375.57ZM874.042 2355.2C968.952 2368.14 968.952 2368.14 975.804 2418.66C1002.89 2618.41 1096.75 2834.61 1224.43 2991.4C1250.84 3023.81 1250.84 3023.81 1229.27 3052.57C1178.98 3119.59 1158.15 3148.13 1142.13 3171.94C1122.01 3201.84 1123.13 3201.58 1104.66 3180.86C1043.97 3112.79 981.033 3027.59 941.767 2960.39C919.121 2921.62 919.121 2921.62 953.182 2906.38C1048.04 2863.93 1103.3 2825.08 1084.95 2813.74C1078.85 2809.97 925.366 2891.22 917.831 2902.21C912.138 2910.51 865.182 2812.93 836.725 2733.64C795.45 2618.66 758.334 2445.51 758.334 2367.96C758.334 2336.6 746.884 2337.86 874.042 2355.2ZM1196.17 2401.14C1403.26 2430.26 1391.24 2427.39 1405.94 2451.18C1420.21 2474.27 1420.69 2478.09 1409.31 2478.09C1373.82 2478.09 1129.77 2563.63 1136.09 2573.85C1142.3 2583.91 1164.42 2578.92 1284.01 2540.49C1350.12 2519.24 1408.63 2501.86 1414.04 2501.86C1419.45 2501.86 1424.02 2497.18 1424.22 2491.46C1424.54 2481.92 1425.15 2481.98 1431.65 2492.17C1435.54 2498.28 1451.23 2519.6 1466.52 2539.55C1494.3 2575.82 1494.3 2575.82 1466.52 2589.79C1347.55 2649.59 1156.06 2777.98 1164.77 2792.09C1172.07 2803.9 1181.42 2800.11 1239.66 2761.73C1312.23 2713.91 1394.26 2662.98 1435.75 2639.98C1453.73 2630.02 1478.88 2616.08 1491.65 2608.99C1514.86 2596.11 1514.86 2596.11 1529.81 2611.06C1545.65 2626.9 1541.29 2635.42 1473.65 2720.7C1462.41 2734.88 1400.29 2820.35 1309.84 2946.11C1273.16 2997.12 1278.35 2996.15 1247.56 2957.63C1133.42 2814.8 1044.97 2607.13 1011.05 2402.31C1005.93 2371.37 985.395 2371.5 1196.17 2401.14ZM3292.75 2402.31C3290.56 2416.2 3283.6 2450.31 3277.29 2478.09C3237.35 2653.87 3175.14 2789.27 3068.81 2931.78C3012.89 3006.73 3027 3009.45 2950.67 2908.96C2923.36 2873.01 2866.81 2798.78 2825.01 2744.03C2738.13 2630.23 2742.72 2641.02 2769.91 2614.66C2790.84 2594.38 2790.84 2594.38 2827.85 2613.73C2866.45 2633.89 2998.07 2716.17 3069.61 2764.84C3116.09 2796.47 3148.94 2803.57 3130.7 2778.05C3111.38 2751.01 2865.33 2593.14 2817.82 2577.3C2814.45 2576.18 2826.18 2556.74 2843.89 2534.1C2861.6 2511.47 2876.57 2492.17 2877.15 2491.23C2877.74 2490.28 2889.92 2493.73 2904.22 2498.88C2918.53 2504.03 2958.31 2517.44 2992.63 2528.68C3026.95 2539.92 3074.98 2555.86 3099.38 2564.12C3157.74 2583.86 3180.78 2583.91 3166.35 2564.26C3163.95 2561 3101.5 2538.26 3027.57 2513.75C2893.16 2469.17 2893.16 2469.17 2904.39 2446.89C2910.57 2434.63 2918.91 2424.41 2922.93 2424.18C2926.95 2423.95 3002.44 2413.56 3090.68 2401.1C3306.02 2370.68 3297.74 2370.63 3292.75 2402.31ZM2245.5 2470.1C2241.48 2471.73 2233.46 2471.83 2227.68 2470.32C2221.89 2468.81 2225.19 2467.48 2234.99 2467.36C2244.8 2467.24 2249.53 2468.47 2245.5 2470.1ZM927.689 2487.05C924.421 2488.18 898.352 2492.26 869.752 2496.1C821.168 2502.63 792.942 2519.69 830.723 2519.69C881.411 2519.69 948.487 2505.71 948.487 2495.14C948.487 2484.76 941.755 2482.14 927.689 2487.05ZM3355.11 2490.11C3340.96 2499.34 3356.36 2505.78 3411.03 2513.52C3437.47 2517.26 3463.78 2521.7 3469.5 2523.38C3476.88 2525.55 3479.9 2523.08 3479.9 2514.88C3479.9 2504.94 3473.01 2502.3 3430.87 2496.11C3403.91 2492.16 3377.84 2487.88 3372.94 2486.61C3368.03 2485.34 3360.01 2486.91 3355.11 2490.11ZM2212.58 2535.17C2210.61 2537.14 2205.48 2537.35 2201.2 2535.64C2196.45 2533.74 2197.86 2532.33 2204.79 2532.05C2211.05 2531.79 2214.55 2533.19 2212.58 2535.17ZM940.014 2673.57C854.213 2708.81 867.5 2725.21 954.62 2691.61C991.094 2677.54 1001.97 2670.72 1001.97 2661.89C1001.97 2647.68 1003.98 2647.31 940.014 2673.57ZM3296.88 2662.92C3298.98 2669.22 3392.62 2709.14 3406.47 2709.63C3434.27 2710.61 3415.02 2690.99 3372.09 2674.6C3323.3 2655.97 3292.99 2651.26 3296.88 2662.92ZM2800.59 2781.19C2846.15 2841.66 2922.49 2943.28 2970.25 3007.02C3018 3070.76 3068.38 3137.62 3082.2 3155.6C3107.32 3188.29 3107.32 3188.29 3068.09 3150.12C3046.51 3129.12 3030.48 3109.32 3032.46 3106.11C3034.44 3102.9 3033.38 3101.93 3030.1 3103.96C3020.95 3109.62 2642.93 2727.13 2643.56 2712.84C2643.88 2705.42 2702.02 2668.67 2711.09 2670.15C2714.75 2670.75 2755.03 2720.72 2800.59 2781.19ZM1726.93 2740.67C1744.9 2748.59 1765.84 2757.68 1773.47 2760.86C1786.76 2766.41 1785.8 2767.83 1749.7 2795.98C1637.92 2883.18 1589.06 2917.85 1583.14 2914.18C1579.33 2911.83 1578.19 2912.78 1580.45 2916.43C1585.22 2924.15 1585.97 2923.55 1333.15 3113.89C1283 3151.65 1242.51 3178.16 1238.64 3175.77C1234.6 3173.27 1233.51 3174.23 1235.93 3178.15C1238.17 3181.77 1234.33 3187.75 1227.42 3191.45C1220.5 3195.15 1203.95 3207.99 1190.64 3219.98C1177.34 3231.97 1167.54 3238.45 1168.89 3234.38C1172.36 3223.86 1406.11 2989.57 1539.74 2862.68C1601.84 2803.72 1660.18 2747.84 1669.39 2738.51C1678.59 2729.18 1687.95 2722.61 1690.18 2723.9C1692.42 2725.2 1708.95 2732.74 1726.93 2740.67ZM2680.66 2745.53C2682.68 2748.8 2685.67 2751.47 2687.3 2751.47C2688.94 2751.47 2688.62 2748.8 2686.6 2745.53C2684.58 2742.26 2681.59 2739.58 2679.96 2739.58C2678.33 2739.58 2678.64 2742.26 2680.66 2745.53ZM1925.94 2816.8C1939.43 2829.47 1939.43 2829.47 1918.68 2881.1C1907.27 2909.5 1886.41 2962.15 1872.32 2998.11C1858.24 3034.06 1837.14 3086.13 1825.44 3113.82C1800.81 3172.12 1800.59 3173.43 1815.18 3173.43C1826.51 3173.43 1844.98 3138.09 1877.31 3054.57C1934.76 2906.2 1945.77 2877.29 1950.87 2861.55C1956.6 2843.86 1956.6 2843.86 1978.35 2873.44C2076.59 3007.05 2024.88 3212.59 1888.69 3229.78C1672.86 3257.03 1579.52 3303.57 1573.7 3386.84C1570.52 3432.25 1585.79 3454.01 1639.75 3480.95C1711.13 3516.6 1772.04 3528.44 2033.7 3557.51C2058.21 3560.24 2058.21 3560.23 2062.34 3602.16C2067.42 3653.71 2074.43 3649.68 1997.19 3639.56C1700.03 3600.59 1426.04 3478.21 1212.92 3289.26C1192.14 3270.84 1183.06 3281.41 1284.23 3206.12C1319.37 3179.97 1353.79 3154.17 1360.74 3148.78C1372.86 3139.39 1375.19 3140.37 1419.82 3173.71C1517.26 3246.5 1586.16 3282.12 1600.95 3267.33C1613.92 3254.36 1608.47 3247.18 1568.95 3225.21C1527.51 3202.17 1406.18 3119.17 1406.1 3113.8C1406.07 3112.05 1414.12 3105.85 1423.99 3100.01C1433.86 3094.18 1508.09 3038.12 1588.95 2975.42C1761.01 2842 1780.41 2827.32 1780.41 2830.51C1780.41 2833.67 1727.43 2932.05 1658.03 3057.77C1601.31 3160.54 1595.95 3173.43 1610.02 3173.43C1633.3 3173.43 1822.77 2836.97 1813.33 2812.37C1800.92 2780.01 1890.53 2783.53 1925.94 2816.8ZM2507.26 2874.9C2564.93 2990.34 2612.52 3074.03 2664.33 3151.14C2678.21 3171.81 2701.46 3181.8 2701.46 3167.12C2701.46 3163.65 2680.47 3125.53 2654.81 3082.43C2629.16 3039.32 2592.56 2974.63 2573.49 2938.68C2554.42 2902.72 2532.51 2863.15 2524.81 2850.73C2509.45 2825.99 2500.82 2820.27 2703.21 2968.85C2738.49 2994.75 2780.34 3025.3 2796.21 3036.74C2812.07 3048.18 2840.7 3069.47 2859.82 3084.06C2878.94 3098.64 2895.81 3111.46 2897.32 3112.55C2904.23 3117.53 2799.03 3190.94 2730.29 3229.1C2687 3253.13 2678.9 3274.46 2713.06 3274.46C2734.4 3274.46 2876.01 3188.51 2916.63 3150.91C2934.41 3134.44 2932.54 3133.34 3060.07 3235.36C3082.45 3253.27 3103.84 3269.24 3107.61 3270.87C3124.5 3278.14 2972.87 3397.7 2875.47 3453.91C2695.28 3557.89 2396.14 3648.88 2234.47 3648.88C2232.51 3648.88 2248.74 3572.27 2251.74 3567.43C2253.75 3564.16 2286.91 3559.64 2325.41 3557.36C2566.62 3543.14 2709.01 3492.28 2725.13 3414.59C2743.2 3327.56 2667.28 3272.55 2490.51 3244.57C2394.02 3229.3 2383.46 3224.81 2338.65 3179.99C2263.55 3104.89 2255.43 2987.02 2318.44 2886.68C2339.12 2853.73 2350.86 2844.13 2350.86 2860.15C2350.86 2897.22 2477.39 3185.96 2488.68 3174.66C2496.9 3166.44 2487.7 3131.67 2465.89 3088.58C2457.99 3072.96 2437.16 3022.15 2419.62 2975.66C2402.08 2929.17 2382.04 2878.06 2375.1 2862.08C2360.48 2828.46 2378.44 2802.83 2421.66 2795.65C2433.38 2793.7 2445.64 2791.19 2448.91 2790.08C2452.18 2788.98 2456.78 2787.85 2459.13 2787.6C2461.49 2787.34 2483.15 2826.63 2507.26 2874.9ZM2295.53 2836.16C2159.65 3003.74 2247.4 3259.21 2450.29 3286.76C2644.41 3313.13 2736.14 3378.24 2654.93 3432C2455.45 3564.02 1586.99 3519.59 1622.23 3379.17C1631.68 3341.52 1842.21 3262.97 1867.06 3287.83C1871.17 3291.94 1788.39 3322.01 1772.94 3322.01C1763.5 3322.01 1761.93 3323.74 1766.89 3328.7C1790.72 3352.53 1935.43 3286.11 2000.41 3221.52C2091.08 3131.38 2102.77 2973.58 2027.25 2859.47C2006.29 2827.81 2006.29 2827.81 2028.53 2841.63C2045.92 2852.44 2067.92 2857.41 2129.31 2864.38C2215.47 2874.17 2229.7 2885.58 2164.19 2892.34C2128.64 2896.01 2129.09 2905.73 2164.82 2905.9C2187.09 2906.01 2190.79 2910.24 2184.09 2927.96C2179.9 2939.05 2176 2940.49 2158.05 2937.58C2145.38 2935.52 2136.94 2936.59 2136.94 2940.24C2136.94 2947.36 2150.96 2953.54 2167.14 2953.54C2175.34 2953.54 2178.54 2957.71 2178.54 2968.39C2178.54 2980.28 2175.57 2983.25 2163.68 2983.25C2155.51 2983.25 2148.83 2985.93 2148.83 2989.19C2148.83 2992.46 2154.18 2995.14 2160.71 2995.14C2181.83 2995.14 2174.28 3026.72 2151.8 3032.45C2140.48 3035.34 2140.56 3035.69 2153.28 3039.78C2171.02 3045.47 2172.25 3072.4 2154.77 3072.4C2138.49 3072.4 2139.7 3083.01 2156.26 3085.35C2169.96 3087.3 2178.98 3119.14 2178.44 3163.73C2178.34 3173.1 2180.61 3183.8 2183.49 3187.5C2190.91 3197.01 2208.77 3252.15 2205.5 3255.43C2200.89 3260.03 2153.07 3267.99 2128.33 3268.26C2083.14 3268.76 2116.03 3279.14 2170.52 3281.58C2215.95 3283.61 2228.37 3286.39 2246.01 3298.47C2273.43 3317.26 2269.03 3319.16 2177.19 3328.1C2135.59 3332.15 2102.93 3337.68 2104.61 3340.4C2107.91 3345.75 2304.86 3343.31 2338.98 3337.51C2373.82 3331.57 2293.73 3367.3 2246.07 3378.95C2160.8 3399.8 1948.96 3396.05 1871.91 3372.33C1865.71 3370.42 1870.09 3374.13 1881.66 3380.59C1979.92 3435.42 2289.75 3434.31 2460.16 3378.53C2516.9 3359.95 2525.94 3361.26 2492.15 3383.17C2456.85 3406.07 2372 3432.07 2294.41 3443.74C2180.27 3460.92 2185 3464.55 2318.18 3461.96C2533.79 3457.78 2653.92 3427.67 2653.92 3377.81C2653.92 3354.86 2621.1 3340.94 2528.24 3324.54C2258.05 3276.79 2180.07 3170.48 2232.1 2920.85C2242.75 2869.76 2283.55 2815.19 2314.12 2811.15C2315.16 2811.01 2306.79 2822.27 2295.53 2836.16ZM1551.63 2923.82C1553.65 2927.09 1556.64 2929.76 1558.27 2929.76C1559.91 2929.76 1559.59 2927.09 1557.57 2923.82C1555.55 2920.55 1552.56 2917.88 1550.93 2917.88C1549.29 2917.88 1549.61 2920.55 1551.63 2923.82ZM3843.81 3020.43C3814.17 3077.83 3813.6 3082.97 3834.22 3105.7C3842.82 3115.17 3859.62 3133.61 3871.58 3146.69C3897.98 3175.58 3961.22 3253.9 3961.22 3257.73C3961.22 3259.25 3913.76 3250.39 3855.75 3238.04C3716.36 3208.36 3730.76 3205.8 3701.09 3265.64C3667.01 3334.34 3666.57 3333.29 3723.74 3318.95C3735.28 3316.05 3746.56 3320.5 3771.82 3337.9C3800.74 3357.83 3917.46 3439.73 3977.85 3482.47C3989.95 3491.04 4001.8 3506.14 4005.81 3518.13C4017.01 3551.53 4027.48 3546.83 4051.94 3497.4C4076.76 3447.23 4079.95 3431.16 4063.73 3438.1C4030.98 3452.11 3993.23 3439.17 3946.76 3398.03C3933.28 3386.1 3821.97 3316.06 3816.48 3316.06C3813.29 3316.06 3812.01 3314.73 3813.64 3313.11C3815.26 3311.49 3828.41 3314.02 3842.85 3318.74C3857.3 3323.46 3911.9 3333.92 3964.19 3341.98C4138.74 3368.89 4139.53 3368.77 4091.1 3323.85C4064.62 3299.29 4049.74 3283.99 4017.67 3248.36C4014.41 3244.73 3994.61 3221.71 3973.68 3197.2C3952.76 3172.68 3927.46 3145.28 3917.46 3136.29C3893.68 3114.91 3899.18 3115.66 3939.35 3139.26C3957.43 3149.88 4008.4 3179.37 4052.61 3204.78C4143.33 3256.93 4151.37 3263.4 4151.37 3284.24C4151.37 3311.18 4170.66 3297.27 4196.57 3251.64C4210.15 3227.71 4224.26 3205.14 4227.92 3201.47C4245.97 3183.42 4235.71 3172.16 4205.05 3176.37C4173.81 3180.67 4152.63 3171 4029.56 3096.26C4009.95 3084.35 3975.19 3064.37 3952.31 3051.87C3896.81 3021.54 3889.91 3014.84 3889.91 2991.24C3889.91 2954.75 3871.81 2966.21 3843.81 3020.43ZM1129.45 3013.47C1103.46 3033.35 1081.33 3053.41 1080.27 3058.04C1076.23 3075.74 1102.75 3065.37 1142.31 3033.8C1164.8 3015.84 1185.21 3001.13 1187.66 3001.12C1190.12 3001.1 1192.12 2995.73 1192.12 2989.19C1192.12 2970.19 1179.78 2974.97 1129.45 3013.47ZM3120.39 2983.25C3113.02 2995.18 3201.72 3066.45 3223.93 3066.45C3244.84 3066.45 3237.94 3056.92 3193.18 3024.01C3169.49 3006.59 3146.57 2988.96 3142.25 2984.82C3132.79 2975.77 3125.34 2975.23 3120.39 2983.25ZM414.401 3014.45C416.547 3039.95 410.07 3049.36 378.029 3067.29C363.322 3075.52 303.643 3109.76 245.403 3143.36C139.322 3204.57 127.639 3209.08 97.2562 3200.52C74.6458 3194.15 75.9828 3203.07 104.951 3251.83C132.429 3298.09 150.154 3305.87 153.333 3273.05C155.075 3255.05 159.959 3251.21 229.472 3213.35C270.325 3191.09 320.329 3162.49 340.592 3149.78C377.44 3126.69 377.44 3126.69 342.53 3168.26C266.504 3258.83 187.02 3365.13 191.78 3369.89C194.537 3372.65 207.491 3372.19 220.564 3368.86C248.683 3361.71 257.359 3359.69 380.507 3331.65C432.525 3319.81 475.952 3310.98 477.003 3312.04C478.061 3313.09 454.714 3331.15 425.121 3352.16C395.535 3373.16 361.468 3397.97 349.423 3407.28C299.65 3445.74 279.149 3454.38 255.927 3446.72C227.98 3437.49 225.455 3441.41 240.608 3470.49C276.255 3538.89 318.535 3573.59 324.489 3539.35C327.502 3522.03 332.047 3518.24 440.387 3442.59C594.197 3335.18 585.979 3339.31 615.417 3354.54C656.906 3375.99 638.829 3323.39 584.339 3264.06C567.047 3245.24 434.023 3260.67 356.244 3290.52C339.012 3297.13 382.004 3241.7 445.587 3175.32C512.918 3105.02 511.843 3112.41 464.643 3044.17C428.188 2991.46 411.638 2981.68 414.401 3014.45ZM1376.33 3036.39C1376.33 3039.47 1378.98 3043.61 1382.21 3045.61C1385.57 3047.69 1386.57 3045.31 1384.54 3040.02C1380.59 3029.73 1376.33 3027.84 1376.33 3036.39ZM1360.91 3049.55C1358.28 3053.8 1359.28 3054.79 1363.53 3052.16C1370.38 3047.93 1372.72 3042.68 1367.77 3042.68C1366.32 3042.68 1363.24 3045.77 1360.91 3049.55ZM1328.79 3084.28C1328.79 3088.64 1330.58 3090.42 1332.76 3088.25C1334.93 3086.07 1334.93 3082.5 1332.76 3080.32C1330.58 3078.14 1328.79 3079.93 1328.79 3084.28ZM1248.01 3162.46C1245.38 3166.71 1246.37 3167.71 1250.62 3165.08C1257.47 3160.85 1259.82 3155.6 1254.87 3155.6C1253.42 3155.6 1250.34 3158.69 1248.01 3162.46ZM1317.46 3233.65C1283.33 3274.19 1274.48 3293.35 1286.44 3300.74C1292.72 3304.62 1365.78 3216.93 1366.74 3204.38C1368.34 3183.36 1351.23 3193.53 1317.46 3233.65ZM2916.42 3198.92C2909.8 3206.9 2914.37 3214.43 2948.5 3251.75C2990.36 3297.5 3004.52 3306.63 3004.52 3287.86C3004.52 3267.57 2925.58 3187.88 2916.42 3198.92ZM1506.1 3287.52C1492.83 3297.94 1435.75 3386.8 1435.75 3397.06C1435.75 3417.36 1455.19 3401.17 1486.17 3355.08C1519.19 3305.96 1530.21 3268.6 1506.1 3287.52ZM2776.37 3284.73C2768.53 3292.57 2774.1 3305.47 2806.41 3354.34C2838.61 3403.05 2855.96 3417.2 2855.96 3394.74C2855.96 3374.59 2784.83 3276.26 2776.37 3284.73ZM1215.89 3349.2C1451.88 3541.89 1706.27 3648.89 2013.64 3684.75C2048.78 3688.86 2077.52 3694.28 2077.52 3696.8C2077.52 3699.33 2079.14 3705.62 2081.13 3710.79C2094.35 3745.26 1808.63 3692.49 1634.82 3628.37C1443.32 3557.72 1112.03 3342.81 1142.57 3309.06C1153.67 3296.79 1147.7 3293.52 1215.89 3349.2ZM3165.18 3313.36C3178.11 3328.94 3103.64 3394.38 2974.8 3480.63C2780.99 3610.37 2512.58 3700.43 2254.3 3722.37C2220.31 3725.26 2220.13 3725.2 2220.13 3708.97C2220.13 3692.67 2220.13 3692.67 2289.33 3685.46C2599.95 3653.07 2915.18 3520.08 3114.45 3337.34C3154.37 3300.72 3154.61 3300.61 3165.18 3313.36ZM3639.53 3363.55C3631.81 3373.63 3618.13 3390.82 3609.14 3401.76C3585.84 3430.11 3590.01 3449.14 3616.43 3435C3633.69 3425.76 3646.73 3434.37 3722.15 3504.82C3758.06 3538.35 3794.46 3571.31 3803.03 3578.05C3864.32 3626.26 3855.15 3707.14 3787.14 3718.17C3762.54 3722.17 3748.41 3713.33 3676.24 3648.88C3652.45 3627.63 3625.95 3604.04 3617.35 3596.45C3554.89 3541.35 3545.26 3529.22 3545.26 3505.67C3545.26 3473.47 3540.65 3475.59 3484.66 3533.49C3428.17 3591.91 3425.37 3598.97 3459.48 3596.89C3486.11 3595.27 3487.84 3596.57 3623.44 3719.43C3729.48 3815.51 3787.87 3822.31 3860.85 3747.11C3935.35 3670.35 3918.1 3619.92 3771.53 3485.86C3719 3437.83 3674.79 3392.68 3673.27 3385.53C3671.76 3378.37 3669.74 3367.39 3668.8 3361.13C3666.05 3342.88 3654.66 3343.82 3639.53 3363.55ZM646.358 3394.83C648.248 3422.81 647.196 3423.99 524.209 3532.21C416.665 3626.85 410.83 3631.05 386.687 3631.05C370.94 3631.05 360.309 3634.07 358.378 3639.11C355.591 3646.39 524.553 3821.23 534.376 3821.23C539.219 3821.23 616.261 3780.06 626.119 3772.2C647.374 3755.26 634.242 3749.03 586.121 3753.23C546.261 3756.71 536.07 3755.7 522.242 3746.9C503.054 3734.7 473.105 3703.95 473.105 3696.46C473.105 3691.24 576.352 3601.33 582.348 3601.33C590.441 3601.33 615.72 3647.4 615.72 3662.14C615.72 3685.64 627.432 3682.93 662.616 3651.29C698.704 3618.85 702.851 3601.44 673.657 3604.97C658.849 3606.76 649.496 3603.22 633.547 3589.79C612.749 3572.28 612.749 3572.28 648.402 3539.59C704.224 3488.42 707.974 3487.31 732.896 3514.5C754.775 3538.38 755.88 3548.05 742.974 3602.82C736.681 3629.53 758.352 3623.39 793.138 3588.6C830.979 3550.76 833.932 3561.63 765.762 3487.93C733.894 3453.48 698.561 3414.09 687.235 3400.4C661.57 3369.36 644.486 3367.03 646.358 3394.83ZM1667.5 3380.52C1667.5 3411.43 1755.91 3435.88 1896.05 3443.71C1972.79 3448 1974.86 3443.43 1901.39 3431.98C1790.14 3414.65 1746.81 3403.91 1708.93 3384.32C1690.25 3374.66 1667.5 3372.57 1667.5 3380.52ZM778.996 3387.6C767.385 3406.39 782.745 3439.42 804.791 3443.06C889.076 3457 897.39 3434.06 822.529 3394.1C796.258 3380.08 784.712 3378.35 778.996 3387.6ZM2400.38 3409.17C2402.56 3411.35 2406.13 3411.35 2408.31 3409.17C2410.48 3406.99 2408.7 3405.21 2404.35 3405.21C2399.99 3405.21 2398.21 3406.99 2400.38 3409.17ZM1966.6 3450.78C1968.78 3452.95 1972.34 3452.95 1974.52 3450.78C1976.7 3448.59 1974.91 3446.81 1970.56 3446.81C1966.2 3446.81 1964.42 3448.59 1966.6 3450.78ZM1987.27 3450.87C1991.56 3452.59 1996.69 3452.37 1998.66 3450.4C2000.63 3448.43 1997.13 3447.03 1990.86 3447.28C1983.94 3447.57 1982.53 3448.97 1987.27 3450.87ZM2144.07 3699.83C2143.09 3751.01 2141.33 3791.91 2140.16 3790.72C2137.96 3788.47 2107.6 3620.36 2102.74 3583.5C2100 3562.7 2100 3562.7 2122.92 3584.73C2145.86 3606.75 2145.86 3606.75 2144.07 3699.83ZM850.464 3620.65C854.189 3645.9 854.189 3645.9 764.093 3758.59C663.276 3884.67 661.796 3886.15 635.383 3886.41C602.237 3886.74 605.291 3898.47 648.86 3938.2C671.488 3958.83 693.183 3975.72 697.076 3975.73C709.447 3975.76 711.557 3964.74 702.525 3947.27C694.11 3931 694.633 3929.23 715.651 3902.72C727.69 3887.54 745.469 3865 755.161 3852.63C764.859 3840.26 789.169 3810.02 809.183 3785.43C829.202 3760.84 847.13 3736.77 849.025 3731.94C860.981 3701.5 850.998 3777.76 824.122 3922.26C802.89 4036.41 802.01 4053.61 816.741 4066.94C837.313 4085.57 839.358 4083.65 986.405 3907.4C1065.65 3812.42 1075.28 3803.4 1097.38 3803.4C1120.66 3803.4 1119.8 3790.98 1095.56 3776.97C1084.93 3770.84 1064.99 3755.6 1051.23 3743.1C1017.07 3712.08 993.981 3718.71 1020.18 3752.02C1034.62 3770.38 1037.03 3765.45 974.711 3845.32C909.025 3929.51 906.256 3931.55 916.518 3888.19C923.167 3860.09 948.487 3689.26 948.487 3672.48C948.487 3664.55 865.23 3595.39 855.681 3595.39C848.538 3595.39 847.492 3600.48 850.464 3620.65ZM3363.68 3644.31C3343.88 3661.53 3318.7 3682.48 3307.7 3690.88C3282.78 3709.9 3287.5 3723.05 3317.24 3717.47C3339.8 3713.24 3349.12 3721.01 3400.19 3786.63C3426.46 3820.39 3426.46 3820.39 3385.24 3851.05C3335.7 3887.89 3343.1 3888.32 3308.63 3846.61C3262.46 3790.76 3259.86 3785.76 3263.88 3760.64C3268.96 3728.88 3260.82 3731.05 3197.7 3778.36C3139.14 3822.26 3126.15 3842.23 3159.99 3836.32C3185.06 3831.94 3184.66 3831.62 3233.39 3895.51C3255.83 3924.93 3278.92 3954.35 3284.69 3960.89C3298.06 3976.01 3340.75 4029.68 3368.97 4066.83C3388.19 4092.13 3390.32 4098.26 3387.03 4118.83C3382.35 4148.06 3393.21 4149.91 3425.28 4125.37C3437.34 4116.14 3462.68 4097.03 3481.58 4082.89C3514.3 4058.43 3521.59 4045.05 3503.16 4043.29C3498.53 4042.85 3488.51 4042.18 3480.89 4041.8C3473.26 4041.43 3458.55 4032.1 3448.21 4021.07C3424.47 3995.77 3372.94 3930.76 3372.94 3926.11C3372.94 3921.95 3462.46 3860.93 3464.34 3863.81C3465.06 3864.9 3484.23 3888.53 3506.94 3916.31C3547.19 3965.55 3548.2 3967.62 3547.09 3998.03C3545.8 4033.22 3548.86 4035.22 3572.88 4014.86C3582.2 4006.95 3607.88 3985.39 3629.94 3966.94C3675.15 3929.13 3682.02 3912.74 3650.16 3918.72C3625.3 3923.39 3624.16 3922.29 3516.89 3790.22C3415.82 3665.77 3413.83 3662.77 3415.83 3637.07C3418.22 3606.38 3405.21 3608.18 3363.68 3644.31ZM2119.12 3631.05C2119.12 3635.4 2120.9 3637.19 2123.08 3635.01C2125.25 3632.83 2125.25 3629.26 2123.08 3627.08C2120.9 3624.91 2119.12 3626.69 2119.12 3631.05ZM2131 3666.71C2131 3671.06 2132.78 3672.84 2134.96 3670.67C2137.14 3668.49 2137.14 3664.92 2134.96 3662.74C2132.78 3660.57 2131 3662.35 2131 3666.71ZM1130.16 3814.58C1128.38 3817.47 1132.39 3826.79 1139.08 3835.29C1152.46 3852.31 1156.69 3841.87 1077.49 3987.63C1067.72 4005.61 1048.99 4040.38 1035.87 4064.89C1009.16 4114.82 986.666 4142.15 972.28 4142.15C966.98 4142.15 957.627 4145.82 951.5 4150.3C937.351 4160.65 953.711 4171.56 1072.79 4231.27C1172.7 4281.35 1177.05 4281.79 1204.98 4244.67C1252.17 4181.96 1248.69 4168.97 1192.07 4196.59C1148.31 4217.95 1113.94 4214.78 1085.64 4186.78C1071.56 4172.85 1100.57 4102.84 1135.86 4065.56C1147.9 4052.85 1182.25 4074.91 1186.24 4097.91C1190.86 4124.58 1203.72 4119.03 1228.35 4079.75C1260.36 4028.7 1257.82 4005.94 1222.47 4026.83C1204.85 4037.24 1163.47 4023.19 1166.38 4007.78C1170.09 3988.1 1224.02 3904.43 1233 3904.43C1258.49 3904.43 1292.42 3944.57 1294.32 3976.97C1296.66 4016.81 1306.43 4018.96 1328.31 3984.46C1367.89 3922.04 1369.98 3925 1238.38 3857.35C1142.96 3808.29 1135.79 3805.46 1130.16 3814.58ZM2995.6 3901.05C2972.33 3908.61 2886.79 3945.51 2842.59 3967.07C2813.02 3981.5 2812.49 3998.12 2841.52 4000.65C2867.14 4002.87 2862.42 3995.23 2939.17 4158.86C2997.25 4282.69 3004.73 4304.05 2992.63 4311.53C2981.38 4318.48 2985.46 4345.95 2997.09 4341.6C3107.97 4300.1 3143.53 4275.66 3105.5 4267.12C3093.87 4264.5 3083.9 4250.67 3059.2 4202.85C3012.73 4112.86 3021.47 4109.16 3117.03 4178.32C3199.33 4237.88 3205.66 4239.89 3256.76 4222.69C3321.83 4200.79 3330.76 4181.55 3278.2 4176.5C3254.52 4174.23 3241.99 4168.42 3215.58 4147.5C3197.43 4133.12 3169.34 4111.86 3153.17 4100.27C3113.72 4071.96 3114.56 4073.4 3128.63 4058.3C3199.07 3982.68 3101.05 3866.83 2995.6 3901.05ZM1400.1 3960.16C1400.1 3964.66 1404.11 3971.67 1409.01 3975.75C1422.53 3986.97 1420.36 3999.67 1388.86 4093.87C1372.87 4141.67 1352.51 4204.85 1343.62 4234.27C1326.1 4292.27 1317.81 4305.55 1295.67 4311.11C1268.03 4318.05 1280.7 4330.51 1335.25 4350.02C1396.59 4371.97 1416.28 4368.46 1386.55 4340.89C1366.98 4322.74 1367.04 4324.75 1384.61 4274.74C1392.44 4252.48 1406 4210.2 1414.75 4180.78C1423.51 4151.36 1433.47 4117.93 1436.9 4106.49C1445.6 4077.46 1453.58 4070.63 1453.58 4092.22C1453.58 4120.61 1506.12 4359.49 1519.83 4393.47C1536.54 4434.85 1568.5 4428.41 1581.76 4380.98C1586.96 4362.39 1594.87 4336.49 1599.35 4323.42C1603.83 4310.34 1621.3 4252.84 1638.18 4195.64C1671.39 4083.05 1679.56 4064.89 1697 4064.89C1736.86 4064.89 1712.25 4040.91 1654.35 4023.31C1601.26 4007.18 1587.76 4010.86 1611 4035.12C1627.7 4052.55 1627.7 4052.55 1602.7 4139.34C1567.14 4262.79 1570.04 4258.97 1558.15 4198.08C1517.72 3990.94 1514.98 3983.94 1468.17 3967.31C1419.76 3950.13 1400.1 3948.06 1400.1 3960.16ZM2379.35 3965.22C2325.18 3989.45 2338.97 4008.58 2414.63 4014.16C2546.73 4023.89 2554.56 4020.21 2483.4 3981.83C2427.02 3951.4 2414.65 3949.43 2379.35 3965.22ZM3046.55 3970.27C3084.37 4010.76 3080.58 4048.66 3035.88 4077C3007.58 4094.96 3007.58 4094.96 2979.31 4034.51C2945.91 3963.09 2947.39 3972.16 2967.38 3961.32C2995.88 3945.85 3027.03 3949.37 3046.55 3970.27ZM1742.38 4106.78C1733.91 4148.65 1733.03 4162.5 1738.51 4167.88C1745.61 4174.86 1746.05 4174.48 1776.03 4135.6C1807.92 4094.25 1848.15 4108.53 1842.98 4159.36C1822.45 4361.06 1807.68 4430.06 1783.01 4439.44C1742.94 4454.68 1764.11 4465.12 1856.12 4475.48C1930.76 4483.87 1938.14 4481.87 1914.23 4459.7C1894.96 4441.84 1895.24 4423.3 1917.08 4272.9C1923.5 4228.77 1928.79 4183.15 1928.85 4171.52C1929.03 4138.21 1940.78 4126.33 1964.02 4135.96C1987.29 4145.61 2006.21 4168.81 2006.21 4187.71C2006.21 4203.71 2022.7 4213.36 2029.96 4201.62C2035.24 4193.07 2044.39 4107.03 2040.43 4103.08C2039.04 4101.69 1980.64 4091.17 1910.64 4079.71C1840.65 4068.25 1776.62 4057.47 1768.35 4055.75C1753.71 4052.72 1753.02 4054.07 1742.38 4106.78ZM2432.57 4069.36C2377.31 4078.89 2366.49 4088.89 2393.3 4105.64C2407.77 4114.68 2407.17 4151.42 2390.26 4293.7C2385.59 4332.93 2379.93 4383.35 2377.66 4405.75C2374.26 4439.51 2370.59 4449.58 2356.27 4464.58C2329.65 4492.44 2333.07 4494.79 2393.31 4490.08C2470.17 4484.06 2481.93 4476.43 2445.91 4455.93C2427.82 4445.63 2419.72 4396.34 2432.75 4375.85C2436.68 4369.65 2545.94 4346.8 2549.89 4351.34C2571.7 4376.46 2582.05 4427.44 2567.76 4439.31C2536.36 4465.37 2578.83 4468.62 2673.23 4447.38C2718.93 4437.1 2724.88 4426.46 2692.52 4412.93C2665.76 4401.75 2513.83 4104.96 2519.67 4075.29C2523.54 4055.65 2515.22 4055.09 2432.57 4069.36ZM2494.33 4237.21C2511.84 4271.52 2526.92 4301.2 2527.84 4303.17C2529.23 4306.14 2457.92 4320.44 2441.72 4320.44C2439.02 4320.44 2440.68 4285.62 2445.41 4243.05C2450.13 4200.48 2455.91 4167.73 2458.24 4170.25C2460.58 4172.77 2476.82 4202.91 2494.33 4237.21Z" fill="#62808E"/>
</svg>
