<svg width="219" height="266" viewBox="0 0 219 266" fill="none" xmlns="http://www.w3.org/2000/svg">
<path d="M179.331 10.88C190.461 12.13 211.161 13.51 217.341 24.28C220.331 29.5 215.441 45.19 216.291 51.84H206.281L191.801 211.85L105.881 245.93L104.311 248.27L107.281 255.82C94.1012 259.53 82.4312 269.22 68.2512 264.37C65.9812 263.59 43.3011 244.97 43.3011 243.34C45.4811 240.81 49.4012 238.97 48.0912 235.01L11.4411 204.17L10.2811 93.83L0.711146 92.9C-0.928854 80.75 -0.118855 70.34 7.28115 60.34C11.7811 54.25 20.4511 49.38 25.2911 43.28C28.4011 41.68 30.4911 49.71 34.2612 47.37L83.0111 0L174.921 18.81C179.071 19.27 179.011 13.96 179.331 10.89V10.88ZM206.961 22.21C205.411 21.35 185.971 16.69 184.871 16.95C181.561 17.74 185.621 26.79 179.901 25.82L85.0211 5.98L32.8012 56.81L25.9411 50.9C19.6111 57.82 8.49115 64.95 6.53115 74.55C5.69115 78.67 6.66115 83.59 6.30115 87.83L14.6711 87.96L16.3111 90.32L17.5212 201.11L57.1712 234.95C58.9112 237.99 52.1911 240.35 51.4711 243.33C57.7611 247.56 66.5411 258.66 73.9011 259.72C83.1511 261.06 89.6311 255.16 98.3111 253.31L99.1911 251.5L96.3211 242.82L185.821 208.81L201.481 46.47L202.941 44.88L211.321 45.81C210.271 37.71 215.821 27.11 206.981 22.18L206.961 22.21Z" fill="#62808E"/>
<path d="M144.791 166.83C154.151 168.48 153.481 181.45 147.401 186.53V188.13C150.411 190.39 155.251 200.75 158.781 200.84L160.791 192.85C162.311 192.86 163.091 203.91 170.291 200.34C178.471 196.29 167.721 189.05 165.241 186.37C151.751 171.78 170.131 161.18 177.291 167.32C178.981 168.77 178.921 174.78 176.771 175.82C174.621 176.86 175.281 172.32 174.051 171.07C172.821 169.82 169.191 169.31 167.701 170.74C162.701 177.41 173.111 181.02 175.951 185.65C180.211 192.61 180.521 200.44 171.871 203.9C169.161 204.98 157.071 204.36 153.841 203.78C152.091 203.47 149.561 201.59 148.301 200.32C144.821 196.8 142.561 186.02 137.231 190.48C136.951 191.66 137.961 199.01 138.471 200.15C139.671 202.85 143.011 200.42 142.301 203.82H128.301C127.591 201.18 130.961 201.52 131.321 200.12C131.711 198.63 131.771 171.87 131.361 170.44C130.001 169.11 126.771 169.87 127.301 166.82C132.611 167.47 139.771 165.93 144.801 166.82L144.791 166.83ZM138.911 170.91C135.671 172.58 138.101 175.92 138.101 178.33C138.101 181 135.211 186.49 140.751 185.87C147.581 185.1 147.271 169.47 138.911 170.91Z" fill="#62808E"/>
<path d="M114.051 41.54C114.971 41 115.051 38.1 119.631 41C124.811 44.27 119.481 46.79 118.821 47.82C117.541 49.8 117.671 64.66 117.281 68.33C116.701 73.82 115.641 79.38 114.791 84.84C113.341 87.32 99.1811 90.69 95.9011 92.95C93.5111 94.6 92.7511 98.99 88.0011 97.68C83.9511 96.57 84.1211 91.9 83.0011 90.1C82.3511 89.06 75.7611 85.27 75.3111 84.05C73.9611 80.41 75.4611 74.42 75.3211 70.28C75.2011 66.6 75.3611 62.31 75.2111 59.24C75.0911 56.69 71.4511 56.64 72.6711 52.8C74.6011 46.69 78.7411 49.19 80.2511 48.33C83.0511 46.74 86.5511 39.18 91.0311 38.05C96.0811 36.77 111.961 42.76 114.031 41.54H114.051ZM113.271 47.87C106.641 47.05 95.5211 41.56 90.0511 45.81C89.3711 46.34 81.7011 53.9 81.3911 54.43C78.5511 59.33 81.0511 73.9 80.4911 80.12L89.3111 88.36L109.831 80.86L113.271 47.86V47.87Z" fill="#62808E"/>
<path d="M61.6411 199.48C59.4011 196.96 57.5611 191.71 57.2411 188.38C54.2711 157.27 99.6311 158.32 91.8611 191.89C88.9111 204.65 70.2111 209.11 61.6411 199.48ZM72.0311 169.99C61.7211 171.84 62.1811 195.05 72.0611 199.56C89.7611 207.64 89.8511 166.8 72.0311 169.99Z" fill="#62808E"/>
<path d="M137.791 48.83C140.501 49.37 144.751 53.5 145.261 56.4C146.471 63.34 139.951 67.27 140.661 69.86L148.751 80.87L155.281 85.83C149.861 85.86 146.001 86.89 141.891 82.74C138.671 79.49 136.351 69.62 131.271 72.42L131.731 82.91C132.741 84.4 136.201 82.66 135.291 85.83H121.291L124.311 81.36L124.351 52.38L121.291 51.83V48.83C126.191 49.49 133.221 47.92 137.791 48.83ZM131.291 52.83V67.83C141.761 69.36 141.211 51.89 131.291 52.83Z" fill="#62808E"/>
<path d="M105.291 166.83C106.261 169.44 102.291 169.59 102.291 169.83V194.33C102.291 197.45 107.081 200.93 110.551 200.61C121.391 199.6 115.991 177.9 117.351 170.45C117.021 169.27 112.391 169.91 113.291 166.84C115.341 167.06 126.391 165.92 126.271 168.34L122.451 171.42C124.061 183.29 125.331 205.81 107.831 204.88C89.5409 203.91 97.2909 182.96 95.3009 172.33C94.7209 169.24 91.0209 170.01 91.2909 166.84H105.291V166.83Z" fill="#62808E"/>
<path d="M176.791 120.83L177.881 122.87L177.291 128.83C174.741 129.38 175.081 126.7 173.521 125.85C172.591 125.34 167.671 124.46 167.301 124.83V136.84L177.291 135.83C177.181 137.93 178.111 142.78 175.781 143.82C173.471 144.42 174.541 141.56 172.691 140.97C171.101 140.46 169.001 140.95 167.291 140.83V153.84L174.671 153.71C177.011 152.9 175.371 148.88 177.771 149.84C180.311 150.86 177.971 155.66 178.111 157.64C176.601 159.98 161.611 156.14 157.811 158.83L156.771 156.82C157.571 156.07 159.261 155.68 159.781 154.82C160.671 153.39 160.681 126.28 159.781 124.83C159.251 123.98 157.571 123.58 156.771 122.83C155.791 122.27 157.671 120.82 157.791 120.82H176.791V120.83Z" fill="#62808E"/>
<path d="M122.291 120.83V128.83C119.661 129.47 120.131 126.44 118.511 125.86C117.521 125.5 111.861 125.09 111.371 125.93L111.421 135.69L122.291 136.35L121.271 143.83C118.451 144.76 119.571 141.61 117.671 140.97C107.781 137.61 111.251 153.49 112.941 153.88L120.141 153.7L123.281 149.84L122.841 157.89C121.461 159.94 117.171 157.86 114.831 157.79C110.331 157.66 105.791 157.98 101.291 157.83C100.361 154.67 103.841 156.39 104.841 154.91V124.76L101.991 123.85L101.281 120.85C108.461 121.81 115.081 121.1 122.291 120.85V120.83Z" fill="#62808E"/>
<path d="M99.2908 120.83V128.82C96.6608 129.55 96.9808 126.16 95.5908 125.8C93.6208 125.29 90.4908 126.16 88.2908 125.82V154.32L93.3008 155.82C93.4708 160.45 87.3508 157.82 84.7808 157.72C83.9208 157.68 75.8408 159.39 78.3008 155.84C78.4008 155.7 81.2908 155.2 81.2908 154.32V125.82C78.9608 126 76.2208 125.37 73.9908 126.02C72.1508 126.56 71.6208 129.27 69.3008 128.81L70.2908 120.81H99.2908V120.83Z" fill="#62808E"/>
<path d="M177.791 48.83C180.541 49.69 178.931 55.81 178.281 57.83C174.981 53.24 172.841 53.41 167.291 53.83V82.83L172.291 83.84V85.83H157.291V83.85C158.111 83.79 160.291 82.88 160.291 82.33V54.33C159.381 52.58 154.491 53.52 153.021 54.06C151.551 54.6 150.051 56.8 149.791 56.81C147.291 56.86 149.841 50.42 149.291 48.83H177.791Z" fill="#62808E"/>
<path d="M154.291 120.83C153.851 122.57 156.651 128.22 153.781 128.82C151.671 129.26 151.891 126.11 150.601 125.8C148.581 125.32 145.531 126.15 143.301 125.82V154.32C144.591 156.89 149.101 154.27 148.301 157.81L134.911 158.65C130.341 155.78 136.311 155.32 136.311 154.32V125.82C132.121 125.77 128.421 124.87 125.811 128.8C123.471 128.84 125.131 121.83 126.811 120.82H154.311L154.291 120.83Z" fill="#62808E"/>
<path d="M69.7909 48.83L70.8809 50.87L70.2909 56.83C67.1209 56.85 68.1009 53.64 64.6009 53.04C56.6809 51.7 59.8309 58.25 59.2909 63.84H69.3009L69.2909 71.83C68.2809 73.04 62.5209 63.43 59.4409 69.48C59.9109 75.32 56.4409 83.25 63.8209 84.83L62.8209 86.81L49.3109 85.84C48.6409 82.71 51.7909 84.49 52.3309 81.37C53.7109 73.44 50.8009 62.72 52.9809 54.45C54.2309 53.04 44.7809 48.84 49.8109 48.84H69.8109L69.7909 48.83Z" fill="#62808E"/>
<path d="M43.2909 166.83C44.3609 170.07 39.6809 168.67 39.2509 170.5L39.4309 198.19C40.2809 200.78 45.3009 199.83 47.6709 199.7C50.0109 198.88 48.3809 194.87 50.7709 195.83C53.3109 196.85 51.3309 202.43 49.7909 203.82H29.2909L32.3109 199.35L32.3509 170.44C32.0109 169.24 27.2609 169.84 28.2909 166.82H43.2909V166.83Z" fill="#62808E"/>
<path d="M157.291 93.84C156.541 97.31 154.001 112.18 160.321 110.45C166.421 108.78 167.351 93.85 169.801 93.85L177.301 111.82L173.461 111.65C172.301 110.07 172.261 105.71 169.811 105.74C165.251 105.81 166.831 108.81 165.371 111.15C163.311 114.45 156.621 111.23 153.291 112.34L152.541 95.28L157.291 93.83V93.84Z" fill="#62808E"/>
<path d="M29.291 161.82C30.521 155.57 31.021 149.01 29.291 142.83C52.371 138.75 51.171 165.17 29.291 161.82ZM34.911 144.9C32.901 145.48 30.961 160.18 36.701 159.83C46.181 159.26 42.941 142.57 34.911 144.9Z" fill="#62808E"/>
<path d="M117.291 111.83V96.33C117.291 96.11 115.431 94.61 117.911 93.95C138.431 88.52 137.841 118.59 117.291 111.83ZM121.421 110.7C128.841 115.34 134.151 96.45 123.711 95.82C117.691 95.46 120.561 110.16 121.421 110.7Z" fill="#62808E"/>
<path d="M51.3008 144.83L51.7508 149.9L56.3008 152.31L51.2908 152.81L51.4008 158.7C53.8508 160.06 55.1308 159.04 57.2908 157.81C58.1508 163.73 51.2108 161.47 47.3008 161.8C48.5308 155.55 49.0308 148.99 47.3008 142.81C49.0908 142.92 57.1308 142.02 57.2808 144.3C57.4408 146.8 51.6608 144.42 51.3108 144.8L51.3008 144.83Z" fill="#62808E"/>
<path d="M135.291 93.83H143.301L143.291 96.83L139.871 95.92C136.461 98.61 138.281 102.48 142.581 101.85L143.291 104.83L138.301 103.83C138.331 105.64 137.611 110.18 139.881 110.72L144.301 110.34C144.151 112.85 142.891 112.5 141.071 112.56C140.011 112.6 136.071 112.85 135.801 112.82C133.431 112.51 135.281 110.45 135.281 110.33V93.83H135.291Z" fill="#62808E"/>
<path d="M50.1008 179.6C49.2508 180.09 48.2108 179.76 47.3008 179.82C49.5808 174.74 49.7408 171.24 48.3008 165.83L53.3508 166.26C56.2708 168.15 51.5008 178.79 50.1008 179.59V179.6Z" fill="#62808E"/>
<path d="M119.151 115.96L119.281 118.82C113.331 117.69 111.281 116.38 105.291 118.82C103.781 117.48 110.901 113.12 112.021 112.95C114.531 112.58 116.571 115.71 119.151 115.96Z" fill="#62808E"/>
</svg>
