<svg width="531" height="441" viewBox="0 0 531 441" fill="none" xmlns="http://www.w3.org/2000/svg">
<path d="M438.57 427.77C439.87 427.95 441.23 428.03 442.62 428.12C443.99 428.21 445.37 428.21 446.74 428.21H446.77C448.32 428.21 449.8 428.12 451.27 428.04C481.37 426.88 509.34 414.41 530.2 392.92C530.4 392.72 530.5 392.47 530.5 392.19V358.58C530.5 358.06 530.14 357.62 529.63 357.54C529.14 357.45 528.62 357.74 528.45 358.23C514.68 397.86 485.14 423.81 451.34 425.93C450.88 425.96 450.44 425.99 450 426.01C448.89 426.06 447.83 426.1 446.76 426.1C445.24 426.1 443.81 426.01 442.36 425.94V425.99C442.28 425.97 442.21 425.93 442.09 425.93C441.08 425.93 440.05 425.85 439.1 425.72C439.02 425.71 438.93 425.71 438.85 425.7H438.82C399.11 421.64 369.16 388.47 369.16 348.55C369.16 332.45 374.01 317.19 382.88 304.4L390.71 324.61C396.47 341.13 411.45 352.24 428.9 352.92H428.97C429.53 352.98 430.08 352.98 430.63 352.98C431.01 352.98 431.32 352.67 431.32 352.28C431.32 351.89 431.01 351.59 430.63 351.59C430.12 351.6 429.57 351.59 429.03 351.54C421.06 350.86 414.33 345.26 412.26 337.57L394.39 291.26C396.2 289.61 398.09 288.03 400.07 286.54L500.59 206.12C519.57 190.8 530.46 168.02 530.46 143.64C530.46 101.59 498.89 67.19 457.03 63.63C454.96 63.39 452.71 63.27 450.14 63.27H450.11C448.99 63.27 447.79 63.27 446.68 63.36C424.61 64.17 403.61 72.92 387.59 87.96C387.38 88.16 387.26 88.43 387.26 88.73V123.64C387.26 124.17 387.65 124.62 388.17 124.69H388.31C388.78 124.69 389.21 124.36 389.33 123.9C398.31 90.29 420.88 67.35 446.83 65.48C447 65.46 447.17 65.45 447.34 65.45C448.27 65.39 449.18 65.39 450.11 65.39C452.62 65.39 454.82 65.5 456.82 65.73H456.86C490.53 69.2 515.93 97.31 515.93 131.14C515.93 152.19 506.17 171.53 489.16 184.18L387.62 265.37C386.38 266.35 385.18 267.36 384 268.4C378.2 260.47 369.78 254.82 360.13 252.42H360.33C390.41 252.42 414.89 220.79 414.89 184.68C414.89 148.57 390.41 119.25 360.33 119.25H318.01C318.01 119.25 317.99 119.25 317.97 119.25H291.85C291.47 119.25 291.16 119.56 291.16 119.94C291.16 120.32 291.47 120.64 291.85 120.64C300.19 120.64 302.73 122.22 302.73 127.42V251.04H277.41V2.12H310.27C358.6 2.12 374.12 19.74 374.12 74.64C374.12 75.23 374.59 75.7 375.17 75.7C375.75 75.7 376.23 75.23 376.23 74.64V1.06001C376.23 0.470005 375.76 0 375.17 0H155.32C154.74 0 154.27 0.470005 154.27 1.06001V74.64C154.27 75.23 154.74 75.7 155.32 75.7C155.9 75.7 156.37 75.23 156.37 74.64C156.37 19.74 171.89 2.12 220.22 2.12H253.1V251.05H227.85V127.61C227.85 122.42 230.39 120.84 238.72 120.84C239.1 120.84 239.41 120.53 239.41 120.14C239.41 119.75 239.1 119.44 238.72 119.44H201.04C200.66 119.44 200.35 119.75 200.35 120.14C200.35 120.53 200.66 120.84 201.04 120.84C209.38 120.84 211.92 122.42 211.92 127.61V251.03H124.94L117.68 245.22V127.61C117.68 122.42 120.22 120.84 128.55 120.84C128.93 120.84 129.24 120.53 129.24 120.14C129.24 119.75 128.93 119.44 128.55 119.44H90.87C90.49 119.44 90.18 119.75 90.18 120.14C90.18 120.53 90.49 120.84 90.87 120.84C99.2 120.84 101.75 122.42 101.75 127.61V232.48L41.34 184.17C24.33 171.52 14.57 152.18 14.57 131.13C14.57 97.3 39.97 69.19 73.64 65.72H73.68C75.68 65.49 77.89 65.38 80.39 65.38C81.33 65.38 82.23 65.38 83.16 65.44C83.33 65.44 83.5 65.45 83.67 65.47C109.61 67.34 132.19 90.28 141.17 123.89C141.29 124.35 141.72 124.68 142.19 124.68H142.33C142.85 124.61 143.24 124.16 143.24 123.63V88.72C143.24 88.43 143.12 88.16 142.91 87.95C126.89 72.91 105.89 64.16 83.82 63.35C82.71 63.26 81.51 63.26 80.39 63.26H80.36C77.79 63.26 75.54 63.38 73.47 63.62C31.61 67.18 0.0400009 101.58 0.0400009 143.63C0.0400009 168.01 10.93 190.78 29.91 206.11L101.73 263.57V344.84C101.73 350.02 99.19 351.6 90.85 351.6C90.47 351.6 90.16 351.91 90.16 352.3C90.16 352.69 90.47 352.99 90.85 352.99H128.53C128.91 352.99 129.22 352.69 129.22 352.3C129.22 351.91 128.91 351.6 128.53 351.6C120.2 351.6 117.66 350.02 117.66 344.82V276.31L130.42 286.52C150.07 301.37 161.34 323.97 161.34 348.52C161.34 388.44 131.39 421.61 91.68 425.67H91.65C91.57 425.68 91.48 425.68 91.4 425.69C90.44 425.83 89.42 425.9 88.41 425.9C88.29 425.9 88.22 425.93 88.14 425.96V425.91C86.7 425.98 85.26 426.07 83.74 426.07C82.67 426.07 81.6 426.02 80.5 425.98C80.07 425.96 79.62 425.93 79.16 425.9C45.36 423.78 15.82 397.84 2.05 358.2C1.88 357.72 1.36 357.42 0.870003 357.51C0.360003 357.59 0 358.03 0 358.55V392.16C0 392.44 0.110003 392.69 0.300003 392.89C21.16 414.38 49.13 426.85 79.23 428.01C80.7 428.09 82.18 428.18 83.73 428.18H83.76C85.14 428.18 86.51 428.18 87.88 428.09C89.27 428 90.63 427.92 91.93 427.74H91.95C138.81 423.69 175.52 383.6 175.52 336.42C175.52 307.24 163.92 281.98 142.86 265.34L126.67 252.39H211.91V344.8C211.91 350 209.37 351.58 201.03 351.58C200.65 351.58 200.34 351.89 200.34 352.28C200.34 352.67 200.65 352.97 201.03 352.97H238.71C239.09 352.97 239.4 352.67 239.4 352.28C239.4 351.89 239.09 351.58 238.71 351.58C230.38 351.58 227.84 350 227.84 344.8V252.37H253.09V427.79C253.09 435.71 249.22 438.12 236.53 438.12C235.94 438.12 235.47 438.59 235.47 439.18C235.47 439.77 235.94 440.23 236.53 440.23H293.94C294.53 440.23 295 439.77 295 439.18C295 438.59 294.53 438.12 293.94 438.12C281.25 438.12 277.38 435.71 277.38 427.79V252.37H302.7V344.79C302.7 349.98 300.16 351.57 291.82 351.57C291.43 351.57 291.12 351.89 291.12 352.27C291.12 352.65 291.43 352.96 291.82 352.96H329.53C329.92 352.96 330.23 352.66 330.23 352.27C330.23 351.88 329.92 351.57 329.53 351.57C321.19 351.57 318.65 349.99 318.65 344.79V252.41H349.76C350.3 252.43 350.82 252.41 351.36 252.45C359.13 253.09 365.6 258.29 367.85 265.76L373.28 279.77C361.34 295.2 354.92 314.72 354.92 336.42C354.92 383.6 391.63 423.69 438.49 427.74H438.51L438.57 427.77ZM319.4 251.05H318.69V120.64H360.34C380.64 120.64 397.15 149.38 397.15 184.69C397.15 220 380.64 251.05 360.34 251.05H319.39H319.4Z" fill="#62808E"/>
</svg>
