<svg width="512" height="512" viewBox="0 0 512 512" fill="none" xmlns="http://www.w3.org/2000/svg">
<path d="M79.5799 418.42C-45.9801 282.57 17.8299 62.45 196.99 17.49C380.13 -28.46 541.66 142.08 488.26 322.76C435.87 500.01 205.59 554.75 79.5799 418.41V418.42ZM421.58 79.42C287.75 -47.31 62.6699 18.67 23.2899 198.79C22.4299 202.71 20.5099 208.41 21.4499 212.02L50.1399 255.86L55.9999 254C59.1499 280.51 73.3299 299.12 94.9999 313.5C95.3499 314.29 80.7799 320.38 82.1499 324.25L165.15 451.91L169.05 451.39C170.66 456.53 171.35 460.61 178 459.98C179.07 452.44 166.34 452.2 170.73 443.21C173.99 436.53 181.61 442.79 186 444.01L184.98 450.31C180.85 453.38 182.42 446.95 179.57 444.91C178.08 443.85 176.74 443.83 175 443.99C172.25 446.63 189.37 455.81 180.57 462.06C178.1 463.81 173.26 461.82 174.02 464.46L183.68 480.06C307.26 521.04 441.64 451.61 483.04 329.53C512.93 241.37 488.85 143.1 421.58 79.41V79.42ZM20.4999 220.02C18.8899 220.01 18.1599 227.76 18.7199 229.69C19.8499 233.53 31.0899 249.05 34.1799 253.32C35.4999 255.15 40.4699 263.02 42.0499 262.62C43.8399 261.52 46.5799 260.4 45.6099 257.99L20.4999 220.03V220.02ZM18.4999 249.02C12.1099 252.99 24.3399 273.33 27.3099 272.87C27.9999 272.76 32.1699 270.07 31.9599 268.59L18.4999 249.02ZM19.4999 270.02C16.8799 271.46 17.4799 278.66 20.4899 278L22.8599 274.69L19.4999 270.02ZM57.0099 339C56.2499 315.5 43.0399 291.69 20.5099 282.99C16.6299 282.98 27.7199 322.69 28.7099 325.79C49.8199 391.48 100.55 447.76 164.99 473L73.0399 331.47L69.6999 330.12L56.9999 339H57.0099Z" fill="#62808E"/>
<path d="M405 296C406.22 297.18 401.92 302.31 400.97 303.47C390.57 316.27 368.67 336.07 351.51 334.98C331.51 333.71 314.75 318.92 306.72 347.22C302.61 361.71 301.85 386.99 293.44 398.94C287.23 407.75 256.3 422.31 245.09 429.59C235.14 436.05 225.83 443.38 216.12 450.16C218.27 457.51 214.96 453.76 213.95 455.64C212.62 458.11 211.35 472.56 209.39 473.05L206.05 472.96L202.99 457.01C201.54 456.77 201.61 458.77 201.32 459.8C200.15 463.87 199.9 466.89 201 471L193.02 468.51C197 468.23 200.26 453.51 199.54 452.03C195.17 442.99 188 463.98 191 468.01C189.6 468.33 180.88 466.63 182.01 464.53C182.6 463.43 184.77 463.17 186.09 460.6C187.41 458.03 190.62 449.4 188.18 447.36L189.49 445.05L205.77 450.25L208.01 462.02C208.97 463.21 211.24 456.13 211.05 454.63C211 454.23 204.99 451.94 212.1 450.43C220.32 418.16 230.74 381.13 227.99 347.53C227.4 340.31 221.42 325.4 222.02 320.6C222.92 313.42 239.64 306.05 242.32 295.83C245 285.61 241.61 270.95 242 260.02C240.89 259.82 240 260.15 238.97 260.48C224.13 265.22 198.37 277.95 183.65 285.16C178.42 287.72 167.15 292.99 163.46 296.97C155.39 305.66 157.1 326.05 156 337.51C155.44 343.31 153.83 349.16 153.52 355.02C148.75 346.95 149.61 333.96 149.97 324.48C150.88 301.08 161.23 218.23 175.99 202.5C176.53 201.92 178.57 199.71 179 200.03L199.03 245.03C200.87 244.69 202.54 244.05 204.46 243.98C246.21 242.41 289.26 246.46 328.36 228.89C339.21 224.02 349.1 217.26 358.52 210.09C372.49 228.46 374.46 252.11 371.96 274.49L337.01 319.03C337.99 319.95 349.52 311.18 351.32 309.85C359.36 303.94 367.01 297.48 374.7 291.13C376.15 290.75 384.48 296.03 387.5 296.03H405V296ZM368.99 260.99C369.19 249.87 368.16 237.35 363.28 227.22C362.71 226.03 362.75 224.26 361.01 224C362.04 229.77 364.63 234.97 365.71 240.79C366.84 246.92 366.4 252.59 367.26 258.25C367.39 259.13 367.69 261.26 369 260.99H368.99ZM247 252C237.37 255.14 227.72 259.66 218.33 263.82C203.69 270.32 175.87 280.98 163.67 289.16C155.44 294.68 153.59 304.21 154.01 313.51C154.06 314.73 153.25 317.22 155 316.99C154.61 306.96 156.59 296.77 165.05 290.54L244 256C244.17 267.44 247.13 281.28 245.99 292.48C244.85 303.68 236.55 307.09 230.59 315.08C221.76 326.91 230.81 326.11 232 336.49C233.2 346.95 231.97 364.64 230.99 375.48C228.8 399.77 222.06 423.52 216.01 446.99L244.09 427.58C257.36 417.02 285.93 409.31 293.19 393.68C300.45 378.05 299.27 340.95 312.52 331.01C329.55 318.23 347.01 341.41 367.92 327.41C370.24 325.86 381.17 316.35 382 314.49C382.2 314.05 382.25 312.85 381.51 313.01C375.82 317.58 365.63 327.82 358.44 328.94C342.18 331.47 325.64 317.44 311.07 327.57C294.5 339.08 300.69 379.33 287 397.5C280.45 406.2 255.3 416.74 244.69 423.19L221 438.99C226.98 415.58 232.88 390.63 234.99 366.49C235.67 358.77 237.22 337.96 234.74 331.76C233.56 328.81 229.68 326.05 230.17 322.74C231.18 315.85 247.31 306.84 248.94 296.44L247 252Z" fill="#62808E"/>
<path d="M269 74L266 100C268.19 100.39 268.35 99.03 268.97 97.48C270.55 93.54 274.62 76.07 276.96 74.41L283.94 75.05C284.67 80.58 283.27 85.94 282.87 91.39C282.75 92.98 281.21 93.51 283.5 94.98L293.12 76.11L301 77L297.01 96C301.07 93.03 303.64 81.47 308.03 79.48C311.83 77.75 333.13 86.22 337.98 88.52C351.87 95.12 373.65 111.63 382.94 123.8C384.07 125.28 386.9 128.08 385.86 129.87C381.47 133.1 375.05 136.11 371.08 139.58C369.94 140.58 368.61 141.12 369 142.99L388.69 134.19C391.31 134.16 393.31 139.12 393.91 141.4C393.31 144.05 368.21 150.66 368.01 153.5C367.88 155.45 371 154.4 371.8 154.33C377.73 153.85 394.18 148.72 398.32 150.16C400.27 150.84 403.48 159.55 402.98 160C396.17 160.29 388.32 160.29 381.61 161.13C380.67 161.25 369.07 162.64 371.99 165L405.85 166.14C416.22 193.87 419.26 223.57 420.98 253C413.98 247.25 407.41 248.56 399.43 247.06C397.57 200.13 366.64 159.48 323.96 141.53C278.99 122.61 218.65 124.68 184.49 162.98C162.49 140.28 129.67 128.9 98.9902 123.99C104.51 119.61 111.71 115.88 118.11 112.62C121.76 110.76 139.06 102.13 141.58 101.98C145.76 101.73 156.28 116.52 160.49 120C161.62 120.93 162.11 122.43 163.99 121.99L150.96 98.53L161.8 95.18C163.65 96.27 174.75 116.87 177.76 120.72C178.71 121.94 178.92 123.43 180.98 122.99C183.39 120.13 172.16 95.77 172.04 90.61L183.97 85.99L191.98 125H194.97L192.1 84.12C217.08 77.36 243 73.63 268.97 73.98L269 74Z" fill="#62808E"/>
<path d="M332 194.99C324.79 188.92 313.4 185.78 304.21 184.29C266.23 178.14 228.95 191.45 199.99 215.48C198.67 216.57 192.2 225.1 191.01 220.48C190.62 218.76 191.62 218.08 192.46 216.95C198.31 209.16 211.37 200.13 219.98 195.47C260.46 173.6 322.88 169.68 355.98 206.49C337.58 223.05 313.34 231.58 289.21 235.7C269.8 239.01 246.32 240.39 226.54 241.03C220.61 241.22 207.62 241.94 202.49 240.99C199.35 240.41 194.05 228.13 195.48 225.02C196.69 222.39 210.06 212.03 213.28 209.77C247.29 185.83 293.35 176.24 332 194.98V194.99Z" fill="#62808E"/>
<path d="M363.65 174.35C383.19 194.4 394.78 221.98 396 250L386.65 250.04C382.01 235.2 378.02 221.05 369.8 207.69C337.14 154.63 265.56 144.3 213.69 175.2C211.27 176.64 202.2 184.33 200.59 183.93L186.17 166.49C233.19 117.09 318.46 128.01 363.64 174.35H363.65ZM379.99 212C378.64 205.15 373.9 198.24 369.82 192.69C337.76 149.04 270.99 131.69 222.01 155.51L251.6 148.1C294.57 142.62 340.69 157.12 367.41 192.09L379.99 212Z" fill="#62808E"/>
<path d="M187.99 39C188.27 42.04 185.62 42.89 186.15 46.22C186.31 47.25 190.56 60.34 191.16 60.83C192.08 61.58 196.6 60.27 195.99 63.98L184.51 68L183.11 65.65C183.53 64.81 184.58 64.07 184.81 63.22C185.24 61.65 183.75 55.73 181.7 56.14C180.13 56.46 174.45 58.31 174.06 59.62L176.07 66.98L179 66.44C180.02 66.97 180.39 69.5 179.99 69.99C179.51 70.56 163.76 75.04 167.14 70.12C171.14 69.82 166.84 58.85 165.7 55.79C164.56 52.73 164.5 50.09 160.63 51.01C157.87 46.15 168.6 45.54 171.98 44L172.97 46.51L169.92 48.59L172.01 55.01C172.26 55.19 177.13 53.89 177.97 53.5C183.24 51.05 180.6 43.84 175.99 46.02L175 43.51L187.98 39.02L187.99 39Z" fill="#62808E"/>
<path d="M325.01 464.99C322.41 462.3 333.37 459.67 331 455C325.85 457.47 322.35 458.5 318.02 454C321.29 462.2 316.49 474.05 306.64 468.87C294 462.22 303.87 435.15 318 453C315.65 435.73 337.62 439.51 335.61 455.02C335.11 458.88 327.5 467.58 325.02 465L325.01 464.99ZM324.69 445.11C323.05 445.52 321.73 447.76 321.95 449.45C321.95 449.45 322 451.5 322.5 452C323 452.5 324 454 326.5 453.5C329 453 329.25 443.96 324.7 445.11H324.69ZM307.7 451.1C302.32 452.45 306.74 467.75 312.35 465.89C317.39 464.22 312.73 449.84 307.7 451.1Z" fill="#62808E"/>
<path d="M309.01 51C311.6 51.27 310.6 51 311.03 49.54C311.38 48.33 313.08 42 313.04 41.59C312.96 40.69 308.64 40.25 310 37.01L321 39.01L320.53 42.07C319.16 43.05 317.53 42.45 316.67 44.24C315.23 47.22 312.72 63.31 311.96 63.98L306.2 62.79L301.98 43.02C300.55 42.78 300.61 44.76 300.29 45.8C299.52 48.26 297.92 54.3 297.91 56.59C297.91 58.12 301.45 58.53 299.98 62.01L288.99 59C289.24 55.57 292.75 56.39 293.82 54.35C294.73 52.61 297.38 39.55 296.99 37.69C296.83 36.94 293.81 36.86 295 34.02L305.53 35.99L309.01 51.02V51Z" fill="#62808E"/>
<path d="M221.91 32.06C221.97 33.92 227.44 40.16 223.48 40.99C221.97 41.31 219.82 37.66 217.26 37.16C214.7 36.66 212.53 37.7 210.09 38.08L211.01 45.01L214.87 43.87L215 40H217.99L218.99 51.01H216L215.9 48.14L212 48L212.14 54.36C213.22 57.71 218.56 55.06 220.71 54.23L226.47 47.02C228.95 48.16 227.32 55.78 226.5 57.02C224.6 59.88 207.85 59.97 203.99 62.01L203 59.49C203.63 58.46 205.75 58.37 206.03 57.3C206.47 55.58 203.81 40.13 202.97 39.48C201.35 38.24 199.06 40.5 199.99 35L221.91 32.06Z" fill="#62808E"/>
<path d="M269 30L269.04 33.49C265.03 34.12 265.25 35.7 264.95 39.46C264.42 46.15 263.45 55.67 273.01 52.51C274.92 51.38 276.5 38.93 276.02 36.48C275.47 33.64 271.92 34.68 272.99 31.01L284 32.51C285.17 36.42 280.95 34.12 280.11 36.62C278.27 42.09 281.41 51.93 275.35 55.87C271.23 58.55 266.79 58.38 262.64 55.86C254.17 50.71 260.3 41.53 259.06 33.56L255.99 32.51C256.01 30.53 255.19 30.12 257.47 30.01C261.29 29.81 265.19 30.16 269.01 30.02L269 30Z" fill="#62808E"/>
<path d="M357.82 52.22C357.99 52.3 358.05 53.55 358.73 53.96C360.52 55.04 362.5 56.17 364.34 57.16C369.04 59.69 374.15 59.02 374.09 64.48C374.06 67.6 373.55 72.33 370.01 70.99C370.21 68.68 368.81 60.86 365.53 63.01C364.35 64.46 357.64 76.66 357.45 77.94C357.18 79.69 361.01 81.79 357.51 83.96L346.99 78.48L347.98 75.5C354.9 76.21 355.89 64.01 359.98 59.48C356.66 54.93 352.23 62.64 349.02 58.49C351.19 56.92 354.81 50.75 357.82 52.21V52.22Z" fill="#62808E"/>
<path d="M152.99 59.02C151.99 66.14 145.1 56.73 142.02 61.49C144.87 64.85 147.86 74.39 150.52 77.06C151.82 78.36 154.77 76.66 155.98 79.5L144.49 85.98L143.11 83.66C143.95 82.42 145.29 81.54 144.86 79.75C144.68 78.99 138.06 66.54 137.49 66C136.29 64.88 135.6 64.78 134.01 65L132.99 73L129.03 72.98L128.09 63.61L128.97 62.46C134.57 62.34 141.02 57.44 145.65 54.07L153 59.01L152.99 59.02Z" fill="#62808E"/>
<path d="M293.5 452C295 453 300 455 301.07 464.5C301.02 477.97 284.64 477.77 283.19 462.21C282.91 459.26 284 456.5 284.5 455C284.5 455 285.5 453 286.5 452.5C287.5 452 289.001 451.5 289.001 451.5C290.5 451 293.09 451.8 293.5 452ZM289.09 455.1C286.41 456.88 288.64 471.72 293.38 470.94C299.14 470 295.17 451.05 289.09 455.1Z" fill="#62808E"/>
<path d="M293.5 452C295 453 300 455 301.07 464.5C301.02 477.97 284.64 477.77 283.19 462.21C282.91 459.26 284 456.5 284.5 455C284.5 455 285.5 453 286.5 452.5C287.5 452 289.001 451.5 289.001 451.5C290.5 451 293.09 451.8 293.5 452ZM289.09 455.1C286.41 456.88 288.64 471.72 293.38 470.94C299.14 470 295.17 451.05 289.09 455.1Z" fill="#62808E"/>
<path d="M344.01 47.01L342.99 51.01L339.01 50C338.87 54.84 333.68 61.77 333.14 65.76C332.81 68.18 335.56 69.45 335 72C334.47 72.54 320.69 69.34 323 65.01C324.15 64.88 325.91 65.41 326.83 64.85C327.61 64.37 333.18 48.67 333.06 47.62C332.98 46.94 329.48 47.32 331.49 44.01C332.52 42.32 333.26 43.77 334.45 44.04C337.73 44.78 340.58 46.84 344 47.03L344.01 47.01Z" fill="#62808E"/>
<path d="M279.74 456.25C284.64 461.47 277.06 468.89 273 471.99C274.71 471.88 276.79 472.37 278.39 471.86C280.27 471.27 279.1 468.14 281.99 469V476L266.99 476.99C264.43 474.38 274.56 467.07 275.47 464.98C279.39 455.92 266.99 455.84 267.99 464H265C265 463 265 459 265 458L265 457C270.48 457.61 274.61 450.79 279.73 456.24L279.74 456.25Z" fill="#62808E"/>
<path d="M173.047 310.112C172.067 321.212 168.777 332.522 168.067 343.612C167.907 346.062 167.177 353.132 169.687 353.962C177.447 355.622 187.337 350.822 194.617 351.192C200.537 351.492 196.017 362.432 196.117 366.442C196.317 374.222 201.667 379.602 202.097 385.562C202.687 393.822 196.217 399.442 198.257 408.392C199.817 415.232 211.037 418.052 217.037 416.102C217.977 420.242 212.756 421.192 209.586 421.132C199.806 420.922 191.876 411.602 193.276 401.852C194.056 396.372 199.237 391.332 198.967 385.682C198.807 382.232 195.217 378.252 193.987 374.652C191.657 367.802 192.547 363.062 193.037 356.102C186.477 354.862 168.246 362.742 165.476 354.162C163.236 347.222 169.537 321.552 171.077 312.622C171.387 310.832 169.986 309.632 173.026 310.102L173.047 310.112Z" fill="#62808E"/>
<path d="M369.037 360.102C367.477 361.862 359.057 350.662 358.227 349.422C357.117 347.762 351.777 339.512 353.047 338.112C354.917 337.722 355.467 339.042 356.457 340.192C359.157 343.282 365.387 352.392 367.577 356.072C368.357 357.392 369.577 358.052 369.037 360.102Z" fill="#62808E"/>
<path d="M286.037 414.102L289.037 427.102C286.667 425.302 280.067 414.032 286.037 414.102Z" fill="#62808E"/>
<path d="M286.985 452.29C286.8 452.387 286.637 452.459 286.5 452.5C286.5 452.5 286.662 452.419 286.985 452.29C289.289 451.077 295.025 445.824 297.033 444.225C318.832 426.894 338.638 407.19 361.353 390.831C376.188 380.14 398.529 361.389 416.924 372.298C418.196 373.053 419.41 372.12 418.867 374.76C399.239 366.75 382.589 379.882 367.271 390.831C342.544 408.5 316.926 432.673 293.5 452C293.5 452 291.5 451 289.5 451.5C288.304 451.799 287.465 452.098 286.985 452.29Z" fill="#62808E"/>
<path d="M252.968 455.058C251.808 457.578 256.41 460.09 253 461.5C250.57 462.51 251.508 459.728 250.848 459.178L242.948 459.578L243.978 464.058C248.5 464 244.5 462 249.968 462.068L248.968 471.068H245.978C245.938 469.078 246.768 467.508 243.978 468.058L243.948 473.578C250.418 476.268 247.07 472.52 252.5 474L252.468 478.058H236.468C235.658 478.058 234.518 475.638 234.918 474.608C235.088 473.768 237.358 473.888 237.828 472.448C238.188 471.348 239.118 459.878 238.748 459.248C238.208 458.338 234.868 458.518 235.968 455.058H252.968Z" fill="#62808E"/>
<path d="M235.978 464.048L231.988 465.068C229.178 446.418 214.468 465.778 223.988 471.558C228.268 474.158 234.128 466.458 234.978 470.578C235.418 472.728 230.418 475.678 228.428 475.998C210.298 478.938 212.438 454.678 223.558 453.098C227.658 452.518 230.128 454.718 233.998 454.478L235.988 464.038L235.978 464.048Z" fill="#62808E"/>
</svg>
